<svg width="500" height="135" viewBox="0 0 500 135" fill="none" xmlns="http://www.w3.org/2000/svg">
<circle cx="332" cy="-64.7764" r="127" fill="white"/>
<circle cx="396.5" cy="30.7236" r="73.5" fill="white"/>
<ellipse cx="515.5" cy="-13.2764" rx="119.5" ry="117.5" fill="white"/>
<g filter="url(#filter0_f_989_6066)">
<path d="M15.0816 -4.77637C15.5017 1.1839 14.9592 16.5018 1 18.1707C5.59184 20.1574 16.3061 27.3495 16.3061 40.2236C17.9388 32.8726 17.8367 22.9389 31 17.5746C22.1224 17.5746 15.0816 11.4356 15.0816 -4.77637Z" stroke="white" stroke-width="3" stroke-linejoin="round"/>
</g>
<g filter="url(#filter1_f_989_6066)">
<path d="M34.6327 25.2236C34.8007 27.8726 34.5837 34.6806 29 35.4223C30.8367 36.3053 35.1224 39.5018 35.1224 45.2236C35.7755 41.9565 35.7347 37.5415 41 35.1574C37.449 35.1574 34.6327 32.4289 34.6327 25.2236Z" stroke="white" stroke-width="3" stroke-linejoin="round"/>
</g>
<g filter="url(#filter2_f_989_6066)">
<path d="M469.633 108.224C469.801 110.873 469.584 117.681 464 118.422C465.837 119.305 470.122 122.502 470.122 128.224C470.776 124.957 470.735 120.542 476 118.157C472.449 118.157 469.633 115.429 469.633 108.224Z" stroke="white" stroke-width="3" stroke-linejoin="round"/>
</g>
<defs>
<filter id="filter0_f_989_6066" x="-5.5" y="-11.2764" width="43" height="58" filterUnits="userSpaceOnUse" color-interpolation-filters="sRGB">
<feFlood flood-opacity="0" result="BackgroundImageFix"/>
<feBlend mode="normal" in="SourceGraphic" in2="BackgroundImageFix" result="shape"/>
<feGaussianBlur stdDeviation="2.5" result="effect1_foregroundBlur_989_6066"/>
</filter>
<filter id="filter1_f_989_6066" x="22.5" y="18.7236" width="25" height="33" filterUnits="userSpaceOnUse" color-interpolation-filters="sRGB">
<feFlood flood-opacity="0" result="BackgroundImageFix"/>
<feBlend mode="normal" in="SourceGraphic" in2="BackgroundImageFix" result="shape"/>
<feGaussianBlur stdDeviation="2.5" result="effect1_foregroundBlur_989_6066"/>
</filter>
<filter id="filter2_f_989_6066" x="457.5" y="101.724" width="25" height="33" filterUnits="userSpaceOnUse" color-interpolation-filters="sRGB">
<feFlood flood-opacity="0" result="BackgroundImageFix"/>
<feBlend mode="normal" in="SourceGraphic" in2="BackgroundImageFix" result="shape"/>
<feGaussianBlur stdDeviation="2.5" result="effect1_foregroundBlur_989_6066"/>
</filter>
</defs>
</svg>
