<svg width="500" height="1080" viewBox="0 0 500 1080" fill="none" xmlns="http://www.w3.org/2000/svg">
<g clip-path="url(#clip0_779_548)">
<rect width="500" height="1080" fill="#98C7FD"/>
<circle cx="332" cy="-64.7764" r="127" fill="white"/>
<circle cx="396.5" cy="30.7236" r="73.5" fill="white"/>
<ellipse cx="515.5" cy="-13.2764" rx="119.5" ry="117.5" fill="white"/>
<g filter="url(#filter0_f_779_548)">
<path d="M15.0816 -4.77637C15.5017 1.1839 14.9592 16.5018 1 18.1707C5.59184 20.1574 16.3061 27.3495 16.3061 40.2236C17.9388 32.8726 17.8367 22.9389 31 17.5746C22.1224 17.5746 15.0816 11.4356 15.0816 -4.77637Z" stroke="white" stroke-width="3" stroke-linejoin="round"/>
</g>
<g filter="url(#filter1_f_779_548)">
<path d="M34.6327 25.2236C34.8007 27.8726 34.5837 34.6806 29 35.4223C30.8367 36.3053 35.1224 39.5018 35.1224 45.2236C35.7755 41.9565 35.7347 37.5415 41 35.1574C37.449 35.1574 34.6327 32.4289 34.6327 25.2236Z" stroke="white" stroke-width="3" stroke-linejoin="round"/>
</g>
<g filter="url(#filter2_f_779_548)">
<path d="M469.633 108.224C469.801 110.873 469.584 117.681 464 118.422C465.837 119.305 470.122 122.502 470.122 128.224C470.776 124.957 470.735 120.542 476 118.157C472.449 118.157 469.633 115.429 469.633 108.224Z" stroke="white" stroke-width="3" stroke-linejoin="round"/>
</g>
<g filter="url(#filter3_f_779_548)">
<path d="M377.317 801.542C377.317 801.541 377.317 801.54 377.318 801.54L377.319 801.534C377.323 801.516 377.331 801.483 377.343 801.436C377.367 801.34 377.407 801.187 377.465 800.983C377.581 800.573 377.768 799.959 378.04 799.193C378.586 797.656 379.465 795.53 380.787 793.215C383.441 788.567 387.767 783.348 394.587 780.42C401.038 777.651 409.132 779.413 415.912 784.8C422.635 790.142 427.5 798.662 427.5 808.289C427.5 828.067 414.192 845.416 400.105 858.151C393.137 864.449 386.154 869.459 380.907 872.896C378.287 874.613 376.108 875.931 374.592 876.816C374.295 876.99 374.024 877.146 373.78 877.286C373.506 877.152 373.2 876.999 372.863 876.829C371.248 876.014 368.926 874.793 366.133 873.185C360.541 869.966 353.1 865.218 345.678 859.099C330.69 846.742 316.5 829.405 316.5 808.289C316.5 797.72 321.722 789.064 328.831 783.891C335.996 778.676 344.71 777.223 351.73 780.394C358.744 783.561 363.464 788.879 366.463 793.532C367.955 795.848 368.994 797.959 369.655 799.478C369.985 800.236 370.219 800.842 370.366 801.246C370.44 801.448 370.492 801.6 370.524 801.694C370.54 801.742 370.55 801.775 370.556 801.793L370.559 801.803C370.559 801.801 370.559 801.8 373.903 800.769L377.317 801.542Z" stroke="white" stroke-width="7" stroke-linejoin="round"/>
</g>
<g filter="url(#filter4_f_779_548)">
<path d="M440.704 735.353C440.353 736.898 439.009 738.015 437.426 738.076C435.843 738.137 434.417 737.128 433.948 735.616C433.948 735.616 433.947 735.615 433.947 735.614L440.704 735.353ZM440.704 735.353L440.704 735.35L440.711 735.322C440.719 735.29 440.732 735.235 440.752 735.158C440.79 735.005 440.853 734.766 440.942 734.452C441.121 733.822 441.405 732.891 441.817 731.734C442.642 729.417 443.969 726.217 445.964 722.733C449.964 715.747 456.538 707.802 466.968 703.337C477.143 698.98 489.644 701.837 499.898 709.963C510.095 718.044 517.5 730.948 517.5 745.573C517.5 775.204 497.543 800.981 476.802 819.682C466.508 828.963 456.198 836.34 448.456 841.398C444.588 843.925 441.37 845.867 439.126 847.174C438.352 847.625 437.695 847.999 437.167 848.296C436.596 848.021 435.877 847.668 435.027 847.24C432.636 846.037 429.205 844.237 425.082 841.87C416.827 837.13 405.839 830.137 394.868 821.116C372.782 802.955 351.5 777.19 351.5 745.573C351.5 729.564 359.438 716.437 370.246 708.592C381.112 700.704 394.509 698.379 405.457 703.31C416.118 708.112 423.254 716.155 427.755 723.123C429.999 726.596 431.562 729.762 432.559 732.047C433.057 733.188 433.412 734.104 433.638 734.724C433.752 735.033 433.833 735.268 433.883 735.419C433.909 735.495 433.927 735.55 433.937 735.582L433.947 735.612L440.704 735.353Z" stroke="white" stroke-width="7" stroke-linejoin="round"/>
</g>
<circle cx="-34" cy="905.224" r="127" fill="white"/>
<circle cx="30.5" cy="1066.72" r="73.5" fill="white"/>
<circle cx="318.5" cy="1077.72" r="73.5" fill="white"/>
<circle cx="348.5" cy="1066.72" r="73.5" fill="white"/>
<circle cx="429.5" cy="1010.72" r="116.5" fill="white"/>
<circle cx="302.5" cy="1013.72" r="73.5" fill="white"/>
<circle cx="113.782" cy="900.006" r="37.7895" transform="rotate(-3.10613 113.782 900.006)" fill="white"/>
<circle cx="498.782" cy="892.006" r="37.7895" transform="rotate(-3.10613 498.782 892.006)" fill="white"/>
<ellipse cx="149.5" cy="1022.72" rx="119.5" ry="117.5" fill="white"/>
<g filter="url(#filter5_f_779_548)">
<path d="M53 630.224C53.6861 640.224 52.8 665.924 30 668.724C37.5 672.057 55 684.124 55 705.724C57.6667 693.39 57.5 676.724 79 667.724C64.5 667.724 53 657.424 53 630.224Z" stroke="white" stroke-width="3" stroke-linejoin="round"/>
</g>
<g filter="url(#filter6_f_779_548)">
<path d="M73.8571 706.224C74.1512 710.727 73.7714 722.3 64 723.561C67.2143 725.062 74.7143 730.496 74.7143 740.224C75.8571 734.67 75.7857 727.164 85 723.111C78.7857 723.111 73.8571 718.473 73.8571 706.224Z" stroke="white" stroke-width="3" stroke-linejoin="round"/>
</g>
<g filter="url(#filter7_f_779_548)">
<path d="M353.633 670.224C353.801 672.873 353.584 679.681 348 680.422C349.837 681.305 354.122 684.502 354.122 690.224C354.776 686.957 354.735 682.542 360 680.157C356.449 680.157 353.633 677.429 353.633 670.224Z" stroke="white" stroke-width="3" stroke-linejoin="round"/>
</g>
</g>
<defs>
<filter id="filter0_f_779_548" x="-5.50012" y="-11.2764" width="43.0002" height="58" filterUnits="userSpaceOnUse" color-interpolation-filters="sRGB">
<feFlood flood-opacity="0" result="BackgroundImageFix"/>
<feBlend mode="normal" in="SourceGraphic" in2="BackgroundImageFix" result="shape"/>
<feGaussianBlur stdDeviation="2.5" result="effect1_foregroundBlur_779_548"/>
</filter>
<filter id="filter1_f_779_548" x="22.4999" y="18.7236" width="25.0002" height="33" filterUnits="userSpaceOnUse" color-interpolation-filters="sRGB">
<feFlood flood-opacity="0" result="BackgroundImageFix"/>
<feBlend mode="normal" in="SourceGraphic" in2="BackgroundImageFix" result="shape"/>
<feGaussianBlur stdDeviation="2.5" result="effect1_foregroundBlur_779_548"/>
</filter>
<filter id="filter2_f_779_548" x="457.5" y="101.724" width="25.0002" height="33" filterUnits="userSpaceOnUse" color-interpolation-filters="sRGB">
<feFlood flood-opacity="0" result="BackgroundImageFix"/>
<feBlend mode="normal" in="SourceGraphic" in2="BackgroundImageFix" result="shape"/>
<feGaussianBlur stdDeviation="2.5" result="effect1_foregroundBlur_779_548"/>
</filter>
<filter id="filter3_f_779_548" x="302.9" y="765.124" width="138.2" height="126.2" filterUnits="userSpaceOnUse" color-interpolation-filters="sRGB">
<feFlood flood-opacity="0" result="BackgroundImageFix"/>
<feBlend mode="normal" in="SourceGraphic" in2="BackgroundImageFix" result="shape"/>
<feGaussianBlur stdDeviation="5.05" result="effect1_foregroundBlur_779_548"/>
</filter>
<filter id="filter4_f_779_548" x="337.9" y="687.124" width="193.2" height="175.2" filterUnits="userSpaceOnUse" color-interpolation-filters="sRGB">
<feFlood flood-opacity="0" result="BackgroundImageFix"/>
<feBlend mode="normal" in="SourceGraphic" in2="BackgroundImageFix" result="shape"/>
<feGaussianBlur stdDeviation="5.05" result="effect1_foregroundBlur_779_548"/>
</filter>
<filter id="filter5_f_779_548" x="23.4999" y="623.724" width="62.0002" height="88.5" filterUnits="userSpaceOnUse" color-interpolation-filters="sRGB">
<feFlood flood-opacity="0" result="BackgroundImageFix"/>
<feBlend mode="normal" in="SourceGraphic" in2="BackgroundImageFix" result="shape"/>
<feGaussianBlur stdDeviation="2.5" result="effect1_foregroundBlur_779_548"/>
</filter>
<filter id="filter6_f_779_548" x="57.4999" y="699.724" width="34.0002" height="47" filterUnits="userSpaceOnUse" color-interpolation-filters="sRGB">
<feFlood flood-opacity="0" result="BackgroundImageFix"/>
<feBlend mode="normal" in="SourceGraphic" in2="BackgroundImageFix" result="shape"/>
<feGaussianBlur stdDeviation="2.5" result="effect1_foregroundBlur_779_548"/>
</filter>
<filter id="filter7_f_779_548" x="341.5" y="663.724" width="25.0002" height="33" filterUnits="userSpaceOnUse" color-interpolation-filters="sRGB">
<feFlood flood-opacity="0" result="BackgroundImageFix"/>
<feBlend mode="normal" in="SourceGraphic" in2="BackgroundImageFix" result="shape"/>
<feGaussianBlur stdDeviation="2.5" result="effect1_foregroundBlur_779_548"/>
</filter>
<clipPath id="clip0_779_548">
<rect width="500" height="1080" fill="white"/>
</clipPath>
</defs>
</svg>
