<svg width="500" height="476" viewBox="0 0 500 476" fill="none" xmlns="http://www.w3.org/2000/svg">
<g clip-path="url(#clip0_990_8043)">
<g filter="url(#filter0_f_990_8043)">
<path d="M376.317 197.544C376.317 197.543 376.317 197.543 376.317 197.542C376.317 197.541 376.317 197.54 376.318 197.54L376.319 197.534C376.323 197.516 376.331 197.483 376.343 197.436C376.367 197.34 376.407 197.187 376.465 196.983C376.581 196.573 376.768 195.959 377.04 195.193C377.586 193.656 378.465 191.53 379.787 189.215C382.441 184.567 386.767 179.348 393.587 176.42C400.038 173.651 408.132 175.413 414.912 180.8C421.635 186.142 426.5 194.662 426.5 204.289C426.5 224.067 413.192 241.416 399.105 254.151C392.137 260.449 385.154 265.459 379.907 268.896C377.287 270.613 375.108 271.931 373.592 272.816C373.295 272.99 373.024 273.146 372.78 273.286C372.506 273.152 372.2 272.999 371.863 272.829C370.248 272.014 367.926 270.793 365.133 269.185C359.541 265.966 352.1 261.218 344.678 255.099C329.69 242.742 315.5 225.405 315.5 204.289C315.5 193.72 320.722 185.064 327.831 179.891C334.996 174.676 343.71 173.223 350.73 176.394C357.744 179.561 362.464 184.879 365.463 189.532C366.955 191.848 367.994 193.959 368.655 195.478C368.985 196.236 369.219 196.842 369.366 197.246C369.44 197.448 369.492 197.6 369.524 197.694C369.54 197.742 369.55 197.775 369.556 197.793L369.559 197.803C369.56 197.804 369.56 197.805 369.56 197.806C369.56 197.806 369.561 197.807 369.561 197.808C370.03 199.319 371.456 200.328 373.038 200.267C374.62 200.206 375.964 199.091 376.316 197.548C376.316 197.548 376.316 197.547 376.316 197.547C376.316 197.546 376.316 197.545 376.317 197.544Z" stroke="white" stroke-width="7" stroke-linejoin="round"/>
</g>
<g filter="url(#filter1_f_990_8043)">
<path d="M439.704 131.353C439.353 132.898 438.009 134.015 436.426 134.076C434.843 134.137 433.417 133.128 432.948 131.616C432.948 131.616 432.947 131.615 432.947 131.614L439.704 131.353ZM439.704 131.353L439.704 131.35L439.711 131.322C439.719 131.29 439.732 131.235 439.752 131.158C439.79 131.005 439.853 130.766 439.942 130.452C440.121 129.822 440.405 128.891 440.817 127.734C441.642 125.417 442.969 122.217 444.964 118.733C448.964 111.747 455.538 103.802 465.968 99.3367C476.143 94.9803 488.644 97.837 498.898 105.963C509.095 114.044 516.5 126.948 516.5 141.573C516.5 171.204 496.543 196.981 475.802 215.682C465.508 224.963 455.198 232.34 447.456 237.398C443.588 239.925 440.37 241.867 438.126 243.174C437.352 243.625 436.695 243.999 436.167 244.296C435.596 244.021 434.877 243.668 434.027 243.24C431.636 242.037 428.205 240.237 424.082 237.87C415.827 233.13 404.839 226.137 393.868 217.116C371.782 198.955 350.5 173.19 350.5 141.573C350.5 125.564 358.438 112.437 369.246 104.592C380.112 96.7044 393.509 94.3794 404.457 99.3104C415.118 104.112 422.254 112.155 426.755 119.123C428.999 122.596 430.562 125.762 431.559 128.047C432.057 129.188 432.412 130.104 432.638 130.724C432.752 131.033 432.833 131.268 432.883 131.419C432.909 131.495 432.927 131.55 432.937 131.582L432.947 131.612L439.704 131.353Z" stroke="white" stroke-width="7" stroke-linejoin="round"/>
</g>
<circle cx="-35" cy="301.224" r="127" fill="white"/>
<circle cx="29.5" cy="462.724" r="73.5" fill="white"/>
<circle cx="317.5" cy="473.724" r="73.5" fill="white"/>
<circle cx="347.5" cy="462.724" r="73.5" fill="white"/>
<circle cx="428.5" cy="406.724" r="116.5" fill="white"/>
<circle cx="301.5" cy="409.724" r="73.5" fill="white"/>
<circle cx="112.782" cy="296.006" r="37.7895" transform="rotate(-3.10613 112.782 296.006)" fill="white"/>
<circle cx="497.782" cy="288.006" r="37.7895" transform="rotate(-3.10613 497.782 288.006)" fill="white"/>
<ellipse cx="148.5" cy="418.724" rx="119.5" ry="117.5" fill="white"/>
<g filter="url(#filter2_f_990_8043)">
<path d="M52 26.2236C52.6861 36.2236 51.8 61.9236 29 64.7236C36.5 68.057 54 80.1236 54 101.724C56.6667 89.3903 56.5 72.7236 78 63.7236C63.5 63.7236 52 53.4236 52 26.2236Z" stroke="white" stroke-width="3" stroke-linejoin="round"/>
</g>
<g filter="url(#filter3_f_990_8043)">
<path d="M72.8571 102.224C73.1512 106.727 72.7714 118.3 63 119.561C66.2143 121.062 73.7143 126.496 73.7143 136.224C74.8571 130.67 74.7857 123.164 84 119.111C77.7857 119.111 72.8571 114.473 72.8571 102.224Z" stroke="white" stroke-width="3" stroke-linejoin="round"/>
</g>
<g filter="url(#filter4_f_990_8043)">
<path d="M352.633 66.2236C352.801 68.8726 352.584 75.6806 347 76.4223C348.837 77.3053 353.122 80.5018 353.122 86.2236C353.776 82.9565 353.735 78.5415 359 76.1574C355.449 76.1574 352.633 73.4289 352.633 66.2236Z" stroke="white" stroke-width="3" stroke-linejoin="round"/>
</g>
</g>
<defs>
<filter id="filter0_f_990_8043" x="301.9" y="161.124" width="138.2" height="126.2" filterUnits="userSpaceOnUse" color-interpolation-filters="sRGB">
<feFlood flood-opacity="0" result="BackgroundImageFix"/>
<feBlend mode="normal" in="SourceGraphic" in2="BackgroundImageFix" result="shape"/>
<feGaussianBlur stdDeviation="5.05" result="effect1_foregroundBlur_990_8043"/>
</filter>
<filter id="filter1_f_990_8043" x="336.9" y="83.1236" width="193.2" height="175.2" filterUnits="userSpaceOnUse" color-interpolation-filters="sRGB">
<feFlood flood-opacity="0" result="BackgroundImageFix"/>
<feBlend mode="normal" in="SourceGraphic" in2="BackgroundImageFix" result="shape"/>
<feGaussianBlur stdDeviation="5.05" result="effect1_foregroundBlur_990_8043"/>
</filter>
<filter id="filter2_f_990_8043" x="22.5" y="19.7236" width="62" height="88.5" filterUnits="userSpaceOnUse" color-interpolation-filters="sRGB">
<feFlood flood-opacity="0" result="BackgroundImageFix"/>
<feBlend mode="normal" in="SourceGraphic" in2="BackgroundImageFix" result="shape"/>
<feGaussianBlur stdDeviation="2.5" result="effect1_foregroundBlur_990_8043"/>
</filter>
<filter id="filter3_f_990_8043" x="56.5" y="95.7236" width="34" height="47" filterUnits="userSpaceOnUse" color-interpolation-filters="sRGB">
<feFlood flood-opacity="0" result="BackgroundImageFix"/>
<feBlend mode="normal" in="SourceGraphic" in2="BackgroundImageFix" result="shape"/>
<feGaussianBlur stdDeviation="2.5" result="effect1_foregroundBlur_990_8043"/>
</filter>
<filter id="filter4_f_990_8043" x="340.5" y="59.7236" width="25" height="33" filterUnits="userSpaceOnUse" color-interpolation-filters="sRGB">
<feFlood flood-opacity="0" result="BackgroundImageFix"/>
<feBlend mode="normal" in="SourceGraphic" in2="BackgroundImageFix" result="shape"/>
<feGaussianBlur stdDeviation="2.5" result="effect1_foregroundBlur_990_8043"/>
</filter>
<clipPath id="clip0_990_8043">
<rect width="500" height="476" fill="white"/>
</clipPath>
</defs>
</svg>
