<svg width="24" height="24" viewBox="0 0 24 24" fill="none" xmlns="http://www.w3.org/2000/svg">
<g clip-path="url(#clip0_53_86)">
<path fill-rule="evenodd" clip-rule="evenodd" d="M18.6171 5.70138C17.9993 4.84381 16.8025 4.77363 16.0912 5.48497L5.85013 15.726L5.26471 18.6539L8.19136 18.0687L18.3476 7.91244C18.9667 7.29341 19.0769 6.33967 18.6171 5.70141L18.6171 5.70138ZM19.5907 4.99999C18.5345 3.53359 16.4693 3.40978 15.2426 4.63644L4.99365 14.8854L4.99364 14.8854L4.99095 14.8881C4.83267 15.0485 4.72137 15.2531 4.67577 15.479L4.67556 15.4801L3.91156 19.3011C3.87223 19.4978 3.9338 19.7011 4.07565 19.843C4.21749 19.9848 4.42084 20.0464 4.61755 20.0071L8.43855 19.2431L8.43962 19.2428C8.66586 19.1972 8.87175 19.0854 9.03318 18.924L19.1962 8.76097C20.1672 7.78999 20.4449 6.18574 19.5907 4.99999Z" fill="#5C5C5C"/>
</g>
<defs>
<clipPath id="clip0_53_86">
<rect width="24" height="24" fill="white"/>
</clipPath>
</defs>
</svg>
