<svg width="24" height="24" viewBox="0 0 24 24" fill="none" xmlns="http://www.w3.org/2000/svg">
<g clip-path="url(#clip0_53_97)">
<path fill-rule="evenodd" clip-rule="evenodd" d="M12.4229 5.07564C12.3103 4.96312 12.1577 4.8999 11.9986 4.8999C11.8395 4.8999 11.6869 4.96312 11.5743 5.07564L8.03267 8.6173C7.79835 8.85162 7.79835 9.23152 8.03267 9.46583C8.26698 9.70015 8.64688 9.70015 8.8812 9.46583L11.3986 6.94843V13.4999C11.3986 13.8313 11.6672 14.0999 11.9986 14.0999C12.33 14.0999 12.5986 13.8313 12.5986 13.4999V6.94843L15.116 9.46583C15.3503 9.70015 15.7302 9.70015 15.9645 9.46583C16.1988 9.23152 16.1988 8.85162 15.9645 8.6173L12.4229 5.07564ZM6.0999 13.9999C6.0999 13.6685 5.83127 13.3999 5.4999 13.3999C5.16853 13.3999 4.8999 13.6685 4.8999 13.9999V16.6666C4.8999 17.7756 5.86465 18.5999 6.94435 18.5999H17.0555C18.1385 18.5999 19.0999 17.7786 19.0999 16.6666V13.9999C19.0999 13.6685 18.8313 13.3999 18.4999 13.3999C18.1685 13.3999 17.8999 13.6685 17.8999 13.9999V16.6666C17.8999 17.0273 17.568 17.3999 17.0555 17.3999H6.94435C6.43515 17.3999 6.0999 17.0242 6.0999 16.6666V13.9999Z" fill="#5C5C5C"/>
</g>
<defs>
<clipPath id="clip0_53_97">
<rect width="24" height="24" fill="white"/>
</clipPath>
</defs>
</svg>
