<?xml version="1.0" encoding="UTF-8"?>
<svg xmlns="http://www.w3.org/2000/svg" xmlns:xlink="http://www.w3.org/1999/xlink" width="192px" height="192px" viewBox="0 0 192 192" version="1.1">
<g id="surface1">
<path style=" stroke:none;fill-rule:nonzero;fill:rgb(13.333334%,72.156864%,93.725491%);fill-opacity:1;" d="M 124.351562 2.277344 C 123.652344 3.515625 122.832031 6.742188 122.480469 9.46875 C 122.070312 12.695312 121.835938 42.460938 121.835938 94.058594 L 121.835938 173.6875 L 123.300781 179.640625 C 125.171875 187.828125 128.214844 187.828125 130.4375 179.890625 L 132.078125 173.9375 L 132.078125 11.703125 L 130.4375 5.75 C 128.742188 -0.453125 126.636719 -1.691406 124.351562 2.277344 Z M 124.351562 2.277344 "/>
<path style=" stroke:none;fill-rule:nonzero;fill:rgb(13.333334%,72.156864%,93.725491%);fill-opacity:1;" d="M 1.84375 19.390625 C -0.613281 29.808594 -0.613281 46.679688 1.84375 57.097656 C 2.835938 61.316406 4.183594 64.292969 5.0625 64.292969 C 7.050781 64.292969 6.992188 66.773438 4.886719 75.207031 C -0.613281 97.53125 -1.023438 154.835938 4.125 174.183594 C 6.40625 182.867188 9.507812 185.59375 17.113281 185.84375 C 25.714844 185.84375 28.347656 183.363281 30.921875 172.445312 C 35.367188 153.59375 34.839844 115.144531 29.984375 102.988281 C 29.046875 100.757812 27.820312 99.019531 27.175781 99.019531 C 25.246094 99.019531 25.128906 94.554688 27 92.820312 C 32.792969 87.363281 34.3125 42.214844 29.339844 22.863281 C 27.117188 14.429688 23.898438 12.199219 13.425781 12.199219 L 3.539062 12.199219 Z M 21.675781 63.300781 C 23.371094 68.261719 23.371094 77.933594 21.558594 82.894531 C 20.507812 85.875 18.984375 86.617188 15.882812 86.121094 L 11.554688 85.378906 L 11.378906 75.703125 C 11.085938 60.324219 11.320312 59.328125 16.058594 59.328125 C 18.984375 59.328125 20.796875 60.570312 21.675781 63.300781 Z M 22.261719 107.949219 C 23.140625 110.429688 23.546875 114.152344 23.546875 120.105469 C 23.546875 133.003906 21.851562 136.726562 16.175781 135.734375 L 11.554688 134.988281 L 11.378906 122.835938 C 11.261719 116.136719 11.320312 109.191406 11.496094 107.453125 C 11.964844 102.246094 20.507812 102.742188 22.261719 107.949219 Z M 22.261719 107.949219 "/>
<path style=" stroke:none;fill-rule:nonzero;fill:rgb(13.333334%,72.156864%,93.725491%);fill-opacity:1;" d="M 72.460938 27.335938 C 71.171875 31.800781 70.9375 34.28125 70.9375 45.941406 L 70.9375 59.335938 L 68.890625 59.335938 C 66.257812 59.335938 64.503906 66.53125 64.503906 77.691406 C 64.503906 89.351562 66.257812 97.785156 68.714844 97.785156 L 70.644531 97.785156 L 70.9375 127.554688 C 71.171875 152.855469 71.40625 158.5625 72.578125 166.5 C 76.027344 190.066406 86.03125 192.050781 90.128906 169.726562 C 93.578125 151.121094 89.542969 125.570312 84.746094 135.492188 C 81.46875 141.941406 80.882812 139.214844 80.882812 116.390625 L 80.882812 96.546875 L 83.222656 98.035156 C 86.5 100.265625 88.3125 97.539062 89.367188 89.105469 C 90.597656 79.179688 90.480469 73.226562 88.898438 65.289062 C 87.671875 59.335938 87.144531 58.59375 84.21875 59.089844 L 80.882812 59.335938 L 80.882812 45.941406 C 80.882812 34.28125 80.648438 31.800781 79.363281 27.335938 C 78.484375 24.359375 76.964844 22.128906 75.910156 22.128906 C 74.859375 22.128906 73.335938 24.359375 72.460938 27.335938 Z M 72.460938 27.335938 "/>
<path style=" stroke:none;fill-rule:nonzero;fill:rgb(13.333334%,72.156864%,93.725491%);fill-opacity:1;" d="M 99.957031 27.828125 C 98.726562 33.039062 98.433594 36.757812 98.433594 46.929688 L 98.433594 59.332031 L 96.503906 59.332031 C 93.054688 59.332031 91.121094 74.710938 92.820312 88.601562 C 93.8125 96.789062 95.453125 100.261719 97.207031 97.78125 C 98.261719 96.542969 98.316406 98.277344 98.550781 125.566406 C 98.785156 158.308594 99.488281 166.496094 102.765625 177.164062 C 106.566406 189.566406 113.707031 187.828125 117.039062 173.441406 C 119.085938 164.757812 119.554688 157.070312 118.679688 145.90625 C 117.800781 134.246094 115.460938 129.535156 112.945312 134.742188 C 109.316406 142.679688 108.964844 141.191406 108.964844 117.875 L 108.964844 97.285156 L 111.832031 98.527344 C 114.347656 99.519531 114.933594 98.773438 116.222656 93.316406 C 118.152344 85.128906 118.269531 71.488281 116.570312 64.292969 C 115.34375 59.085938 114.582031 58.339844 111.191406 59.085938 L 108.964844 59.828125 L 108.964844 47.425781 C 108.964844 30.804688 107.738281 24.601562 104.167969 22.867188 C 101.828125 21.625 101.242188 22.371094 99.957031 27.828125 Z M 99.957031 27.828125 "/>
<path style=" stroke:none;fill-rule:nonzero;fill:rgb(13.333334%,72.156864%,93.725491%);fill-opacity:1;" d="M 46.367188 61.566406 C 39.636719 70.992188 36.421875 90.835938 36.421875 123.828125 C 36.421875 145.410156 37.53125 158.0625 40.574219 170.464844 C 45.429688 190.558594 56.253906 190.558594 60.816406 170.464844 C 67.488281 141.441406 65.847656 83.644531 57.949219 66.527344 C 55.257812 60.574219 48.941406 57.84375 46.367188 61.566406 Z M 57.132812 109.691406 C 58.59375 114.15625 58.125 124.078125 56.3125 128.046875 C 55.492188 129.78125 52.859375 131.269531 50.460938 131.269531 C 48.0625 131.269531 45.429688 129.78125 44.609375 128.046875 C 42.796875 124.078125 42.328125 114.15625 43.792969 109.691406 C 45.195312 105.222656 55.726562 105.222656 57.132812 109.691406 Z M 57.132812 109.691406 "/>
<path style=" stroke:none;fill-rule:nonzero;fill:rgb(13.333334%,72.156864%,93.725491%);fill-opacity:1;" d="M 144.539062 62.308594 C 141.671875 65.535156 137.398438 81.660156 136.289062 93.566406 C 133.011719 128.292969 135.527344 163.269531 142.546875 179.148438 C 144.539062 183.613281 145.882812 184.605469 150.214844 184.605469 C 155.535156 184.355469 157.9375 181.378906 160.570312 171.457031 C 163.144531 162.03125 161.972656 136.480469 158.753906 131.765625 C 157.703125 130.277344 155.363281 130.277344 152.144531 132.015625 C 147.699219 134.246094 146.9375 134.246094 145.589844 130.527344 C 144.773438 128.046875 144.070312 125.316406 144.070312 124.078125 C 144.070312 122.835938 147.464844 121.347656 151.617188 120.851562 C 160.742188 119.859375 161.621094 117.875 161.621094 98.277344 C 161.621094 86.867188 161.445312 84.882812 159.046875 75.457031 C 155.421875 60.574219 150.214844 55.859375 144.539062 62.308594 Z M 152.613281 104.230469 C 153.078125 105.71875 153.429688 108.699219 153.429688 110.433594 C 153.429688 113.164062 152.320312 113.90625 148.75 113.90625 C 146.175781 113.90625 144.070312 112.914062 144.070312 111.921875 C 144.070312 109.195312 145.765625 102.742188 146.996094 100.757812 C 148.222656 98.527344 151.617188 100.757812 152.613281 104.230469 Z M 152.613281 104.230469 "/>
<path style=" stroke:none;fill-rule:nonzero;fill:rgb(13.333334%,72.156864%,93.725491%);fill-opacity:1;" d="M 166.828125 66.53125 L 165.132812 73.722656 L 165.132812 171.460938 L 166.828125 178.65625 C 169.050781 187.832031 171.976562 188.328125 174.316406 179.894531 C 175.957031 173.941406 175.957031 173.691406 176.246094 136.980469 C 176.539062 101.011719 176.597656 100.265625 177.886719 99.523438 C 178.648438 99.027344 179.933594 101.257812 180.988281 104.980469 C 183.96875 115.894531 188.417969 111.179688 189.644531 96.296875 C 190.523438 85.878906 190.464844 82.652344 189.410156 72.980469 C 187.070312 52.140625 180.285156 55.613281 177.886719 78.683594 L 176.65625 90.34375 L 175.839844 78.683594 C 174.492188 58.34375 170.164062 52.636719 166.828125 66.53125 Z M 166.828125 66.53125 "/>
</g>
</svg>
