<?xml version="1.0" encoding="UTF-8"?>
<svg xmlns="http://www.w3.org/2000/svg" xmlns:xlink="http://www.w3.org/1999/xlink" width="512px" height="512px" viewBox="0 0 512 512" version="1.1">
<g id="surface1">
<path style=" stroke:none;fill-rule:nonzero;fill:rgb(13.333334%,72.156864%,93.725491%);fill-opacity:1;" d="M 331.609375 6.070312 C 329.738281 9.378906 327.554688 17.976562 326.617188 25.253906 C 325.523438 33.851562 324.902344 113.234375 324.902344 250.824219 L 324.902344 463.167969 L 328.800781 479.042969 C 333.792969 500.875 341.90625 500.875 347.835938 479.707031 L 352.203125 463.828125 L 352.203125 31.207031 L 347.835938 15.332031 C 343.308594 -1.207031 337.695312 -4.515625 331.609375 6.070312 Z M 331.609375 6.070312 "/>
<path style=" stroke:none;fill-rule:nonzero;fill:rgb(13.333334%,72.156864%,93.725491%);fill-opacity:1;" d="M 4.914062 51.710938 C -1.636719 79.496094 -1.636719 124.476562 4.914062 152.261719 C 7.566406 163.503906 11.15625 171.445312 13.496094 171.445312 C 18.800781 171.445312 18.644531 178.058594 13.027344 200.550781 C -1.636719 260.085938 -2.730469 412.890625 11 464.488281 C 17.082031 487.640625 25.351562 494.917969 45.632812 495.578125 C 68.570312 495.578125 75.589844 488.964844 82.453125 459.859375 C 94.3125 409.582031 92.90625 307.050781 79.957031 274.640625 C 77.460938 268.683594 74.183594 264.054688 72.46875 264.054688 C 67.320312 264.054688 67.007812 252.148438 72 247.515625 C 87.445312 232.964844 91.503906 112.570312 78.242188 60.972656 C 72.3125 38.480469 63.730469 32.527344 35.804688 32.527344 L 9.4375 32.527344 Z M 57.804688 168.796875 C 62.328125 182.027344 62.328125 207.828125 57.492188 221.058594 C 54.683594 228.996094 50.625 230.980469 42.359375 229.65625 L 30.8125 227.671875 L 30.34375 201.871094 C 29.566406 160.859375 30.1875 158.214844 42.824219 158.214844 C 50.625 158.214844 55.464844 161.519531 57.804688 168.796875 Z M 59.363281 287.867188 C 61.703125 294.484375 62.796875 304.40625 62.796875 320.28125 C 62.796875 354.679688 58.269531 364.601562 43.136719 361.957031 L 30.8125 359.972656 L 30.34375 327.558594 C 30.03125 309.699219 30.1875 291.175781 30.65625 286.546875 C 31.90625 272.65625 54.683594 273.976562 59.363281 287.867188 Z M 59.363281 287.867188 "/>
<path style=" stroke:none;fill-rule:nonzero;fill:rgb(13.333334%,72.156864%,93.725491%);fill-opacity:1;" d="M 193.226562 72.898438 C 189.792969 84.804688 189.167969 91.417969 189.167969 122.511719 L 189.167969 158.230469 L 183.707031 158.230469 C 176.6875 158.230469 172.007812 177.414062 172.007812 207.183594 C 172.007812 238.273438 176.6875 260.761719 183.238281 260.761719 L 188.386719 260.761719 L 189.167969 340.144531 C 189.792969 407.617188 190.417969 422.832031 193.535156 444 C 202.742188 506.84375 229.421875 512.136719 240.339844 452.601562 C 249.546875 402.988281 238.78125 334.851562 225.988281 361.3125 C 217.25 378.511719 215.691406 371.234375 215.691406 310.375 L 215.691406 257.457031 L 221.933594 261.425781 C 230.667969 267.378906 235.503906 260.101562 238.3125 237.609375 C 241.589844 211.152344 241.277344 195.277344 237.066406 174.109375 C 233.789062 158.230469 232.382812 156.246094 224.582031 157.570312 L 215.691406 158.230469 L 215.691406 122.511719 C 215.691406 91.417969 215.066406 84.804688 211.632812 72.898438 C 209.292969 64.960938 205.238281 59.007812 202.429688 59.007812 C 199.621094 59.007812 195.566406 64.960938 193.226562 72.898438 Z M 193.226562 72.898438 "/>
<path style=" stroke:none;fill-rule:nonzero;fill:rgb(13.333334%,72.156864%,93.725491%);fill-opacity:1;" d="M 266.550781 74.207031 C 263.273438 88.101562 262.496094 98.023438 262.496094 125.144531 L 262.496094 158.21875 L 257.34375 158.21875 C 248.140625 158.21875 242.992188 199.230469 247.515625 236.277344 C 250.167969 258.105469 254.539062 267.367188 259.21875 260.75 C 262.027344 257.445312 262.183594 262.074219 262.804688 334.839844 C 263.429688 422.160156 265.300781 443.988281 274.039062 472.433594 C 284.179688 505.507812 303.214844 500.878906 312.105469 462.511719 C 317.566406 439.359375 318.816406 418.851562 316.476562 389.082031 C 314.132812 357.992188 307.894531 345.425781 301.1875 359.316406 C 291.511719 380.484375 290.578125 376.515625 290.578125 314.332031 L 290.578125 259.429688 L 298.222656 262.734375 C 304.929688 265.382812 306.492188 263.398438 309.921875 248.84375 C 315.070312 227.015625 315.382812 190.632812 310.859375 171.449219 C 307.582031 157.558594 305.554688 155.574219 296.503906 157.558594 L 290.578125 159.542969 L 290.578125 126.46875 C 290.578125 82.144531 287.300781 65.609375 277.785156 60.976562 C 271.542969 57.671875 269.984375 59.65625 266.550781 74.207031 Z M 266.550781 74.207031 "/>
<path style=" stroke:none;fill-rule:nonzero;fill:rgb(13.333334%,72.156864%,93.725491%);fill-opacity:1;" d="M 123.644531 164.171875 C 105.699219 189.3125 97.121094 242.230469 97.121094 330.210938 C 97.121094 387.761719 100.085938 421.5 108.195312 454.574219 C 121.144531 508.15625 150.007812 508.15625 162.179688 454.574219 C 179.964844 377.179688 175.597656 223.046875 154.535156 177.402344 C 147.355469 161.527344 130.507812 154.25 123.644531 164.171875 Z M 152.347656 292.503906 C 156.25 304.414062 155 330.871094 150.164062 341.457031 C 147.980469 346.085938 140.960938 350.054688 134.5625 350.054688 C 128.167969 350.054688 121.144531 346.085938 118.960938 341.457031 C 114.125 330.871094 112.878906 304.414062 116.777344 292.503906 C 120.523438 280.597656 148.605469 280.597656 152.347656 292.503906 Z M 152.347656 292.503906 "/>
<path style=" stroke:none;fill-rule:nonzero;fill:rgb(13.333334%,72.156864%,93.725491%);fill-opacity:1;" d="M 385.433594 166.160156 C 377.789062 174.757812 366.402344 217.753906 363.4375 249.507812 C 354.699219 342.117188 361.410156 435.390625 380.128906 477.726562 C 385.433594 489.632812 389.023438 492.28125 400.566406 492.28125 C 414.765625 491.617188 421.160156 483.679688 428.183594 457.21875 C 435.046875 432.082031 431.925781 363.949219 423.347656 351.378906 C 420.539062 347.410156 414.296875 347.410156 405.714844 352.039062 C 393.859375 357.996094 391.832031 357.996094 388.242188 348.070312 C 386.058594 341.457031 384.1875 334.179688 384.1875 330.871094 C 384.1875 327.566406 393.234375 323.597656 404.3125 322.273438 C 428.652344 319.628906 430.992188 314.335938 430.992188 262.078125 C 430.992188 231.648438 430.523438 226.355469 424.125 201.21875 C 414.453125 161.527344 400.566406 148.960938 385.433594 166.160156 Z M 406.964844 277.953125 C 408.210938 281.921875 409.148438 289.859375 409.148438 294.488281 C 409.148438 301.765625 406.183594 303.75 396.667969 303.75 C 389.804688 303.75 384.1875 301.105469 384.1875 298.460938 C 384.1875 291.183594 388.710938 273.984375 391.988281 268.691406 C 395.261719 262.738281 404.3125 268.691406 406.964844 277.953125 Z M 406.964844 277.953125 "/>
<path style=" stroke:none;fill-rule:nonzero;fill:rgb(13.333334%,72.156864%,93.725491%);fill-opacity:1;" d="M 444.875 177.410156 L 440.351562 196.59375 L 440.351562 457.226562 L 444.875 476.410156 C 450.804688 500.886719 458.605469 502.210938 464.847656 479.71875 C 469.214844 463.84375 469.214844 463.183594 469.996094 365.277344 C 470.773438 269.359375 470.929688 267.375 474.363281 265.390625 C 476.390625 264.070312 479.824219 270.023438 482.632812 279.945312 C 490.585938 309.050781 502.445312 296.484375 505.722656 256.792969 C 508.0625 229.007812 507.902344 220.410156 505.097656 194.609375 C 498.855469 139.042969 480.757812 148.304688 474.363281 209.824219 L 471.085938 240.917969 L 468.902344 209.824219 C 465.3125 155.582031 453.769531 140.367188 444.875 177.410156 Z M 444.875 177.410156 "/>
</g>
</svg>
