<svg width="106" height="25" viewBox="0 0 106 25" fill="none" xmlns="http://www.w3.org/2000/svg">
<path d="M68.6535 0.296363C68.2659 0.457862 67.8137 0.877762 67.6199 1.23306C67.3938 1.65296 67.2646 5.52896 67.2646 12.2473V22.6156L68.0721 23.3908C69.1057 24.4567 70.7853 24.4567 72.0127 23.4231L72.9171 22.6479V12.0858V1.52376L72.0127 0.748562C71.076 -0.0589369 69.9132 -0.220437 68.6535 0.296363Z" fill="#22B8EF"/>
<path d="M1.01745 2.52498C-0.339149 3.88157 -0.339149 6.07797 1.01745 7.43457C1.56655 7.98367 2.30945 8.37127 2.79395 8.37127C3.89214 8.37127 3.85984 8.69427 2.69705 9.79246C-0.339149 12.6995 -0.565249 20.1607 2.27715 22.6801C3.53684 23.8106 5.24874 24.1659 9.44773 24.1982C14.1958 24.1982 15.6493 23.8752 17.0705 22.454C19.5253 19.9992 19.2346 14.9928 16.5537 13.4101C16.0369 13.1194 15.3586 12.8933 15.0033 12.8933C13.9374 12.8933 13.8728 12.3119 14.9064 12.0858C18.1041 11.3752 18.9439 5.49657 16.1984 2.97717C14.971 1.87898 13.1945 1.58828 7.41284 1.58828H1.95415L1.01745 2.52498ZM11.9671 8.24207C12.9038 8.88807 12.9038 10.1478 11.9025 10.7938C11.3211 11.1814 10.4813 11.2783 8.76944 11.2137L6.37924 11.1168L6.28234 9.85706C6.12084 7.85447 6.25004 7.72527 8.86634 7.72527C10.4813 7.72527 11.4826 7.88677 11.9671 8.24207ZM12.2901 14.0561C12.7746 14.3791 13.0007 14.8636 13.0007 15.6388C13.0007 17.3184 12.064 17.8029 8.93094 17.6737L6.37924 17.5768L6.28234 15.9941C6.21774 15.122 6.25004 14.2176 6.34694 13.9915C6.60534 13.3132 11.3211 13.3778 12.2901 14.0561Z" fill="#22B8EF"/>
<path d="M40.0036 3.55945C39.293 4.14085 39.1638 4.46385 39.1638 5.98195V7.72615H38.0333C36.5798 7.72615 35.6108 8.66285 35.6108 10.1163C35.6108 11.6344 36.5798 12.7326 37.9364 12.7326H39.0023L39.1638 16.6086C39.293 19.9032 39.4222 20.6461 40.0682 21.6797C41.9739 24.7482 47.4972 25.0066 49.7582 22.0996C51.6639 19.6771 49.4352 16.3502 46.7866 17.6422C44.9778 18.482 44.6548 18.1267 44.6548 15.1551V12.5711L45.9468 12.7649C47.7556 13.0556 48.7569 12.7003 49.3383 11.6021C50.0166 10.3101 49.952 9.53494 49.0799 8.50135C48.4016 7.72615 48.1109 7.62925 46.4959 7.69385L44.6548 7.72615V5.98195C44.6548 4.46385 44.5256 4.14085 43.815 3.55945C43.3305 3.17186 42.4907 2.88116 41.9093 2.88116C41.3279 2.88116 40.4881 3.17186 40.0036 3.55945Z" fill="#22B8EF"/>
<path d="M55.1843 3.62345C54.506 4.30175 54.3445 4.78625 54.3445 6.11054V7.72554H53.2786C51.3729 7.72554 50.307 9.72814 51.2437 11.5369C51.7928 12.6028 52.6972 13.055 53.6662 12.732C54.2476 12.5705 54.2799 12.7966 54.4091 16.3496C54.5383 20.6132 54.9259 21.6791 56.7347 23.068C58.8342 24.683 62.7748 24.4569 64.6158 22.5835C65.7463 21.453 66.0047 20.4517 65.5202 18.9982C65.0357 17.4801 63.7438 16.8664 62.3549 17.5447C60.3523 18.5783 60.1585 18.3845 60.1585 15.3483V12.6674L61.7412 12.8289C63.1301 12.9581 63.4531 12.8612 64.1637 12.1506C65.2295 11.0847 65.2941 9.30824 64.3575 8.37154C63.6792 7.69324 63.2593 7.59634 61.3859 7.69324L60.1585 7.79014V6.17514C60.1585 4.01105 59.4802 3.20355 57.5099 2.97745C56.2179 2.81595 55.8949 2.91285 55.1843 3.62345Z" fill="#22B8EF"/>
<path d="M25.5979 8.0163C21.8834 9.2437 20.1069 11.8277 20.1069 16.1236C20.1069 18.9337 20.7206 20.581 22.4002 22.196C25.0811 24.8123 31.0566 24.8123 33.576 22.196C37.2582 18.4169 36.3538 10.891 31.9933 8.6623C30.5075 7.8871 27.0191 7.5318 25.5979 8.0163ZM31.5411 14.2825C32.3486 14.8639 32.0902 16.1559 31.0889 16.6727C30.6367 16.8988 29.1832 17.0926 27.8589 17.0926C26.5346 17.0926 25.0811 16.8988 24.6289 16.6727C23.6276 16.1559 23.3692 14.8639 24.1767 14.2825C24.9519 13.7011 30.7659 13.7011 31.5411 14.2825Z" fill="#22B8EF"/>
<path d="M79.797 8.11324C78.2143 8.53313 75.8564 10.6326 75.2428 12.183C73.434 16.705 74.8229 21.2593 78.6988 23.3265C79.797 23.9079 80.5399 24.0371 82.9301 24.0371C85.8694 24.0048 87.1937 23.6172 88.6472 22.3252C90.0684 21.0978 89.4224 17.7709 87.6459 17.1572C87.0645 16.9634 85.7725 16.9634 83.996 17.1895C81.5412 17.4802 81.1213 17.4802 80.3784 16.9957C79.9262 16.6727 79.5386 16.3174 79.5386 16.1559C79.5386 15.9944 81.412 15.8006 83.7053 15.736C88.7441 15.6068 89.2286 15.3484 89.2286 12.7967C89.2286 11.3109 89.1317 11.0525 87.8074 9.82513C85.8048 7.88714 82.9301 7.27344 79.797 8.11324ZM84.2544 13.5719C84.5128 13.7657 84.7066 14.1533 84.7066 14.3794C84.7066 14.7347 84.0929 14.8316 82.1226 14.8316C80.7014 14.8316 79.5386 14.7024 79.5386 14.5732C79.5386 14.2179 80.4753 13.3781 81.1536 13.1197C81.8319 12.829 83.7053 13.1197 84.2544 13.5719Z" fill="#22B8EF"/>
<path d="M92.1032 8.66267L91.1665 9.59937V15.9625V22.3256L92.1032 23.2623C93.3306 24.4574 94.9456 24.522 96.2376 23.4238C97.142 22.6486 97.142 22.6163 97.3035 17.8359C97.465 13.1524 97.4973 13.0555 98.2079 12.9586C98.6278 12.894 99.3384 13.1847 99.9198 13.6692C101.567 15.0904 104.022 14.4767 104.7 12.5387C105.185 11.1821 105.152 10.7622 104.571 9.50247C103.279 6.78928 99.5322 7.24148 98.2079 10.2454L97.5296 11.7635L97.0774 10.2454C96.3345 7.59678 93.9443 6.85388 92.1032 8.66267Z" fill="#22B8EF"/>
</svg>
