<svg width="375" height="749" viewBox="0 0 375 749" fill="none" xmlns="http://www.w3.org/2000/svg">
<mask id="mask0_503_955" style="mask-type:alpha" maskUnits="userSpaceOnUse" x="0" y="0" width="375" height="749">
<rect width="375" height="749" rx="28" fill="url(#paint0_linear_503_955)"/>
</mask>
<g mask="url(#mask0_503_955)">
<path d="M257.884 482.638C255.921 486.217 254.616 492.239 254.616 492.239C263.616 499.649 284.205 533.15 289.885 542.552C289.414 542.563 289.37 542.976 290.936 544.52L290.926 544.521C291.009 544.599 291.102 544.671 291.205 544.735C291.312 544.915 291.366 545.009 291.366 545.009C291.497 545.271 291.619 545.553 291.75 545.835C291.559 545.815 288.964 545.618 291.821 547.364L291.811 547.364C292.017 547.486 292.26 547.558 292.523 547.603C298.533 562.045 306.463 594.723 306.631 595.414L306.632 595.434C306.632 595.434 306.632 595.427 306.631 595.414L306.632 595.441C306.632 595.441 306.227 597.365 309.771 597.19L309.791 597.189C313.536 597.553 326.701 593.199 326.701 593.199C346.439 583.155 343.66 582.13 342.303 582.061C340.31 578.585 331.093 562.458 330.161 559.712C330.161 559.712 323.416 546.981 319.96 542.291C320.28 541.506 319.993 540.334 318.686 540.249C319.024 539.675 320.291 537.238 317.307 538.116C313.549 531.626 305.126 516.555 301.331 505.368C301.331 505.368 297.364 492.137 294.426 483.816C296.559 484.257 298.692 484.685 300.853 485.037C306.253 485.916 311.795 486.318 317.376 486.437L350.823 589.257C356.137 605.58 327.097 610.949 327.097 610.949L337.163 641.881L338.687 641.601C342.161 640.957 345.851 642.191 346.979 644.587C348.272 647.34 345.932 650.284 342.049 651L338.167 651.715L326.618 630.163L315.418 632.229L315.259 632.256L304.059 634.323L307.055 657.453L302.416 658.308C298.942 658.952 295.252 657.718 294.124 655.322C292.831 652.569 295.171 649.625 299.053 648.909L300.865 648.577L290.798 617.646C290.798 617.646 261.768 623.007 256.455 606.684L218.435 489.795C218.344 489.525 218.293 489.254 218.232 488.983C219.848 488.994 221.471 488.97 223.093 488.885C234.931 488.25 246.376 484.778 257.884 482.645L257.884 482.638Z" fill="#58A2E2"/>
<path d="M269.587 482.377C269.587 482.377 266.696 483.299 265.035 484.412C264.27 483.587 263.799 483.079 263.799 483.079C263.617 482.553 263.4 482.131 263.155 481.778C266.775 481.265 270.413 480.949 274.074 480.954C272.488 481.414 270.952 481.899 269.558 482.399C269.568 482.398 269.578 482.384 269.587 482.377Z" fill="#58A2E2"/>
<path d="M315.269 632.269L315.418 632.236L326.628 630.169L338.177 651.721L307.066 657.466L304.059 634.336L315.269 632.269Z" fill="#58A2E2"/>
<path d="M338.177 651.721L343.768 662.166L326.216 665.409L326.057 665.436L308.505 668.678L307.056 657.467L307.066 657.466L338.177 651.721Z" fill="#58A2E2"/>
<path d="M300.032 547.557L300.269 547.964L306.631 595.421C306.464 594.73 298.533 562.052 292.523 547.609C292.765 547.648 293.017 547.665 293.268 547.675C294.482 547.709 296.964 547.809 300.032 547.557Z" fill="#58A2E2"/>
<path d="M265.035 484.405C264.713 484.623 264.431 484.846 264.229 485.073L268.173 491.945L268.399 492.333C268.399 492.333 268.399 492.319 268.399 492.312L298.145 544.24C295.786 544.163 293.485 543.81 291.498 543.028C291.498 543.028 290.425 542.53 289.894 542.544C284.215 533.149 263.626 499.641 254.626 492.232C254.626 492.232 255.931 486.21 257.894 482.631C259.646 482.308 261.4 482.012 263.165 481.764C263.41 482.117 263.637 482.546 263.808 483.065C263.808 483.065 264.28 483.573 265.045 484.397L265.035 484.405Z" fill="#58A2E2"/>
<path d="M296.048 545.971C294.598 546.077 293.163 546.052 291.77 545.841C291.77 545.841 291.76 545.841 291.75 545.842C291.619 545.56 291.487 545.278 291.366 545.016C291.366 545.016 291.313 544.922 291.205 544.742C291.483 544.916 291.838 545.031 292.193 545.12C292.973 545.314 294.31 545.658 296.058 545.978L296.048 545.971Z" fill="#58A2E2"/>
<path d="M325.005 590.901C327.225 589.999 329.194 589.066 330.815 588.221L342.691 582.743C342.691 582.743 342.551 582.496 342.304 582.068C343.66 582.144 346.439 583.161 326.701 593.206C326.701 593.206 313.536 597.566 309.791 597.196L324.67 591.058L325.005 590.901Z" fill="#58A2E2"/>
<path d="M325.005 590.901L330.815 588.221C329.194 589.066 327.225 589.999 325.005 590.901Z" fill="#58A2E2"/>
<path d="M294.416 483.823C297.365 492.144 301.322 505.375 301.322 505.375C305.116 516.555 313.529 531.627 317.297 538.123C316.564 538.337 315.577 538.746 314.261 539.434C314.064 539.538 313.838 539.642 313.652 539.759C312.909 540.254 310.508 541.648 307.302 543C306.395 536.075 301.222 530.831 301.222 530.831C294.135 523.858 302.879 536.434 302.879 536.434C305.142 540.132 305.211 543.111 305.276 543.744C305.277 543.758 305.278 543.778 305.288 543.792C304.869 543.849 304.44 543.907 304.001 543.959L302.71 542.02C302.71 542.02 283.593 507.962 281.14 503.512C279.529 500.581 276.755 496.151 276.755 496.151C274.307 494.101 269.976 489.624 266.993 486.481C267.098 484.829 267.801 483.344 269.558 482.385C270.952 481.885 272.487 481.4 274.073 480.94C275.357 480.944 276.642 480.982 277.93 481.067C283.601 481.443 288.985 482.685 294.416 483.816L294.416 483.823Z" fill="#58A2E2"/>
<path d="M320.738 581.21C317.025 578.65 308.513 550.747 308.513 550.747L305.825 546.697C305.825 546.697 305.874 546.688 305.904 546.68C309.918 546.493 314.357 545.639 318.653 543.471C319.066 543.263 319.427 542.996 319.706 542.705C319.812 542.591 319.906 542.45 319.97 542.291C323.416 546.981 330.171 559.712 330.171 559.712C331.102 562.451 340.319 578.584 342.313 582.061C342.062 582.05 341.862 582.065 341.862 582.065C337.162 582.149 335.018 584.211 335.018 584.211C332.888 585.643 323.912 587.382 323.912 587.382C319.661 588.419 314.247 592.498 314.247 592.498C309.32 594.438 312.893 592.758 312.893 592.758L312.428 591.402L310.701 592.612L310.214 594.738L310.194 594.739C310.194 594.739 310.204 594.738 310.214 594.738C308.344 596.371 308.522 597.055 309.81 597.181L309.79 597.182C306.247 597.364 306.652 595.44 306.652 595.44L306.651 595.413L319.648 586.341C325.084 582.829 320.737 581.203 320.737 581.203L320.738 581.21Z" fill="#58A2E2"/>
<path d="M303.57 543.723C303.57 543.723 303.539 543.697 303.518 543.67C303.219 543.463 301.689 542.574 300.457 540.838C300.457 540.838 296.542 534.689 298.046 538.719C298.046 538.719 299.251 541.782 302.673 544.101C301.184 544.235 299.652 544.296 298.145 544.24L268.399 492.312C268.343 492.185 268.288 492.057 268.233 491.929L268.223 491.93C267.482 490.209 266.903 488.249 267.013 486.487C269.987 489.63 274.327 494.107 276.775 496.157C276.775 496.157 279.549 500.587 281.16 503.518C283.613 507.961 302.731 542.026 302.731 542.026L304.021 543.965C303.951 543.968 303.892 543.984 303.822 543.987C303.727 543.867 303.642 543.768 303.6 543.722L303.57 543.723Z" fill="#58A2E2"/>
<path d="M300.032 547.557C301.802 547.411 303.777 547.154 305.815 546.704L308.504 550.755C308.504 550.755 317.016 578.657 320.728 581.217C320.728 581.217 325.065 582.843 319.639 586.355L306.632 595.427L300.27 547.971L300.033 547.563L300.032 547.557Z" fill="#58A2E2"/>
<path d="M330.815 588.221C333.969 586.578 335.833 585.286 335.833 585.286L310.205 594.745L310.692 592.619L312.419 591.409L312.884 592.765C312.884 592.765 309.31 594.446 314.237 592.506C314.237 592.506 319.651 588.427 323.902 587.389C323.902 587.389 332.879 585.65 335.008 584.218C335.008 584.218 337.152 582.157 341.852 582.072C341.852 582.072 342.052 582.051 342.304 582.068C342.551 582.496 342.691 582.743 342.691 582.743L330.815 588.221Z" fill="#58A2E2"/>
<path d="M310.205 594.759C315.717 594.163 320.82 592.592 325.005 590.901L324.67 591.058L309.791 597.196C308.502 597.069 308.324 596.386 310.195 594.759L310.205 594.759Z" fill="#58A2E2"/>
<path d="M310.185 594.753L310.205 594.752C310.205 594.752 310.195 594.752 310.185 594.753Z" fill="#58A2E2"/>
<path d="M330.815 588.221L325.005 590.901C320.82 592.592 315.718 594.163 310.205 594.752L335.833 585.286C335.833 585.286 333.969 586.578 330.815 588.221Z" fill="#58A2E2"/>
<path d="M318.546 540.255C318.233 539.72 317.804 538.999 317.297 538.123C320.291 537.252 319.014 539.682 318.676 540.256C318.636 540.258 318.586 540.26 318.546 540.255Z" fill="#58A2E2"/>
<path d="M291.822 547.371L291.832 547.37C288.974 545.617 291.569 545.822 291.76 545.834C292.013 546.392 292.267 546.977 292.533 547.609C292.271 547.565 292.027 547.492 291.822 547.371Z" fill="#58A2E2"/>
<path d="M296.048 545.971C297.048 546.157 298.178 546.331 299.407 546.467L300.032 547.557C296.954 547.809 294.472 547.71 293.268 547.675C293.017 547.672 292.765 547.654 292.523 547.609C292.257 546.984 292.003 546.392 291.75 545.835L291.77 545.834C293.162 546.045 294.598 546.07 296.047 545.965L296.048 545.971Z" fill="#58A2E2"/>
<path d="M305.895 546.687C305.895 546.687 305.845 546.696 305.815 546.704L305.815 546.69C305.815 546.69 305.865 546.688 305.895 546.687Z" fill="#58A2E2"/>
<path d="M315.413 541.419C315.217 541.543 314.926 541.527 314.698 541.612C313.799 541.941 310.955 542.807 307.361 543.463C307.36 543.442 307.359 543.429 307.359 543.408C307.353 543.272 307.318 543.15 307.303 543.014C310.508 541.662 312.909 540.26 313.652 539.773C313.838 539.649 314.065 539.551 314.261 539.448C315.578 538.759 316.564 538.351 317.298 538.137C317.804 539.012 318.234 539.734 318.546 540.269C317.814 540.263 316.793 540.571 315.413 541.433L315.413 541.419Z" fill="#58A2E2"/>
<path d="M305.815 546.69L305.815 546.704C303.777 547.154 301.812 547.417 300.042 547.556L299.417 546.466C301.341 546.677 303.502 546.796 305.815 546.69Z" fill="#58A2E2"/>
<path d="M318.62 540.368C318.62 540.368 318.648 540.319 318.686 540.256C319.993 540.348 320.28 541.512 319.961 542.298C319.685 541.919 319.421 541.581 319.19 541.317C319.19 541.317 318.986 540.983 318.62 540.361L318.62 540.368Z" fill="#58A2E2"/>
<path d="M290.926 544.521L290.936 544.52C289.38 542.968 289.413 542.557 289.884 542.545C290.518 543.6 290.969 544.355 291.195 544.729C291.092 544.664 290.999 544.6 290.916 544.521L290.926 544.521Z" fill="#58A2E2"/>
<path d="M298.135 544.24L298.911 545.591C297.965 545.765 297.007 545.892 296.047 545.965C294.31 545.644 292.962 545.301 292.182 545.107C291.828 545.018 291.482 544.902 291.195 544.729C290.969 544.355 290.518 543.6 289.884 542.545C290.415 542.53 291.488 543.028 291.488 543.028C293.474 543.804 295.775 544.157 298.135 544.24Z" fill="#58A2E2"/>
<path d="M304.161 544.206L304.001 543.966C304.43 543.914 304.869 543.863 305.288 543.798C305.288 543.798 305.288 543.798 305.288 543.805C304.923 543.943 304.547 544.074 304.161 544.206Z" fill="#58A2E2"/>
<path d="M318.644 543.478C314.347 545.639 309.918 546.493 305.895 546.687C310.228 545.715 314.878 543.861 318.611 540.382C318.611 540.382 318.611 540.382 318.611 540.375C318.976 540.99 319.18 541.33 319.18 541.33C319.411 541.595 319.675 541.926 319.951 542.312C319.887 542.465 319.803 542.612 319.687 542.726C319.398 543.018 319.047 543.285 318.634 543.493L318.644 543.478Z" fill="#58A2E2"/>
<path d="M304.013 544.253C303.939 544.16 303.875 544.067 303.801 543.981C303.871 543.978 303.931 543.969 304.001 543.959L304.161 544.199C304.111 544.214 304.062 544.23 304.013 544.253Z" fill="#58A2E2"/>
<path d="M302.663 544.101C302.663 544.101 302.704 544.127 302.724 544.14C302.931 544.282 303.115 544.391 303.27 544.494C301.874 544.939 300.404 545.319 298.911 545.591L298.135 544.24C299.641 544.29 301.163 544.229 302.663 544.101Z" fill="#58A2E2"/>
<path d="M318.546 540.255C318.546 540.255 318.636 540.251 318.676 540.256C318.638 540.32 318.62 540.354 318.61 540.368C318.589 540.335 318.567 540.288 318.546 540.255Z" fill="#58A2E2"/>
<path d="M296.048 545.971C296.998 545.899 297.956 545.772 298.911 545.598L299.407 546.467C298.178 546.331 297.048 546.157 296.048 545.971Z" fill="#58A2E2"/>
<path d="M304.161 544.206C304.547 544.074 304.923 543.943 305.288 543.805C305.289 543.826 305.3 543.846 305.312 543.879L305.322 543.879C305.598 544.511 307.971 549.21 307.371 543.455C310.955 542.8 313.799 541.934 314.708 541.604C314.926 541.52 315.227 541.536 315.423 541.412C316.802 540.55 317.823 540.243 318.555 540.248C318.577 540.281 318.599 540.328 318.62 540.361L318.62 540.368C314.888 543.854 310.238 545.7 305.904 546.673C305.874 546.674 305.844 546.675 305.814 546.677L304.161 544.192L304.161 544.206Z" fill="#58A2E2"/>
<path d="M304.013 544.253C304.062 544.237 304.112 544.221 304.161 544.199L305.814 546.684C303.502 546.789 301.331 546.671 299.417 546.46L298.921 545.59C300.415 545.319 301.873 544.933 303.28 544.494C304.688 545.361 304.404 544.777 304.023 544.252L304.013 544.253Z" fill="#58A2E2"/>
<path d="M305.288 543.798C305.288 543.798 305.287 543.764 305.276 543.751C305.211 543.118 305.152 540.138 302.879 536.441C302.879 536.441 294.135 523.865 301.222 530.838C301.222 530.838 306.395 536.082 307.302 543.007C306.671 543.271 306.01 543.537 305.328 543.79C305.308 543.791 305.298 543.791 305.278 543.792L305.288 543.798Z" fill="#58A2E2"/>
<path d="M307.371 543.455C306.714 543.577 306.036 543.686 305.328 543.79C306.01 543.537 306.671 543.271 307.302 543.007C307.317 543.136 307.343 543.265 307.358 543.401C307.359 543.422 307.36 543.435 307.36 543.456L307.371 543.455Z" fill="#58A2E2"/>
<path d="M305.288 543.805C305.288 543.805 305.288 543.805 305.288 543.798C305.308 543.797 305.318 543.797 305.338 543.796C305.328 543.797 305.308 543.804 305.299 543.812L305.288 543.805Z" fill="#58A2E2"/>
<path d="M305.322 543.886L305.312 543.886C305.31 543.852 305.299 543.832 305.288 543.805C305.298 543.805 305.318 543.797 305.328 543.79C306.026 543.687 306.704 543.578 307.371 543.455C307.971 549.21 305.607 544.504 305.322 543.886Z" fill="#58A2E2"/>
<path d="M298.036 538.719C296.541 534.683 300.447 540.839 300.447 540.839C301.679 542.574 303.209 543.464 303.508 543.671C303.529 543.697 303.56 543.723 303.56 543.723L303.57 543.723C303.612 543.769 303.696 543.868 303.791 543.988C303.412 544.03 303.032 544.073 302.652 544.102C299.231 541.783 298.025 538.719 298.025 538.719L298.036 538.719Z" fill="#58A2E2"/>
<path d="M302.725 544.146C302.725 544.146 302.684 544.121 302.663 544.108C303.043 544.072 303.432 544.036 303.802 543.994C303.865 544.074 303.939 544.166 304.013 544.266C303.766 544.351 303.518 544.429 303.271 544.508C303.106 544.405 302.931 544.295 302.725 544.153L302.725 544.146Z" fill="#58A2E2"/>
<path d="M303.27 544.501C303.518 544.423 303.765 544.344 304.013 544.259C304.395 544.784 304.679 545.368 303.27 544.501Z" fill="#58A2E2"/>
<path d="M265.035 484.405C266.696 483.292 269.587 482.37 269.587 482.37C269.577 482.371 269.568 482.385 269.558 482.392C267.709 483.061 266.122 483.753 265.067 484.444C265.056 484.431 265.045 484.418 265.035 484.412L265.035 484.405Z" fill="#58A2E2"/>
<path d="M264.25 485.086L268.173 491.938L268.173 491.945L264.229 485.073C264.431 484.846 264.713 484.623 265.035 484.405C265.046 484.418 265.056 484.431 265.066 484.438C264.734 484.649 264.462 484.865 264.239 485.079L264.25 485.086Z" fill="#58A2E2"/>
<path d="M269.558 482.392C267.801 483.351 267.098 484.835 266.993 486.488C266.25 485.703 265.59 485.005 265.067 484.444C266.122 483.76 267.699 483.061 269.558 482.392Z" fill="#58A2E2"/>
<path d="M268.203 491.93L268.173 491.932L264.249 485.079C264.462 484.865 264.744 484.656 265.076 484.437C265.6 484.998 266.26 485.696 267.003 486.48C266.893 488.242 267.472 490.202 268.212 491.923L268.203 491.93Z" fill="#58A2E2"/>
<path d="M268.388 492.313C268.388 492.313 268.389 492.327 268.389 492.333L268.163 491.946L268.378 492.313L268.388 492.313Z" fill="#58A2E2"/>
<path d="M268.213 491.944C268.213 491.944 268.213 491.944 268.213 491.937L268.223 491.936C268.288 492.064 268.334 492.192 268.389 492.32L268.174 491.952L268.204 491.951L268.213 491.944Z" fill="#58A2E2"/>
<path d="M268.183 491.945L268.213 491.93C268.213 491.93 268.213 491.93 268.213 491.937L268.183 491.938L268.183 491.945Z" fill="#58A2E2"/>
<path d="M-41.9191 363.259C55.4531 358.944 33.38 373.335 33.1384 385.196C33.1206 386.071 32.8559 386.951 32.417 387.824L63.0597 389.698C57.328 386.665 53.1709 383.314 50.6719 379.823C39.3764 364.084 93.1414 352.809 139.703 357.278C194.772 362.563 212.085 368.03 227.795 380.907C237.392 388.771 217.598 396.053 189.143 400.112L265.586 409.637C251.458 405.371 241.92 400.284 242.036 394.596C242.388 377.289 223.182 357.875 306.68 357.467C348.589 357.261 360.079 373.464 371.307 392.497C378.016 403.873 389.352 414.047 385.741 419.537L427.347 421.381C394.925 409.923 374.543 393.29 393.631 385.768C419.202 375.695 496.036 387.415 556.025 394.223C592.415 398.351 611.108 408.092 613.491 417.239L659.058 415.697L662.554 243.982L-151.919 239L-154.819 381.424L-117.716 382.64C-115.332 366.081 -81.2746 364.984 -41.9187 363.237L-41.9191 363.259ZM213.717 359.182C163.208 358.873 105.99 347.902 122.709 336.175C143.332 321.716 169.655 312.524 214.631 314.287C280.035 316.852 295.76 323.303 305.639 337.294C314.319 349.579 264.226 359.491 213.717 359.182ZM434.091 376.141C361.309 367.944 343.996 361.074 327.798 351.467C305.346 338.146 331.781 329.154 455.232 338.365C518.675 343.099 554.52 352.606 561.524 363.039C570.36 376.212 495.153 383.02 434.091 376.141ZM558 321.501C543.08 328.979 479.32 340.51 380.075 328.407C292.65 317.746 214.905 312.978 219.768 304.455C224.632 295.932 303.076 297.03 397.692 297.55C537.33 298.323 580.723 310.117 558 321.501ZM530.91 254.947C586.805 255.289 630.66 265.076 637.921 276.424C649.179 294.017 592.877 302.251 529.336 296.582C464.839 290.826 425.896 286.553 421.599 275.101C416.09 260.428 471.168 254.581 530.91 254.947ZM233.194 257.66C330.525 255.37 393.696 266.335 409.901 279.15C432.765 297.227 384.964 291.573 293.49 291.427C272.698 291.391 180.119 284.953 139.861 277.498C21.2442 255.536 158.99 259.403 233.194 257.66ZM199.505 301.258C184.384 310.078 132.847 326.03 82.4581 318.415C25.193 309.76 -43.2504 309.556 -33.8611 299.831C-24.7092 290.351 21.1197 287.322 83.1859 282.674C134.724 278.815 213.45 293.124 199.505 301.258ZM-19.3398 251.995C60.4349 256.195 58.9831 256.186 73.2453 268.85C82.9437 277.456 33.6641 287.367 -20.0031 284.567C-70.6098 281.926 -100.344 276.066 -112.588 267.713C-131.206 255.023 -69.9316 249.332 -19.3398 251.995ZM-9.82796 319.672C90.9395 326.885 104.09 324.973 103.762 338.922C103.467 351.298 74.1874 362.341 -10.5836 356.778C-72.1244 352.738 -85.2266 350.138 -124.174 337.528C-148.163 329.764 -71.0859 315.29 -9.82796 319.672Z" fill="url(#paint1_linear_503_955)"/>
<path d="M621.286 447.36C618.901 463.919 584.844 465.016 545.488 466.763C448.116 471.077 470.189 456.686 470.43 444.826C470.448 443.95 470.713 443.071 471.152 442.198L440.509 440.324C446.241 443.356 450.398 446.707 452.897 450.198C464.192 465.938 410.427 477.213 363.865 472.743C308.797 467.458 291.484 461.991 275.774 449.115C266.177 441.25 285.971 433.969 314.426 429.909L237.983 420.384C252.111 424.65 261.649 429.737 261.533 435.425C261.18 452.732 280.387 472.146 196.889 472.554C154.98 472.76 143.49 456.557 132.262 437.525C125.553 426.149 114.216 415.974 117.828 410.485L76.2217 408.64C108.644 420.098 129.025 436.732 109.938 444.254C84.3664 454.326 7.53257 442.607 -52.4563 435.799C-88.8466 431.671 -107.539 421.929 -109.937 412.782L-155.503 414.325L-159 586.018L655.488 591L659.058 415.718L658.389 448.576L621.286 447.36ZM289.852 470.84C340.361 471.149 397.579 482.119 380.86 493.847C360.237 508.306 333.914 517.498 288.938 515.735C223.533 513.17 207.809 506.718 197.93 492.728C189.25 480.442 239.343 470.531 289.852 470.84ZM69.4778 453.88C142.26 462.078 159.573 468.947 175.77 478.555C198.223 491.875 171.788 500.868 48.3369 491.657C-15.1064 486.923 -50.9516 477.415 -57.9556 466.983C-66.7914 453.81 8.4159 447.001 69.4778 453.88ZM-54.4309 508.52C-39.5117 501.042 24.2483 489.511 123.493 501.615C210.919 512.276 288.664 517.044 283.801 525.566C278.937 534.089 200.493 532.991 105.876 532.472C-33.7617 531.698 -77.1543 519.904 -54.4309 508.52ZM-27.3414 575.075C-83.2367 574.733 -127.091 564.945 -134.352 553.598C-145.61 536.005 -89.308 527.77 -25.7676 533.439C38.7295 539.195 77.6724 543.468 81.9694 554.921C87.4786 569.594 32.4012 575.44 -27.3414 575.075ZM270.375 572.362C173.044 574.651 109.873 563.687 93.6679 550.872C70.8039 532.795 118.605 538.448 210.078 538.594C230.87 538.63 323.45 545.068 363.707 552.524C482.324 574.485 344.579 570.618 270.375 572.362ZM304.064 528.763C319.184 519.943 370.721 503.992 421.111 511.606C478.376 520.262 546.819 520.465 537.43 530.191C528.278 539.67 482.449 542.699 420.383 547.348C368.845 551.207 290.118 536.897 304.064 528.763ZM522.894 578.026C443.119 573.826 444.571 573.835 430.309 561.172C420.61 552.565 469.89 542.654 523.557 545.454C574.164 548.095 603.898 553.955 616.142 562.309C634.76 574.999 573.486 580.689 522.894 578.026ZM513.382 510.349C412.615 503.136 399.464 505.049 399.792 491.099C400.087 478.723 429.367 467.68 514.138 473.243C575.679 477.283 588.781 479.883 627.728 492.493C651.717 500.258 574.64 514.732 513.382 510.349Z" fill="url(#paint2_linear_503_955)"/>
<path d="M40.1406 399.303C52.8456 401.443 65.2368 404.737 76.2365 408.624L117.842 410.469C119.67 407.702 125.307 406.125 137.27 406.198C161.225 406.345 209.164 411.656 237.997 420.368L314.44 429.893C329.804 427.704 347.674 426.449 364.82 426.554C400.114 426.77 425.655 432.454 440.524 440.313L471.166 442.187C472.694 439.172 476.603 436.204 482.16 433.541C475.89 432.697 469.636 431.756 463.443 430.713C450.738 428.573 438.347 425.279 427.347 421.392L385.741 419.548C383.913 422.314 378.277 423.891 366.314 423.818C342.358 423.671 294.42 418.361 265.586 409.648L189.143 400.123C173.78 402.312 155.909 403.567 138.763 403.462C103.469 403.247 77.9282 397.562 63.06 389.703L32.4173 387.829C30.8893 390.844 26.9811 393.813 21.4237 396.475C27.6937 397.32 33.9472 398.26 40.1406 399.303Z" fill="url(#paint3_linear_503_955)"/>
</g>
<defs>
<linearGradient id="paint0_linear_503_955" x1="-22" y1="-1.58844e-06" x2="440.323" y2="702.114" gradientUnits="userSpaceOnUse">
<stop offset="0.601696" stop-color="#65B1FF"/>
<stop offset="1" stop-color="#80DBFB"/>
</linearGradient>
<linearGradient id="paint1_linear_503_955" x1="186.6" y1="196.874" x2="186.041" y2="237" gradientUnits="userSpaceOnUse">
<stop stop-color="#66B1FF"/>
<stop offset="1" stop-color="#7AD0FC"/>
</linearGradient>
<linearGradient id="paint2_linear_503_955" x1="183.166" y1="365.103" x2="182.608" y2="405.224" gradientUnits="userSpaceOnUse">
<stop stop-color="#66B1FF"/>
<stop offset="1" stop-color="#7AD0FC"/>
</linearGradient>
<linearGradient id="paint3_linear_503_955" x1="213.137" y1="376.164" x2="213.02" y2="387.758" gradientUnits="userSpaceOnUse">
<stop stop-color="#66B1FF"/>
<stop offset="1" stop-color="#7AD0FC"/>
</linearGradient>
</defs>
</svg>
