<svg width="30" height="36" viewBox="0 0 30 36" fill="none" xmlns="http://www.w3.org/2000/svg">
<mask id="path-1-inside-1_562_1287" fill="white">
<path fill-rule="evenodd" clip-rule="evenodd" d="M27.4174 23.4174C29.0475 21.0174 30 18.1199 30 15C30 6.71573 23.2843 0 15 0C6.71573 0 0 6.71573 0 15C0 18.1199 0.952513 21.0174 2.5826 23.4174L2.5 23.5L2.99559 23.9956C3.85094 25.1352 4.86479 26.1491 6.00441 27.0044L15 36L23.9956 27.0044C25.1352 26.1491 26.1491 25.1352 27.0044 23.9956L27.5 23.5L27.4174 23.4174Z"/>
</mask>
<path fill-rule="evenodd" clip-rule="evenodd" d="M27.4174 23.4174C29.0475 21.0174 30 18.1199 30 15C30 6.71573 23.2843 0 15 0C6.71573 0 0 6.71573 0 15C0 18.1199 0.952513 21.0174 2.5826 23.4174L2.5 23.5L2.99559 23.9956C3.85094 25.1352 4.86479 26.1491 6.00441 27.0044L15 36L23.9956 27.0044C25.1352 26.1491 26.1491 25.1352 27.0044 23.9956L27.5 23.5L27.4174 23.4174Z" fill="#FF7449"/>
<path d="M27.4174 23.4174L24.1085 21.17L22.2498 23.9066L24.589 26.2458L27.4174 23.4174ZM2.5826 23.4174L5.41103 26.2458L7.75024 23.9066L5.89155 21.17L2.5826 23.4174ZM2.5 23.5L-0.328431 20.6716L-3.15685 23.5L-0.328428 26.3284L2.5 23.5ZM2.99559 23.9956L6.19473 21.5945L6.02452 21.3677L5.82402 21.1672L2.99559 23.9956ZM6.00441 27.0044L8.83284 24.176L8.63233 23.9755L8.40555 23.8053L6.00441 27.0044ZM15 36L12.1716 38.8284L15 41.6569L17.8284 38.8284L15 36ZM23.9956 27.0044L21.5945 23.8053L21.3677 23.9755L21.1672 24.176L23.9956 27.0044ZM27.0044 23.9956L24.176 21.1672L23.9755 21.3677L23.8053 21.5945L27.0044 23.9956ZM27.5 23.5L30.3284 26.3284L33.1569 23.5L30.3284 20.6716L27.5 23.5ZM26 15C26 17.2935 25.3025 19.412 24.1085 21.17L30.7263 25.6648C32.7925 22.6228 34 18.9463 34 15H26ZM15 4C21.0751 4 26 8.92487 26 15H34C34 4.50659 25.4934 -4 15 -4V4ZM4 15C4 8.92487 8.92487 4 15 4V-4C4.50659 -4 -4 4.50659 -4 15H4ZM5.89155 21.17C4.69752 19.412 4 17.2935 4 15H-4C-4 18.9464 -2.79249 22.6228 -0.726348 25.6648L5.89155 21.17ZM5.32843 26.3284L5.41103 26.2458L-0.245832 20.589L-0.328431 20.6716L5.32843 26.3284ZM5.82402 21.1672L5.32843 20.6716L-0.328428 26.3284L0.167162 26.824L5.82402 21.1672ZM8.40555 23.8053C7.56831 23.1769 6.82314 22.4317 6.19473 21.5945L-0.203554 26.3967C0.878747 27.8387 2.16127 29.1213 3.60327 30.2036L8.40555 23.8053ZM17.8284 33.1716L8.83284 24.176L3.17598 29.8328L12.1716 38.8284L17.8284 33.1716ZM21.1672 24.176L12.1716 33.1716L17.8284 38.8284L26.824 29.8328L21.1672 24.176ZM23.8053 21.5945C23.1769 22.4317 22.4317 23.1769 21.5945 23.8053L26.3967 30.2036C27.8387 29.1213 29.1213 27.8387 30.2036 26.3967L23.8053 21.5945ZM24.6716 20.6716L24.176 21.1672L29.8328 26.824L30.3284 26.3284L24.6716 20.6716ZM24.589 26.2458L24.6716 26.3284L30.3284 20.6716L30.2458 20.589L24.589 26.2458Z" fill="white" mask="url(#path-1-inside-1_562_1287)"/>
</svg>
