<svg width="169" height="170" viewBox="0 0 169 170" fill="none" xmlns="http://www.w3.org/2000/svg">
<mask id="mask0_1_498" style="mask-type:alpha" maskUnits="userSpaceOnUse" x="0" y="0" width="169" height="170">
<rect width="169" height="170" rx="10" fill="white"/>
</mask>
<g mask="url(#mask0_1_498)">
<g clip-path="url(#clip0_1_498)">
<rect width="375" height="812" transform="translate(-206 -280)" fill="white"/>
<g filter="url(#filter0_d_1_498)">
<rect x="-206" y="-280" width="375" height="752" rx="27" fill="url(#paint0_linear_1_498)"/>
</g>
<mask id="mask1_1_498" style="mask-type:alpha" maskUnits="userSpaceOnUse" x="-206" y="-277" width="375" height="749">
<rect x="-206" y="-277" width="375" height="749" rx="28" fill="url(#paint1_linear_1_498)"/>
</mask>
<g mask="url(#mask1_1_498)">
<path d="M-247.919 86.2588C-150.547 81.9443 -172.62 96.3355 -172.862 108.196C-172.879 109.071 -173.144 109.951 -173.583 110.824L-142.94 112.698C-148.672 109.665 -152.829 106.314 -155.328 102.823C-166.624 87.0838 -112.859 75.8088 -66.2967 80.2785C-11.2281 85.5631 6.08467 91.0303 21.7945 103.907C31.3918 111.771 11.5979 119.053 -16.8569 123.112L59.5859 132.637C45.4577 128.371 35.92 123.284 36.0358 117.596C36.3882 100.289 17.1815 80.875 100.68 80.4671C142.589 80.2615 154.079 96.4643 165.307 115.497C172.016 126.873 183.352 137.047 179.741 142.537L221.347 144.382C188.925 132.923 168.543 116.29 187.631 108.768C213.202 98.6954 290.036 110.415 350.025 117.223C386.415 121.351 405.108 131.092 407.491 140.239L453.058 138.697L456.554 -33.0183L-357.919 -38L-360.819 104.424L-323.716 105.64C-321.332 89.0814 -287.275 87.9843 -247.919 86.2373L-247.919 86.2588ZM7.71686 82.1817C-42.7921 81.8727 -100.01 70.902 -83.291 59.1749C-62.6685 44.7156 -36.3452 35.5238 8.63109 37.2869C74.0353 39.852 89.7598 46.3034 99.6389 60.2938C108.319 72.5792 58.2258 82.4906 7.71686 82.1817ZM228.091 99.141C155.309 90.9439 137.996 84.0744 121.798 74.4667C99.3457 61.1461 125.781 52.1537 249.232 61.3645C312.675 66.0986 348.52 75.6063 355.524 86.0389C364.36 99.2117 289.153 106.02 228.091 99.141ZM352 44.5014C337.08 51.9795 273.32 63.5103 174.075 51.4069C86.6495 40.7457 8.90458 35.9778 13.7681 27.4551C18.6316 18.9324 97.0757 20.03 191.692 20.5497C331.33 21.3232 374.723 33.1172 352 44.5014ZM324.91 -22.0531C380.805 -21.7113 424.66 -11.9236 431.921 -0.576192C443.179 17.0166 386.877 25.2515 323.336 19.5821C258.839 13.8262 219.896 9.55349 215.599 -1.89933C210.09 -16.5721 265.168 -22.4186 324.91 -22.0531ZM27.1938 -19.34C124.525 -21.6295 187.696 -10.6654 203.901 2.14954C226.765 20.227 178.964 14.5732 87.4904 14.4273C66.6984 14.3915 -25.8811 7.95348 -66.1386 0.497839C-184.756 -21.4637 -47.0102 -17.5967 27.1938 -19.34ZM-6.49486 24.2583C-21.6156 33.0782 -73.1527 49.0298 -123.542 41.4155C-180.807 32.7599 -249.25 32.5561 -239.861 22.8309C-230.709 13.3513 -184.88 10.3224 -122.814 5.67375C-71.2764 1.81484 7.45031 16.1242 -6.49486 24.2583ZM-225.34 -25.0051C-145.565 -20.805 -147.017 -20.8139 -132.755 -8.15046C-123.056 0.455931 -172.336 10.3669 -226.003 7.56751C-276.61 4.92646 -306.344 -0.933756 -318.588 -9.28711C-337.206 -21.9772 -275.932 -27.6675 -225.34 -25.0051ZM-215.828 42.6722C-115.06 49.8855 -101.91 47.9729 -102.238 61.9223C-102.533 74.2979 -131.813 85.3412 -216.584 79.7783C-278.124 75.7381 -291.227 73.1384 -330.174 60.5281C-354.163 52.7637 -277.086 38.2899 -215.828 42.6722Z" fill="url(#paint2_linear_1_498)"/>
<path d="M415.286 170.36C412.901 186.919 378.844 188.016 339.488 189.763C242.116 194.077 264.189 179.686 264.43 167.826C264.448 166.95 264.713 166.071 265.152 165.198L234.509 163.324C240.241 166.356 244.398 169.707 246.897 173.198C258.192 188.938 204.427 200.213 157.865 195.743C102.797 190.458 85.484 184.991 69.7742 172.115C60.1769 164.25 79.9708 156.969 108.426 152.909L31.9828 143.384C46.111 147.65 55.6487 152.737 55.5329 158.425C55.1805 175.732 74.3872 195.146 -9.11142 195.554C-51.0205 195.76 -62.5099 179.557 -73.7383 160.525C-80.4473 149.149 -91.7835 138.974 -88.1724 133.485L-129.778 131.64C-97.3561 143.098 -76.9747 159.732 -96.062 167.254C-121.634 177.326 -198.467 165.607 -258.456 158.799C-294.847 154.671 -313.539 144.929 -315.937 135.782L-361.503 137.325L-365 309.018L449.488 314L453.058 138.718L452.389 171.576L415.286 170.36ZM83.8518 193.84C134.361 194.149 191.579 205.119 174.86 216.847C154.237 231.306 127.914 240.498 82.9376 238.735C17.5334 236.17 1.80892 229.718 -8.07022 215.728C-16.7499 203.442 33.3429 193.531 83.8518 193.84ZM-136.522 176.88C-63.7403 185.078 -46.4271 191.947 -30.2296 201.555C-7.77697 214.875 -34.2124 223.868 -157.663 214.657C-221.106 209.923 -256.952 200.415 -263.956 189.983C-272.791 176.81 -197.584 170.001 -136.522 176.88ZM-260.431 231.52C-245.512 224.042 -181.752 212.511 -82.5068 224.615C4.91917 235.276 82.6641 240.044 77.8006 248.566C72.9371 257.089 -5.50697 255.991 -100.124 255.472C-239.762 254.698 -283.154 242.904 -260.431 231.52ZM-233.341 298.075C-289.237 297.733 -333.091 287.945 -340.352 276.598C-351.61 259.005 -295.308 250.77 -231.768 256.439C-167.271 262.195 -128.328 266.468 -124.031 277.921C-118.521 292.594 -173.599 298.44 -233.341 298.075ZM64.3749 295.362C-32.956 297.651 -96.1273 286.687 -112.332 273.872C-135.196 255.795 -87.395 261.448 4.07834 261.594C24.8703 261.63 117.45 268.068 157.707 275.524C276.324 297.485 138.579 293.618 64.3749 295.362ZM98.0636 251.763C113.184 242.943 164.721 226.992 215.111 234.606C272.376 243.262 340.819 243.465 331.43 253.191C322.278 262.67 276.449 265.699 214.383 270.348C162.845 274.207 84.1184 259.897 98.0636 251.763ZM316.894 301.026C237.119 296.826 238.571 296.835 224.309 284.172C214.61 275.565 263.89 265.654 317.557 268.454C368.164 271.095 397.898 276.955 410.142 285.309C428.76 297.999 367.486 303.689 316.894 301.026ZM307.382 233.349C206.615 226.136 193.464 228.049 193.792 214.099C194.087 201.723 223.367 190.68 308.138 196.243C369.679 200.283 382.781 202.883 421.728 215.493C445.717 223.258 368.64 237.732 307.382 233.349Z" fill="url(#paint3_linear_1_498)"/>
<path d="M-165.859 122.303C-153.154 124.443 -140.763 127.737 -129.764 131.624L-88.1576 133.469C-86.3298 130.702 -80.693 129.125 -68.7299 129.198C-44.7748 129.345 3.16384 134.656 31.9975 143.368L108.44 152.893C123.804 150.704 141.674 149.449 158.82 149.554C194.114 149.77 219.655 155.454 234.524 163.313L265.166 165.187C266.694 162.172 270.603 159.204 276.16 156.541C269.89 155.697 263.636 154.756 257.443 153.713C244.738 151.573 232.347 148.279 221.347 144.392L179.741 142.548C177.913 145.314 172.277 146.891 160.314 146.818C136.358 146.671 88.4197 141.361 59.5861 132.648L-16.8568 123.123C-32.22 125.312 -50.0907 126.567 -67.2368 126.462C-102.531 126.247 -128.072 120.562 -142.94 112.703L-173.583 110.829C-175.111 113.844 -179.019 116.813 -184.576 119.475C-178.306 120.32 -172.053 121.26 -165.859 122.303Z" fill="url(#paint4_linear_1_498)"/>
</g>
<path d="M74.8838 52.3591H72.8288C72.5713 52.3591 72.3463 52.6266 72.2738 53.0165L71.7738 55.7399C71.6663 56.3261 71.9438 56.9095 72.3288 56.9095H75.4238C75.8138 56.9095 76.0912 56.3119 75.9737 55.7228L75.4363 52.9994C75.3613 52.6181 75.1388 52.3591 74.8863 52.3591H74.8838Z" fill="#F2B656"/>
<path d="M74.5259 47.2369H73.1959C73.0309 47.2369 72.8834 47.5044 72.8384 47.8942L72.5134 50.6176C72.4434 51.2039 72.6234 51.7872 72.8709 51.7872H74.8734C75.1259 51.7872 75.3059 51.1896 75.2309 50.6006L74.8834 47.8772C74.8334 47.4958 74.6909 47.2369 74.5259 47.2369Z" fill="#F4BE5C"/>
<path d="M74.353 42.1145H73.628C73.538 42.1145 73.458 42.382 73.433 42.7718L73.2555 45.4952C73.218 46.0815 73.3155 46.6648 73.4505 46.6648H74.543C74.6805 46.6648 74.778 46.0672 74.738 45.4782L74.548 42.7548C74.5205 42.3734 74.443 42.1145 74.353 42.1145Z" fill="#F4C87D"/>
<path d="M76.1519 65.871H72.0419C71.5294 65.871 71.0769 66.3661 70.9344 67.0833L69.9319 72.1032C69.7169 73.1818 70.2719 74.2575 71.0394 74.2575H77.2269C78.0069 74.2575 78.5619 73.1561 78.3294 72.0691L77.2544 67.0491C77.1044 66.3462 76.6569 65.8681 76.1519 65.8681V65.871Z" fill="#F7BB5B"/>
<path d="M75.4245 57.4815H72.522C72.1595 57.4815 71.842 57.934 71.7395 58.5885L71.032 63.1731C70.8795 64.1577 71.272 65.1423 71.8145 65.1423H76.1845C76.7345 65.1423 77.127 64.1349 76.962 63.1446L76.202 58.5601C76.0945 57.9169 75.7795 57.4815 75.4245 57.4815Z" fill="#F7BB5B"/>
<path d="M76.8489 74.9888H71.0465C70.3215 74.9888 69.684 75.4839 69.4815 76.2011L68.0665 81.221C67.7615 82.2995 68.544 83.3753 69.6315 83.3753H78.3689C79.4689 83.3753 80.2539 82.2739 79.9239 81.1869L78.4039 76.1669C78.1914 75.464 77.5614 74.9859 76.8489 74.9859V74.9888Z" fill="#F7BB5B"/>
<path d="M74.0548 35H74.0573C74.778 35 75.3623 35.6651 75.3623 36.4855V40.0598C75.3623 40.8802 74.778 41.5453 74.0573 41.5453H74.0548C73.3341 41.5453 72.7498 40.8802 72.7498 40.0598V36.4855C72.7498 35.6651 73.3341 35 74.0548 35Z" fill="#F5B959"/>
<path d="M64.1633 58.6176H62.622C62.4289 58.6176 62.2602 58.7966 62.2058 59.0575L61.8308 60.8801C61.7502 61.2725 61.9583 61.6629 62.247 61.6629H64.5683C64.8608 61.6629 65.0689 61.263 64.9808 60.8687L64.5776 59.0461C64.5214 58.7909 64.3545 58.6176 64.1651 58.6176H64.1633Z" fill="#F2B656"/>
<path d="M63.8948 55.1896H62.8973C62.7735 55.1896 62.6629 55.3686 62.6292 55.6295L62.3854 57.4522C62.3329 57.8445 62.4679 58.2349 62.6535 58.2349H64.1554C64.3448 58.2349 64.4798 57.835 64.4235 57.4407L64.1629 55.6181C64.1254 55.3629 64.0185 55.1896 63.8948 55.1896Z" fill="#F4BE5C"/>
<path d="M63.7655 51.7614H63.2218C63.1543 51.7614 63.0943 51.9404 63.0755 52.2013L62.9424 54.0239C62.9143 54.4163 62.9874 54.8067 63.0887 54.8067H63.908C64.0112 54.8067 64.0843 54.4068 64.0543 54.0125L63.9118 52.1899C63.8912 51.9347 63.833 51.7614 63.7655 51.7614Z" fill="#F4C87D"/>
<path d="M65.1135 67.6605H62.031C61.6466 67.6605 61.3073 67.9919 61.2004 68.4718L60.4485 71.8314C60.2873 72.5532 60.7035 73.2731 61.2791 73.2731H65.9197C66.5047 73.2731 66.921 72.5361 66.7466 71.8086L65.9404 68.449C65.8279 67.9785 65.4922 67.6586 65.1135 67.6586V67.6605Z" fill="#F7BB5B"/>
<path d="M64.568 62.0459H62.3912C62.1193 62.0459 61.8812 62.3487 61.8043 62.7868L61.2737 65.855C61.1593 66.5139 61.4537 67.1729 61.8606 67.1729H65.138C65.5505 67.1729 65.8449 66.4987 65.7212 65.8359L65.1512 62.7677C65.0705 62.3373 64.8343 62.0459 64.568 62.0459Z" fill="#F7BB5B"/>
<path d="M65.6369 73.7626H61.2851C60.7413 73.7626 60.2632 74.094 60.1113 74.5739L59.0501 77.9335C58.8214 78.6554 59.4082 79.3753 60.2238 79.3753H66.7769C67.6019 79.3753 68.1907 78.6382 67.9432 77.9107L66.8032 74.5511C66.6438 74.0807 66.1713 73.7607 65.6369 73.7607V73.7626Z" fill="#F7BB5B"/>
<path d="M63.5405 47H63.5423C64.0829 47 64.5211 47.4451 64.5211 47.9942V50.3863C64.5211 50.9353 64.0829 51.3804 63.5423 51.3804H63.5405C62.9999 51.3804 62.5617 50.9353 62.5617 50.3863V47.9942C62.5617 47.4451 62.9999 47 63.5405 47Z" fill="#F5B959"/>
<path d="M63.1145 48.3926C63.1145 48.3926 56.5401 44.0746 53 50.6455C53 50.6455 61.0916 47.6416 63.1145 48.3926Z" fill="#707F3C"/>
<path d="M62.9133 48.3624C62.9133 48.3624 54.5082 46.4831 54.9962 53.5515C54.9962 53.5515 60.6527 48.3098 62.9133 48.3624Z" fill="#707F3C"/>
<path d="M64.127 48.3926C64.127 48.3926 70.7014 44.0746 74.2414 50.6455C74.2414 50.6455 66.1499 47.6416 64.127 48.3926Z" fill="#707F3C"/>
<path d="M64.3298 48.3624C64.3298 48.3624 72.7324 46.4831 72.2444 53.5515C72.2444 53.5515 66.5879 48.3098 64.3273 48.3624H64.3298Z" fill="#707F3C"/>
<path d="M21.7582 87.304C80.5 107 97.3208 87.2512 97.3249 87.2474C98.9989 86.1654 100 84.793 100 83.2925C100 79.8164 94.6083 77 87.9538 77H31.0462C24.3917 77 19 79.8164 19 83.2925C19 84.8157 20.0343 86.2106 21.7582 87.3002V87.304Z" fill="#5AA4D5"/>
<path d="M20.4857 78.936C59.172 56.5557 88.5854 78.9773 88.5891 78.9803C90.0978 79.8271 91 80.9011 91 82.0754C91 84.7959 86.1408 87 80.1436 87H28.8564C22.8592 87 18 84.7959 18 82.0754C18 80.8834 18.9322 79.7917 20.4857 78.939V78.936Z" fill="#FFE1AB"/>
<path d="M73.2855 36.2099C73.2855 36.2099 64 29.3578 59.0001 39.7849C59.0001 39.7849 70.4284 35.0182 73.2855 36.2099Z" fill="#707F3C"/>
<path d="M73.0009 36.162C73.0009 36.162 61.1298 33.1799 61.819 44.3964C61.819 44.3964 69.8081 36.0786 73.0009 36.162Z" fill="#707F3C"/>
<path d="M74.7146 36.2099C74.7146 36.2099 84.0001 29.3578 89 39.7849C89 39.7849 77.5717 35.0182 74.7146 36.2099Z" fill="#707F3C"/>
<path d="M75.0008 36.162C75.0008 36.162 86.8684 33.1799 86.1791 44.3964C86.1791 44.3964 78.19 36.0786 74.9972 36.162H75.0008Z" fill="#707F3C"/>
<path d="M104.817 30.3077C104.817 32.3469 102.395 34 99.4085 34C96.4214 34 94 32.3469 94 30.3077C94 28.2685 96.4214 26.6154 99.4085 26.6154C102.395 26.6154 104.817 28.2685 104.817 30.3077Z" fill="#C4EBFF"/>
<path d="M118 30.3077C118 32.3469 115.579 34 112.592 34C109.605 34 107.183 32.3469 107.183 30.3077C107.183 28.2685 109.605 26.6154 112.592 26.6154C115.579 26.6154 118 28.2685 118 30.3077Z" fill="#C4EBFF"/>
<path d="M112.592 29.5C112.592 31.9853 109.64 34 106 34C102.36 34 99.4085 31.9853 99.4085 29.5C99.4085 27.0147 102.36 25 106 25C109.64 25 112.592 27.0147 112.592 29.5Z" fill="#C4EBFF"/>
<path d="M31.5634 44.1282C31.5634 45.7143 29.6464 47 27.2817 47C24.917 47 23 45.7143 23 44.1282C23 42.5422 24.917 41.2564 27.2817 41.2564C29.6464 41.2564 31.5634 42.5422 31.5634 44.1282Z" fill="#C4EBFF"/>
<path d="M42 44.1282C42 45.7143 40.083 47 37.7183 47C35.3536 47 33.4366 45.7143 33.4366 44.1282C33.4366 42.5422 35.3536 41.2564 37.7183 41.2564C40.083 41.2564 42 42.5422 42 44.1282Z" fill="#C4EBFF"/>
<path d="M37.7183 43.5C37.7183 45.433 35.382 47 32.5 47C29.618 47 27.2817 45.433 27.2817 43.5C27.2817 41.567 29.618 40 32.5 40C35.382 40 37.7183 41.567 37.7183 43.5Z" fill="#C4EBFF"/>
<path d="M87.4727 150.323C86.445 148.158 85.6914 144.465 85.6914 144.465C89.9393 139.66 99.3355 118.431 101.924 112.475C101.694 112.479 101.665 112.226 102.399 111.232H102.394C102.433 111.181 102.477 111.134 102.526 111.092C102.575 110.978 102.6 110.919 102.6 110.919C102.658 110.754 102.712 110.576 102.771 110.398C102.678 110.415 101.415 110.601 102.776 109.451H102.771C102.869 109.371 102.986 109.32 103.114 109.286C105.766 100.205 109.001 79.7959 109.069 79.3645V79.3518C109.069 79.3518 109.069 79.356 109.069 79.3645V79.3475C109.069 79.3475 108.835 78.1674 110.567 78.1886H110.577C112.397 77.8714 118.906 80.24 118.906 80.24C128.733 85.9672 127.397 86.6693 126.736 86.7454C125.831 88.9449 121.647 99.1472 121.245 100.869C121.245 100.869 118.201 108.91 116.606 111.896C116.777 112.374 116.66 113.105 116.024 113.19C116.2 113.537 116.865 115.013 115.392 114.544C113.684 118.651 109.867 128.18 108.233 135.193C108.233 135.193 106.554 143.475 105.282 148.695C106.314 148.369 107.347 148.052 108.394 147.781C111.012 147.104 113.709 146.72 116.43 146.508L130.754 82.0842C133.03 71.8566 118.754 69.251 118.754 69.251L123.066 49.8702L123.815 50.0055C125.523 50.3185 127.299 49.4641 127.803 47.9541C128.381 46.2199 127.182 44.456 125.273 44.1092L123.364 43.7624L118.148 57.378L112.642 56.3756L112.564 56.3629L107.058 55.3604L108.071 40.9792L105.791 40.5646C104.083 40.2516 102.306 41.106 101.802 42.6161C101.225 44.3503 102.424 46.1141 104.332 46.461L105.223 46.6217L100.911 66.0026C100.911 66.0026 86.6408 63.4013 84.3651 73.6289L68.0832 146.868C68.044 147.037 68.0245 147.206 68 147.375C68.7879 147.329 69.5807 147.303 70.3735 147.316C76.163 147.417 81.8154 149.283 87.4727 150.319V150.323Z" fill="#DEF2FF"/>
<path d="M93.1888 150.196C93.1888 150.196 91.7598 149.697 90.9279 149.05C90.5706 149.579 90.3504 149.905 90.3504 149.905C90.2721 150.235 90.1742 150.501 90.0616 150.725C91.8381 150.954 93.6195 151.059 95.4058 150.966C94.6227 150.721 93.8642 150.459 93.1742 150.184C93.179 150.184 93.1839 150.192 93.1888 150.196Z" fill="#D2E7F4"/>
<path d="M123.369 43.7581L108.076 40.9707L123.369 43.7581Z" fill="#B6A775"/>
<path d="M112.569 56.3544L112.642 56.3713L118.153 57.3738L123.369 43.7581L108.076 40.9707L107.058 55.352L112.569 56.3544Z" fill="#D7C380"/>
<path d="M123.369 43.7581L125.895 37.1597L117.267 35.5862L117.188 35.5735L108.56 34L108.071 40.9707H108.076L123.369 43.7581Z" fill="#EAD58E"/>
<path d="M106.779 109.129L106.887 108.871L109.069 79.3602C109.001 79.7917 105.766 100.2 103.114 109.282C103.231 109.252 103.353 109.235 103.476 109.223C104.068 109.172 105.277 109.049 106.779 109.129Z" fill="#DAE5EC"/>
<path d="M90.9279 149.054C90.7664 148.928 90.6245 148.796 90.5217 148.661L92.3129 144.313L92.4156 144.068C92.4156 144.068 92.4156 144.076 92.4156 144.08L105.923 111.227C104.773 111.333 103.657 111.608 102.703 112.141C102.703 112.141 102.189 112.475 101.929 112.479C99.3405 118.431 89.9442 139.664 85.6964 144.469C85.6964 144.469 86.45 148.162 87.4777 150.328C88.339 150.484 89.2004 150.624 90.0666 150.734C90.1791 150.51 90.2819 150.239 90.3553 149.913C90.3553 149.913 90.5755 149.587 90.9328 149.059L90.9279 149.054Z" fill="#DAE5EC"/>
<path d="M104.866 110.208C104.156 110.178 103.456 110.229 102.781 110.394C102.781 110.394 102.776 110.394 102.771 110.394C102.712 110.572 102.653 110.749 102.6 110.914C102.6 110.914 102.575 110.974 102.526 111.088C102.658 110.974 102.83 110.893 103.001 110.83C103.378 110.69 104.024 110.445 104.87 110.204L104.866 110.208Z" fill="#C9D3D9"/>
<path d="M118.123 81.7035C119.224 82.2069 120.203 82.7356 121.011 83.2178L126.913 86.314C126.913 86.314 126.849 86.4705 126.736 86.7412C127.397 86.6608 128.733 85.9629 118.906 80.2358C118.906 80.2358 112.397 77.8629 110.577 78.1843L117.957 81.6147L118.123 81.7035Z" fill="#DAE5EC"/>
<path d="M118.123 81.7035L121.01 83.2178C120.203 82.7356 119.224 82.2069 118.123 81.7035Z" fill="#C9D3D9"/>
<path d="M105.277 148.691C106.554 143.471 108.228 135.189 108.228 135.189C109.862 128.18 113.675 118.651 115.388 114.539C115.025 114.425 114.536 114.197 113.88 113.803C113.782 113.744 113.67 113.685 113.577 113.617C113.205 113.33 112.006 112.526 110.415 111.769C110.107 116.075 107.685 119.446 107.685 119.446C104.362 123.934 108.384 115.939 108.384 115.939C109.417 113.596 109.393 111.752 109.412 111.359C109.412 111.35 109.412 111.337 109.417 111.329C109.211 111.304 109.001 111.278 108.786 111.257L108.194 112.488C108.194 112.488 99.5265 134.026 98.4156 136.839C97.6864 138.691 96.4189 141.5 96.4189 141.5C95.2639 142.828 93.2378 145.704 91.8431 147.722C91.9263 148.741 92.2982 149.642 93.1742 150.192C93.8642 150.467 94.6228 150.729 95.4058 150.975C96.0322 150.941 96.6587 150.886 97.2851 150.801C100.045 150.429 102.649 149.528 105.277 148.695V148.691Z" fill="#DAE5EC"/>
<path d="M116.229 87.8029C114.467 89.4779 110.856 106.947 110.856 106.947L109.622 109.519C109.622 109.519 109.647 109.523 109.662 109.527C111.624 109.544 113.807 109.963 115.945 111.198C116.151 111.316 116.332 111.473 116.474 111.646C116.528 111.714 116.577 111.798 116.611 111.896C118.201 108.909 121.25 100.869 121.25 100.869C121.652 99.1514 125.836 88.9449 126.741 86.7454C126.619 86.7581 126.521 86.7539 126.521 86.7539C124.226 86.8173 123.139 85.5949 123.139 85.5949C122.072 84.7616 117.658 83.9072 117.658 83.9072C115.564 83.37 112.843 80.9802 112.843 80.9802C110.4 79.9016 112.177 80.8533 112.177 80.8533L111.976 81.7035L111.11 80.9971L110.831 79.6944H110.821C110.821 79.6944 110.826 79.6944 110.831 79.6944C109.887 78.73 109.96 78.3028 110.586 78.1928H110.577C108.844 78.1674 109.079 79.3475 109.079 79.3475V79.3644L115.598 84.6559C118.319 86.6947 116.229 87.8071 116.229 87.8071V87.8029Z" fill="#DAE5EC"/>
<path d="M108.585 111.414H108.58C108.58 111.414 108.565 111.431 108.556 111.447C108.414 111.583 107.685 112.171 107.117 113.275C107.117 113.275 105.326 117.175 105.981 114.645C105.981 114.645 106.51 112.721 108.135 111.202C107.406 111.156 106.657 111.156 105.923 111.227L92.4156 144.08C92.3912 144.161 92.3667 144.241 92.3422 144.321H92.3373C92.0094 145.404 91.7647 146.631 91.8528 147.718C93.2427 145.7 95.2737 142.824 96.4286 141.496C96.4286 141.496 97.6961 138.687 98.4253 136.835C99.5362 134.026 108.203 112.484 108.203 112.484L108.795 111.253C108.761 111.253 108.732 111.244 108.698 111.244C108.654 111.321 108.614 111.384 108.595 111.414H108.585Z" fill="#DAE5EC"/>
<path d="M106.779 109.129C107.645 109.176 108.614 109.286 109.618 109.514L110.851 106.943C110.851 106.943 114.463 89.4736 116.224 87.7986C116.224 87.7986 118.309 86.6862 115.593 84.6475L109.07 79.356L106.887 108.867L106.779 109.125V109.129Z" fill="#DAE5EC"/>
<path d="M121.01 83.2178C122.581 84.1568 123.516 84.9097 123.516 84.9097L110.826 79.6902L111.105 80.9929L111.971 81.6993L112.172 80.8491C112.172 80.8491 110.396 79.8974 112.838 80.976C112.838 80.976 115.559 83.3658 117.653 83.903C117.653 83.903 122.067 84.7574 123.134 85.5907C123.134 85.5907 124.221 86.8131 126.516 86.7497C126.516 86.7497 126.614 86.7581 126.736 86.7412C126.849 86.4705 126.912 86.314 126.912 86.314L121.01 83.2178Z" fill="#DAE5EC"/>
<path d="M110.826 79.6817C113.528 79.9143 116.048 80.7603 118.123 81.7035L117.957 81.6147L110.577 78.1843C109.95 78.2943 109.877 78.7215 110.821 79.6817H110.826Z" fill="#DAE5EC"/>
<path d="M121.01 83.2178L118.123 81.7035C116.048 80.7603 113.528 79.9143 110.826 79.6859L123.516 84.9097C123.516 84.9097 122.581 84.1568 121.01 83.2178Z" fill="#DAE5EC"/>
<path d="M115.955 113.19C115.813 113.528 115.617 113.985 115.387 114.539C116.865 115.005 116.195 113.533 116.019 113.186C115.999 113.186 115.975 113.186 115.955 113.19Z" fill="#D8687B"/>
<path d="M102.776 109.447H102.781C101.42 110.601 102.683 110.411 102.776 110.398C102.889 110.047 103.001 109.679 103.119 109.282C102.991 109.316 102.874 109.366 102.776 109.447Z" fill="#D8687B"/>
<path d="M104.865 110.208C105.35 110.068 105.898 109.933 106.495 109.819L106.779 109.129C105.272 109.049 104.063 109.172 103.476 109.223C103.353 109.231 103.231 109.248 103.113 109.282C102.996 109.675 102.883 110.047 102.771 110.398H102.781C103.456 110.233 104.156 110.183 104.865 110.212V110.208Z" fill="#D8687B"/>
<path d="M109.657 109.523C109.657 109.523 109.632 109.519 109.618 109.514V109.523C109.618 109.523 109.642 109.523 109.657 109.523Z" fill="#D8687B"/>
<path d="M114.404 112.547C114.306 112.475 114.164 112.492 114.051 112.446C113.606 112.264 112.201 111.798 110.435 111.481C110.435 111.494 110.435 111.502 110.435 111.515C110.435 111.6 110.42 111.676 110.415 111.76C112.006 112.518 113.205 113.325 113.577 113.609C113.67 113.681 113.782 113.736 113.88 113.795C114.536 114.188 115.025 114.417 115.387 114.531C115.617 113.977 115.813 113.52 115.955 113.182C115.598 113.203 115.094 113.038 114.404 112.539V112.547Z" fill="#D8687B"/>
<path d="M109.618 109.523V109.514C108.614 109.286 107.65 109.172 106.784 109.13L106.5 109.819C107.435 109.641 108.487 109.514 109.618 109.523Z" fill="#D8687B"/>
<path d="M115.989 113.118C115.989 113.118 116.004 113.148 116.024 113.186C116.66 113.097 116.777 112.369 116.606 111.891C116.479 112.133 116.356 112.348 116.249 112.517C116.249 112.517 116.156 112.729 115.989 113.122V113.118Z" fill="#D8687B"/>
<path d="M102.394 111.232H102.399C101.67 112.23 101.694 112.484 101.924 112.479C102.213 111.811 102.419 111.333 102.521 111.096C102.472 111.139 102.428 111.181 102.389 111.232H102.394Z" fill="#D8687B"/>
<path d="M105.918 111.227L106.27 110.373C105.805 110.288 105.335 110.233 104.866 110.212C104.024 110.453 103.373 110.699 102.996 110.838C102.825 110.902 102.658 110.982 102.521 111.096C102.419 111.333 102.213 111.811 101.924 112.479C102.184 112.475 102.698 112.141 102.698 112.141C103.652 111.612 104.768 111.337 105.918 111.227Z" fill="#D8687B"/>
<path d="M108.859 111.101L108.786 111.253C108.996 111.274 109.211 111.295 109.417 111.325C109.417 111.325 109.417 111.325 109.417 111.321C109.236 111.244 109.05 111.172 108.859 111.101Z" fill="#D8687B"/>
<path d="M115.941 111.194C113.802 109.963 111.624 109.544 109.657 109.523C111.791 110.018 114.096 111.05 115.985 113.11C115.985 113.11 115.985 113.11 115.985 113.114C116.151 112.725 116.244 112.509 116.244 112.509C116.352 112.34 116.474 112.128 116.601 111.883C116.567 111.79 116.523 111.701 116.464 111.634C116.317 111.46 116.141 111.304 115.936 111.185L115.941 111.194Z" fill="#D8687B"/>
<path d="M108.786 111.075C108.751 111.134 108.722 111.194 108.688 111.249C108.722 111.249 108.751 111.253 108.786 111.257L108.859 111.105C108.835 111.096 108.81 111.088 108.786 111.075Z" fill="#D8687B"/>
<path d="M108.13 111.202C108.13 111.202 108.149 111.185 108.159 111.177C108.257 111.084 108.345 111.012 108.419 110.944C107.729 110.703 107.004 110.504 106.27 110.373L105.918 111.227C106.652 111.16 107.396 111.16 108.13 111.202Z" fill="#D8687B"/>
<path d="M115.955 113.19C115.955 113.19 115.999 113.19 116.019 113.186C115.999 113.148 115.99 113.127 115.985 113.118C115.975 113.139 115.965 113.169 115.955 113.19Z" fill="#D8687B"/>
<path d="M104.866 110.208C105.331 110.229 105.8 110.284 106.27 110.369L106.495 109.819C105.898 109.933 105.35 110.068 104.866 110.208Z" fill="#D8687B"/>
<path d="M108.859 111.101C109.05 111.172 109.236 111.244 109.417 111.321C109.417 111.308 109.422 111.295 109.427 111.274H109.432C109.554 110.876 110.621 107.911 110.44 111.485C112.202 111.803 113.606 112.268 114.056 112.45C114.164 112.496 114.311 112.479 114.409 112.551C115.099 113.051 115.603 113.215 115.96 113.194C115.97 113.173 115.98 113.144 115.989 113.122V113.118C114.1 111.054 111.795 110.026 109.662 109.531C109.647 109.531 109.632 109.531 109.618 109.531L108.859 111.109V111.101Z" fill="#D8687B"/>
<path d="M108.786 111.075C108.81 111.084 108.835 111.092 108.859 111.105L109.618 109.527C108.487 109.519 107.43 109.646 106.5 109.823L106.275 110.373C107.009 110.504 107.728 110.707 108.423 110.944C109.094 110.373 108.967 110.741 108.79 111.075H108.786Z" fill="#D8687B"/>
<path d="M109.417 111.325C109.417 111.325 109.417 111.346 109.412 111.354C109.392 111.748 109.422 113.592 108.384 115.935C108.384 115.935 104.361 123.93 107.684 119.442C107.684 119.442 110.107 116.071 110.415 111.765C110.102 111.617 109.774 111.469 109.436 111.329C109.427 111.329 109.422 111.329 109.412 111.329L109.417 111.325Z" fill="#D8687B"/>
<path d="M110.44 111.485C110.117 111.426 109.784 111.376 109.436 111.329C109.774 111.469 110.102 111.617 110.415 111.765C110.42 111.684 110.43 111.604 110.435 111.519C110.435 111.507 110.435 111.498 110.435 111.485H110.44Z" fill="#D8687B"/>
<path d="M109.417 111.321C109.417 111.321 109.417 111.321 109.417 111.325C109.427 111.325 109.432 111.325 109.441 111.325C109.436 111.325 109.427 111.321 109.422 111.316L109.417 111.321Z" fill="#D8687B"/>
<path d="M109.432 111.27H109.427C109.427 111.291 109.422 111.304 109.417 111.321C109.422 111.321 109.432 111.325 109.436 111.329C109.779 111.376 110.112 111.426 110.44 111.485C110.621 107.911 109.559 110.881 109.432 111.27Z" fill="#D8687B"/>
<path d="M105.976 114.645C105.325 117.179 107.112 113.275 107.112 113.275C107.679 112.171 108.409 111.583 108.551 111.447C108.56 111.43 108.575 111.414 108.575 111.414H108.58C108.6 111.384 108.639 111.321 108.683 111.244C108.497 111.227 108.311 111.211 108.125 111.202C106.5 112.721 105.971 114.645 105.971 114.645H105.976Z" fill="#D8687B"/>
<path d="M108.159 111.173C108.159 111.173 108.14 111.189 108.13 111.198C108.316 111.211 108.507 111.223 108.688 111.24C108.717 111.189 108.751 111.13 108.786 111.067C108.663 111.02 108.541 110.978 108.419 110.936C108.34 111.003 108.257 111.075 108.159 111.168V111.173Z" fill="#D8687B"/>
<path d="M108.418 110.94C108.541 110.982 108.663 111.024 108.786 111.071C108.962 110.737 109.089 110.369 108.418 110.94Z" fill="#D8687B"/>
<path d="M90.9279 149.054C91.7598 149.702 93.1888 150.201 93.1888 150.201C93.184 150.201 93.1791 150.192 93.1742 150.188C92.259 149.82 91.4711 149.431 90.9426 149.029C90.9377 149.037 90.9328 149.046 90.9279 149.05V149.054Z" fill="#618477"/>
<path d="M92.3079 144.309L92.3133 144.313L92.3079 144.309Z" fill="#618477"/>
<path d="M90.5314 148.653L92.3128 144.317V144.313L90.5216 148.661C90.6244 148.796 90.7663 148.928 90.9278 149.054C90.9327 149.046 90.9376 149.038 90.9425 149.033C90.7761 148.911 90.6391 148.784 90.5265 148.657L90.5314 148.653Z" fill="#618477"/>
<path d="M93.1741 150.188C92.298 149.638 91.9261 148.737 91.8429 147.718C91.4955 148.221 91.1871 148.67 90.9424 149.029C91.471 149.427 92.254 149.82 93.1741 150.188Z" fill="#618477"/>
<path d="M92.3275 144.321H92.3128L90.5314 148.657C90.6391 148.784 90.781 148.906 90.9474 149.033C91.1921 148.674 91.5004 148.225 91.8479 147.722C91.7598 146.635 92.0045 145.408 92.3324 144.326L92.3275 144.321Z" fill="#618477"/>
<path d="M92.4106 144.08C92.4106 144.08 92.4106 144.072 92.4106 144.067L92.3079 144.313L92.4057 144.08H92.4106Z" fill="#8EB5A8"/>
<path d="M92.3325 144.313C92.3325 144.313 92.3325 144.313 92.3325 144.317H92.3374C92.3667 144.237 92.3863 144.156 92.4108 144.076L92.3129 144.309H92.3276L92.3325 144.313Z" fill="#8EB5A8"/>
<path d="M92.3177 144.313L92.3328 144.321C92.3328 144.321 92.3328 144.321 92.3328 144.317H92.3177V144.313Z" fill="#8EB5A8"/>
</g>
</g>
<defs>
<filter id="filter0_d_1_498" x="-210" y="-280" width="383" height="760" filterUnits="userSpaceOnUse" color-interpolation-filters="sRGB">
<feFlood flood-opacity="0" result="BackgroundImageFix"/>
<feColorMatrix in="SourceAlpha" type="matrix" values="0 0 0 0 0 0 0 0 0 0 0 0 0 0 0 0 0 0 127 0" result="hardAlpha"/>
<feOffset dy="4"/>
<feGaussianBlur stdDeviation="2"/>
<feComposite in2="hardAlpha" operator="out"/>
<feColorMatrix type="matrix" values="0 0 0 0 0 0 0 0 0 0 0 0 0 0 0 0 0 0 0.07 0"/>
<feBlend mode="normal" in2="BackgroundImageFix" result="effect1_dropShadow_1_498"/>
<feBlend mode="normal" in="SourceGraphic" in2="effect1_dropShadow_1_498" result="shape"/>
</filter>
<linearGradient id="paint0_linear_1_498" x1="33.5" y1="-122" x2="92.2301" y2="524.349" gradientUnits="userSpaceOnUse">
<stop stop-color="#88D7FF"/>
<stop offset="1" stop-color="#58A1EB"/>
</linearGradient>
<linearGradient id="paint1_linear_1_498" x1="-228" y1="-277" x2="234.323" y2="425.114" gradientUnits="userSpaceOnUse">
<stop offset="0.601696" stop-color="#65B1FF"/>
<stop offset="1" stop-color="#80DBFB"/>
</linearGradient>
<linearGradient id="paint2_linear_1_498" x1="-19.4001" y1="-80.1258" x2="-19.9586" y2="-40.0002" gradientUnits="userSpaceOnUse">
<stop stop-color="#66B1FF"/>
<stop offset="1" stop-color="#7AD0FC"/>
</linearGradient>
<linearGradient id="paint3_linear_1_498" x1="-22.8339" y1="88.103" x2="-23.3923" y2="128.224" gradientUnits="userSpaceOnUse">
<stop stop-color="#66B1FF"/>
<stop offset="1" stop-color="#7AD0FC"/>
</linearGradient>
<linearGradient id="paint4_linear_1_498" x1="7.13658" y1="99.1641" x2="7.01952" y2="110.758" gradientUnits="userSpaceOnUse">
<stop stop-color="#66B1FF"/>
<stop offset="1" stop-color="#7AD0FC"/>
</linearGradient>
<clipPath id="clip0_1_498">
<rect width="375" height="812" fill="white" transform="translate(-206 -280)"/>
</clipPath>
</defs>
</svg>
