<svg width="111" height="113" viewBox="0 0 111 113" fill="none" xmlns="http://www.w3.org/2000/svg">
<path d="M72.5701 1.19287C67.5035 3.3262 66.1701 7.59286 65.5035 25.7262C64.8368 42.1262 64.7035 43.0595 61.5035 45.4595C59.3701 46.9262 54.7035 48.2595 49.1035 48.7929C40.1701 49.5929 40.1701 49.5929 40.1701 46.1262C40.1701 40.6595 38.8368 38.7929 34.0368 37.1929C30.4368 35.9929 29.5035 34.9262 29.5035 32.1262C29.5035 23.7262 30.4368 22.9262 37.9035 23.5929C46.7035 24.3929 48.0368 25.5929 45.1035 30.3929C41.9035 35.7262 42.1701 40.6595 45.7701 43.0595C50.0368 46.1262 54.4368 45.7262 58.1701 41.8595C61.3701 38.7929 61.5035 37.7262 61.5035 23.9929C61.5035 10.5262 61.2368 9.05953 58.3035 5.59286C55.5035 2.25953 54.1701 1.85953 44.9701 1.45953C37.1035 1.05953 34.0368 1.45953 31.5035 3.05953C28.4368 5.05953 27.7701 5.05953 25.2368 3.19286C23.3701 1.99286 19.3701 1.19287 14.4368 1.19287C8.03681 1.19287 6.17015 1.7262 3.50348 4.5262C-3.42985 11.3262 1.50348 22.5262 11.3701 22.5262C16.9701 22.5262 17.9035 24.6595 14.5701 29.3262C10.7035 34.5262 11.7701 40.1262 17.2368 42.3929C19.7701 43.5929 21.5035 45.3262 21.5035 46.7929C21.5035 48.7929 20.4368 49.1929 14.3035 49.1929C2.03682 49.1929 -3.82985 57.3262 2.70348 65.3262C5.23681 68.3929 5.90348 68.5262 23.7701 68.5262C40.8368 68.5262 42.7035 68.2595 49.6368 65.0595C56.4368 61.8595 62.8368 55.5929 62.8368 51.9929C62.8368 51.1929 63.3701 50.5262 64.0368 50.5262C64.7035 50.5262 65.5035 53.5929 65.7701 57.1929C66.5701 65.0595 69.5035 68.7929 75.6368 69.9929C80.9701 70.9262 84.8368 69.8595 88.1701 66.1262C90.4368 63.8595 90.8368 61.4595 90.8368 52.2595C90.8368 46.1262 91.2368 41.1929 91.6368 41.1929C92.1701 41.1929 93.9035 42.6595 95.6368 44.5262C97.3701 46.3929 100.17 47.8595 101.903 47.8595C110.303 47.8595 114.17 33.7262 107.503 27.1929C105.77 25.3262 103.503 23.8595 102.437 23.8595C99.7701 23.8595 93.5035 29.0595 93.5035 31.3262C93.5035 32.3929 92.9701 33.1929 92.1701 33.1929C91.3701 33.1929 90.8368 27.9929 90.8368 20.1262C90.7035 12.1262 90.1701 6.39286 89.1035 5.05953C85.5035 0.25953 78.7035 -1.34047 72.5701 1.19287Z" fill="#9D9D9D"/>
<path d="M34.1702 71.3266C23.5035 73.5933 19.7702 75.3266 16.1702 79.46C12.7035 83.3266 12.1702 85.06 12.1702 91.46C12.1702 98.26 12.5702 99.1933 17.2368 103.86C20.1702 106.793 24.7035 109.727 28.1702 110.66C36.3035 113.06 64.3035 113.06 72.5702 110.66C85.6368 106.793 92.0368 96.1266 88.0368 84.66C85.6368 77.7266 79.9035 73.86 69.1035 71.9933C60.9702 70.5266 39.7702 70.26 34.1702 71.3266ZM63.9035 79.3266C67.9035 80.3933 67.6368 83.5933 63.3702 85.1933C58.8368 86.9266 39.3702 86.9266 36.0368 85.1933C32.8368 83.46 32.7035 80.26 35.9035 79.46C39.3702 78.5266 60.4368 78.3933 63.9035 79.3266Z" fill="#9D9D9D"/>
</svg>
