<svg width="42" height="69" viewBox="0 0 42 69" fill="none" xmlns="http://www.w3.org/2000/svg">
<path d="M30.9665 16.2873C32.7388 18.201 34.597 19.6696 36.1549 20.5036C36.9361 20.9218 37.6166 21.1668 38.1568 21.2427C38.702 21.3193 39.0246 21.2156 39.2046 21.0489C39.3845 20.8822 39.5126 20.5685 39.478 20.0191C39.4438 19.4746 39.2516 18.7774 38.8944 17.9665C38.1821 16.3493 36.8601 14.384 35.0878 12.4704C33.3155 10.5567 31.4572 9.08815 29.8993 8.2541C29.1181 7.83588 28.4377 7.59088 27.8975 7.515C27.3523 7.43843 27.0297 7.54213 26.8497 7.70883C26.6697 7.87552 26.5416 8.18925 26.5762 8.73867C26.6105 9.28313 26.8027 9.98031 27.1599 10.7912C27.8722 12.4084 29.1941 14.3737 30.9665 16.2873Z" stroke="#D9D9D9"/>
<path d="M23.7786 19.0963L25.7244 8.9729L26.0627 9.04426C26.8331 9.2068 27.6366 8.76183 27.8636 7.97287C28.1241 7.06808 27.5834 6.14639 26.7216 5.96459L17.927 4.10919C17.1565 3.94665 16.3531 4.39162 16.126 5.18058C15.8655 6.08538 16.4063 7.00706 17.268 7.18886L17.6707 7.27381L15.7249 17.3972C15.7249 17.3972 9.28196 16.0379 8.25503 21.3808L0.902195 59.636C0.814095 60.0944 0.821036 60.5669 0.926819 61.0194C1.18649 62.11 1.9517 63.9422 4.17452 64.4112L17.0605 67.1297C19.3692 67.6168 20.7679 66.1094 21.378 65.2169C21.6072 64.8819 21.7564 64.4979 21.8337 64.0958L29.1947 25.7985C30.2216 20.4556 23.7786 19.0963 23.7786 19.0963Z" fill="#D2E7F4"/>
<path d="M18.4984 11.8365L20.9843 12.3609L21.0192 12.3683L23.5052 12.8927L25.8608 5.78188L18.9561 4.3252L18.4984 11.8365Z" fill="#B6A775"/>
<path d="M23.1031 1.5147L23.0682 1.50734L19.1729 0.685547L18.9536 4.32615L25.8583 5.78283L26.9984 2.33649L23.1031 1.5147Z" fill="#D2BE79"/>
<path d="M19.646 25.7332C19.646 25.7332 17.6546 37.983 16.3048 42.1429C16.3048 42.1429 10.538 56.5955 8.22675 59.4641C8.22675 59.4641 8.75946 63.0146 9.4626 63.3385C9.4626 63.3385 10.0275 63.3641 10.257 62.3591C10.257 62.3591 12.233 59.1418 13.1076 58.0359C13.1076 58.0359 13.7163 56.5842 14.0708 55.6261C14.6102 54.1715 18.8085 43.0252 18.8085 43.0252L20.0821 40.163C20.0821 40.163 21.9445 31.0842 22.7624 30.2297C22.7624 30.2297 23.7185 29.6735 22.5184 28.5776L19.6449 25.7388L19.646 25.7332Z" fill="#C9D3D9"/>
<path d="M20.9195 26.9938L21.021 26.5529C21.021 26.5529 20.2322 26.0354 21.3195 26.6276C21.3195 26.6276 22.5151 27.9069 23.454 28.2103C23.454 28.2103 25.434 28.707 25.904 29.1544C25.904 29.1544 26.3768 29.8043 27.4144 29.7978C27.4144 29.7978 29.2353 29.9889 24.068 26.3092C24.068 26.3092 18.8121 23.9333 20.4289 25.9277L20.5371 26.6147" fill="#C9D3D9"/>
<path d="M26.088 28.8035C26.088 28.8035 23.5524 26.3139 20.4277 25.9298Z" fill="#C9D3D9"/>
<path d="M20.3344 25.1412C19.5525 25.1108 19.643 25.7298 19.643 25.7298L18.2628 41.1224L10.351 61.7061C11.1525 62.8261 15.6162 63.961 15.6162 63.961C16.0891 64.6108 16.4627 63.8879 16.4627 63.8879C16.9491 62.665 18.5183 54.8791 18.5183 54.8791C19.6046 50.1135 22.4381 43.1327 22.4381 43.1327C23.1156 41.9765 24.8477 37.1071 24.8477 37.1071C25.0766 36.105 27.5996 29.5766 27.5996 29.5766L23.6216 27.0198" fill="#C9D3D9"/>
<path d="M16.4016 41.3751C16.4865 41.2964 16.6079 41.2752 16.7212 41.267C17.4727 41.209 20.422 40.9212 22.3147 43.4419C22.3147 43.4419 22.9954 44.9724 21.3562 43.7781C21.3122 43.7454 21.2623 43.7143 21.222 43.6766C20.8342 43.3109 18.3838 41.3661 16.3929 41.8707C16.3929 41.8707 15.751 41.984 16.4042 41.3757L16.4016 41.3751Z" fill="#D8687B"/>
<path d="M16.2072 42.3025C16.2734 42.2053 16.3798 42.1458 16.4856 42.1038C17.1782 41.8285 19.8557 40.7021 22.3208 42.4394C22.4121 42.5026 22.4909 42.5865 22.5542 42.6788C22.7697 42.9964 22.6207 44.0184 21.61 43.1293C21.5671 43.0909 21.5016 43.0976 21.4533 43.0728C20.982 42.8358 18.1043 41.7049 16.3334 42.7797C16.3334 42.7797 15.4819 43.3872 16.2099 42.3031L16.2072 42.3025Z" fill="#D8687B"/>
<path d="M19.3784 42.4073C19.3752 42.4242 19.373 42.4354 19.3703 42.4495C19.3561 42.6543 19.3442 43.6173 18.8459 44.829C18.8459 44.829 16.9241 48.956 18.4844 46.6517C18.4844 46.6517 19.6681 44.8532 19.832 42.5469C19.967 40.653 19.4431 42.2015 19.3816 42.4051L19.3784 42.4073Z" fill="#D8687B"/>
<path d="M18.9947 42.4697C18.9947 42.4697 18.9872 42.4798 18.9829 42.4877C18.9168 42.5556 18.5797 42.8561 18.3083 43.4251C18.3083 43.4251 17.4487 45.4412 17.7768 44.1264C17.7768 44.1264 18.0439 43.1147 18.8075 42.3395C19.4328 41.7018 19.0507 42.382 18.9974 42.4702L18.9947 42.4697Z" fill="#D8687B"/>
<path d="M11.2179 59.4589L10.3526 61.7079C10.6201 62.1476 11.5358 62.5427 11.5358 62.5427C10.7256 61.9329 10.9093 60.5554 11.2259 59.4606L11.2152 59.4583L11.2179 59.4589Z" fill="#618477"/>
<path d="M11.2655 59.3313L11.2153 59.4611L11.2261 59.4633C11.2401 59.4195 11.2514 59.3751 11.2655 59.3313Z" fill="#8EB5A8"/>
</svg>
