<svg width="100" height="72" viewBox="0 0 100 72" fill="none" xmlns="http://www.w3.org/2000/svg">
<path d="M56.8838 27.3591H54.8288C54.5713 27.3591 54.3463 27.6266 54.2738 28.0165L53.7738 30.7399C53.6663 31.3261 53.9438 31.9095 54.3288 31.9095H57.4238C57.8138 31.9095 58.0912 31.3119 57.9737 30.7228L57.4363 27.9994C57.3613 27.6181 57.1388 27.3591 56.8863 27.3591H56.8838Z" fill="#F2B656"/>
<path d="M56.5259 22.2368H55.1959C55.0309 22.2368 54.8834 22.5043 54.8384 22.8942L54.5134 25.6176C54.4434 26.2038 54.6234 26.7872 54.8709 26.7872H56.8734C57.1259 26.7872 57.3059 26.1896 57.2309 25.6005L56.8834 22.8771C56.8334 22.4958 56.6909 22.2368 56.5259 22.2368Z" fill="#F4BE5C"/>
<path d="M56.353 17.1145H55.628C55.538 17.1145 55.458 17.382 55.433 17.7719L55.2555 20.4953C55.218 21.0815 55.3155 21.6649 55.4505 21.6649H56.543C56.6805 21.6649 56.778 21.0673 56.738 20.4782L56.548 17.7548C56.5205 17.3735 56.443 17.1145 56.353 17.1145Z" fill="#F4C87D"/>
<path d="M58.1519 40.871H54.0419C53.5294 40.871 53.0769 41.3662 52.9344 42.0833L51.9319 47.1032C51.7169 48.1818 52.2719 49.2575 53.0394 49.2575H59.2269C60.0069 49.2575 60.5619 48.1562 60.3294 47.0691L59.2544 42.0492C59.1044 41.3463 58.6569 40.8682 58.1519 40.8682V40.871Z" fill="#F7BB5B"/>
<path d="M57.4245 32.4814H54.522C54.1595 32.4814 53.842 32.9339 53.7395 33.5884L53.032 38.173C52.8795 39.1576 53.272 40.1423 53.8145 40.1423H58.1845C58.7345 40.1423 59.127 39.1349 58.962 38.1445L58.202 33.56C58.0945 32.9168 57.7795 32.4814 57.4245 32.4814Z" fill="#F7BB5B"/>
<path d="M58.8489 49.9887H53.0465C52.3215 49.9887 51.684 50.4839 51.4815 51.201L50.0665 56.2209C49.7615 57.2995 50.544 58.3752 51.6315 58.3752H60.3689C61.4689 58.3752 62.2539 57.2739 61.9239 56.1868L60.4039 51.1668C60.1914 50.4639 59.5614 49.9858 58.8489 49.9858V49.9887Z" fill="#F7BB5B"/>
<path d="M56.0548 10H56.0573C56.778 10 57.3623 10.6651 57.3623 11.4855V15.0598C57.3623 15.8802 56.778 16.5453 56.0573 16.5453H56.0548C55.3341 16.5453 54.7498 15.8802 54.7498 15.0598V11.4855C54.7498 10.6651 55.3341 10 56.0548 10Z" fill="#F5B959"/>
<path d="M46.1633 33.6177H44.6221C44.4289 33.6177 44.2602 33.7967 44.2058 34.0576L43.8308 35.8803C43.7502 36.2726 43.9583 36.663 44.2471 36.663H46.5683C46.8608 36.663 47.0689 36.2631 46.9808 35.8688L46.5777 34.0462C46.5214 33.791 46.3546 33.6177 46.1652 33.6177H46.1633Z" fill="#F2B656"/>
<path d="M45.8948 30.1895H44.8973C44.7735 30.1895 44.6629 30.3685 44.6292 30.6294L44.3854 32.452C44.3329 32.8444 44.4679 33.2348 44.6535 33.2348H46.1554C46.3448 33.2348 46.4798 32.8349 46.4235 32.4406L46.1629 30.618C46.1254 30.3628 46.0185 30.1895 45.8948 30.1895Z" fill="#F4BE5C"/>
<path d="M45.7656 26.7612H45.2218C45.1543 26.7612 45.0943 26.9403 45.0756 27.2012L44.9424 29.0238C44.9143 29.4162 44.9874 29.8066 45.0887 29.8066H45.9081C46.0112 29.8066 46.0843 29.4066 46.0543 29.0124L45.9118 27.1898C45.8912 26.9345 45.8331 26.7612 45.7656 26.7612Z" fill="#F4C87D"/>
<path d="M47.1135 42.6606H44.031C43.6466 42.6606 43.3073 42.992 43.2004 43.4719L42.4485 46.8315C42.2873 47.5533 42.7035 48.2733 43.2791 48.2733H47.9197C48.5047 48.2733 48.921 47.5362 48.7466 46.8087L47.9403 43.4491C47.8278 42.9787 47.4922 42.6587 47.1135 42.6587V42.6606Z" fill="#F7BB5B"/>
<path d="M46.568 37.0459H44.3912C44.1193 37.0459 43.8812 37.3487 43.8043 37.7868L43.2737 40.855C43.1593 41.5139 43.4537 42.1729 43.8606 42.1729H47.138C47.5505 42.1729 47.8449 41.4987 47.7212 40.8359L47.1512 37.7677C47.0705 37.3373 46.8343 37.0459 46.568 37.0459Z" fill="#F7BB5B"/>
<path d="M47.637 48.7626H43.2851C42.7414 48.7626 42.2632 49.094 42.1114 49.574L41.0501 52.9336C40.8214 53.6554 41.4082 54.3753 42.2239 54.3753H48.7769C49.6019 54.3753 50.1907 53.6383 49.9432 52.9107L48.8032 49.5511C48.6438 49.0807 48.1713 48.7607 47.637 48.7607V48.7626Z" fill="#F7BB5B"/>
<path d="M45.5405 22H45.5424C46.0829 22 46.5211 22.4451 46.5211 22.9942V25.3863C46.5211 25.9353 46.0829 26.3804 45.5424 26.3804H45.5405C45 26.3804 44.5618 25.9353 44.5618 25.3863V22.9942C44.5618 22.4451 45 22 45.5405 22Z" fill="#F5B959"/>
<path d="M45.1145 23.3926C45.1145 23.3926 38.5401 19.0746 35 25.6455C35 25.6455 43.0916 22.6416 45.1145 23.3926Z" fill="#707F3C"/>
<path d="M44.9133 23.3625C44.9133 23.3625 36.5082 21.4832 36.9962 28.5515C36.9962 28.5515 42.6527 23.3099 44.9133 23.3625Z" fill="#707F3C"/>
<path d="M46.127 23.3926C46.127 23.3926 52.7014 19.0746 56.2415 25.6455C56.2415 25.6455 48.1499 22.6416 46.127 23.3926Z" fill="#707F3C"/>
<path d="M46.3298 23.3625C46.3298 23.3625 54.7325 21.4832 54.2444 28.5515C54.2444 28.5515 48.5879 23.3099 46.3273 23.3625H46.3298Z" fill="#707F3C"/>
<path d="M3.75816 62.304C62.5 82 79.3208 62.2512 79.3249 62.2474C80.9989 61.1654 82 59.793 82 58.2925C82 54.8163 76.6083 52 69.9538 52H13.0462C6.39169 52 1 54.8163 1 58.2925C1 59.8156 2.03431 61.2106 3.75816 62.3002V62.304Z" fill="#5AA4D5"/>
<path d="M2.48574 53.936C41.172 31.5557 70.5854 53.9773 70.5891 53.9803C72.0978 54.8271 73 55.9011 73 57.0754C73 59.7959 68.1408 62 62.1436 62H10.8564C4.85918 62 0 59.7959 0 57.0754C0 55.8834 0.932152 54.7917 2.48574 53.939V53.936Z" fill="#FFE1AB"/>
<path d="M55.2855 11.2099C55.2855 11.2099 46 4.3578 41.0001 14.7849C41.0001 14.7849 52.4284 10.0182 55.2855 11.2099Z" fill="#707F3C"/>
<path d="M55.0009 11.1621C55.0009 11.1621 43.1298 8.17998 43.819 19.3965C43.819 19.3965 51.8081 11.0787 55.0009 11.1621Z" fill="#707F3C"/>
<path d="M56.7146 11.2099C56.7146 11.2099 66.0001 4.3578 71 14.7849C71 14.7849 59.5717 10.0182 56.7146 11.2099Z" fill="#707F3C"/>
<path d="M57.0008 11.1621C57.0008 11.1621 68.8684 8.17998 68.1791 19.3965C68.1791 19.3965 60.19 11.0787 56.9972 11.1621H57.0008Z" fill="#707F3C"/>
<path d="M86.8169 5.30769C86.8169 7.3469 84.3955 9 81.4085 9C78.4214 9 76 7.3469 76 5.30769C76 3.26849 78.4214 1.61538 81.4085 1.61538C84.3955 1.61538 86.8169 3.26849 86.8169 5.30769Z" fill="#C4EBFF"/>
<path d="M100 5.30769C100 7.3469 97.5786 9 94.5915 9C91.6045 9 89.1831 7.3469 89.1831 5.30769C89.1831 3.26849 91.6045 1.61538 94.5915 1.61538C97.5786 1.61538 100 3.26849 100 5.30769Z" fill="#C4EBFF"/>
<path d="M94.5915 4.5C94.5915 6.98528 91.6404 9 88 9C84.3596 9 81.4085 6.98528 81.4085 4.5C81.4085 2.01472 84.3596 0 88 0C91.6404 0 94.5915 2.01472 94.5915 4.5Z" fill="#C4EBFF"/>
<path d="M13.5634 19.1282C13.5634 20.7143 11.6464 22 9.28169 22C6.91698 22 5 20.7143 5 19.1282C5 17.5422 6.91698 16.2564 9.28169 16.2564C11.6464 16.2564 13.5634 17.5422 13.5634 19.1282Z" fill="#C4EBFF"/>
<path d="M24 19.1282C24 20.7143 22.083 22 19.7183 22C17.3536 22 15.4366 20.7143 15.4366 19.1282C15.4366 17.5422 17.3536 16.2564 19.7183 16.2564C22.083 16.2564 24 17.5422 24 19.1282Z" fill="#C4EBFF"/>
<path d="M19.7183 18.5C19.7183 20.433 17.382 22 14.5 22C11.618 22 9.28169 20.433 9.28169 18.5C9.28169 16.567 11.618 15 14.5 15C17.382 15 19.7183 16.567 19.7183 18.5Z" fill="#C4EBFF"/>
</svg>
