<svg width="100" height="72" viewBox="0 0 100 72" fill="none" xmlns="http://www.w3.org/2000/svg">
<path d="M56.8838 27.3591H54.8288C54.5713 27.3591 54.3463 27.6266 54.2738 28.0165L53.7738 30.7399C53.6663 31.3261 53.9438 31.9095 54.3288 31.9095H57.4238C57.8138 31.9095 58.0912 31.3119 57.9737 30.7228L57.4363 27.9994C57.3613 27.6181 57.1388 27.3591 56.8863 27.3591H56.8838Z" fill="#F2B656"/>
<path d="M56.5259 22.2368H55.1959C55.0309 22.2368 54.8834 22.5043 54.8384 22.8942L54.5134 25.6176C54.4434 26.2038 54.6234 26.7872 54.8709 26.7872H56.8734C57.1259 26.7872 57.3059 26.1896 57.2309 25.6005L56.8834 22.8771C56.8334 22.4958 56.6909 22.2368 56.5259 22.2368Z" fill="#F4BE5C"/>
<path d="M56.353 17.1145H55.628C55.538 17.1145 55.458 17.382 55.433 17.7719L55.2555 20.4953C55.218 21.0815 55.3155 21.6649 55.4505 21.6649H56.543C56.6805 21.6649 56.778 21.0673 56.738 20.4782L56.548 17.7548C56.5205 17.3735 56.443 17.1145 56.353 17.1145Z" fill="#F4C87D"/>
<path d="M58.1519 40.871H54.0419C53.5294 40.871 53.0769 41.3662 52.9344 42.0833L51.9319 47.1032C51.7169 48.1818 52.2719 49.2575 53.0394 49.2575H59.2269C60.0069 49.2575 60.5619 48.1562 60.3294 47.0691L59.2544 42.0492C59.1044 41.3463 58.6569 40.8682 58.1519 40.8682V40.871Z" fill="#F7BB5B"/>
<path d="M57.4245 32.4816H54.522C54.1595 32.4816 53.842 32.934 53.7395 33.5886L53.032 38.1731C52.8795 39.1577 53.272 40.1424 53.8145 40.1424H58.1845C58.7345 40.1424 59.127 39.135 58.962 38.1446L58.202 33.5601C58.0945 32.917 57.7795 32.4816 57.4245 32.4816Z" fill="#F7BB5B"/>
<path d="M58.8489 49.9888H53.0465C52.3215 49.9888 51.684 50.484 51.4815 51.2011L50.0665 56.221C49.7615 57.2996 50.544 58.3753 51.6315 58.3753H60.3689C61.4689 58.3753 62.2539 57.274 61.9239 56.1869L60.4039 51.167C60.1914 50.4641 59.5614 49.986 58.8489 49.986V49.9888Z" fill="#F7BB5B"/>
<path d="M56.0548 10H56.0573C56.778 10 57.3623 10.6651 57.3623 11.4855V15.0598C57.3623 15.8802 56.778 16.5453 56.0573 16.5453H56.0548C55.3341 16.5453 54.7498 15.8802 54.7498 15.0598V11.4855C54.7498 10.6651 55.3341 10 56.0548 10Z" fill="#F5B959"/>
<path d="M46.1631 33.6176H44.6218C44.4287 33.6176 44.2599 33.7966 44.2056 34.0575L43.8306 35.8801C43.75 36.2725 43.9581 36.6629 44.2468 36.6629H46.5681C46.8606 36.6629 47.0687 36.263 46.9806 35.8687L46.5774 34.0461C46.5212 33.7909 46.3543 33.6176 46.1649 33.6176H46.1631Z" fill="#F2B656"/>
<path d="M45.8949 30.1896H44.8974C44.7737 30.1896 44.663 30.3686 44.6293 30.6295L44.3855 32.4522C44.333 32.8445 44.468 33.2349 44.6537 33.2349H46.1555C46.3449 33.2349 46.4799 32.835 46.4236 32.4407L46.163 30.6181C46.1255 30.3629 46.0186 30.1896 45.8949 30.1896Z" fill="#F4BE5C"/>
<path d="M45.765 26.7614H45.2213C45.1538 26.7614 45.0938 26.9404 45.075 27.2013L44.9419 29.0239C44.9138 29.4163 44.9869 29.8067 45.0881 29.8067H45.9075C46.0106 29.8067 46.0838 29.4068 46.0538 29.0125L45.9113 27.1899C45.8906 26.9347 45.8325 26.7614 45.765 26.7614Z" fill="#F4C87D"/>
<path d="M47.1129 42.6605H44.0304C43.6461 42.6605 43.3067 42.9919 43.1998 43.4718L42.448 46.8314C42.2867 47.5532 42.703 48.2731 43.2786 48.2731H47.9192C48.5042 48.2731 48.9204 47.5361 48.746 46.8086L47.9398 43.449C47.8273 42.9785 47.4917 42.6586 47.1129 42.6586V42.6605Z" fill="#F7BB5B"/>
<path d="M46.5674 37.0459H44.3905C44.1186 37.0459 43.8805 37.3487 43.8036 37.7868L43.273 40.855C43.1586 41.5139 43.453 42.1729 43.8599 42.1729H47.1374C47.5499 42.1729 47.8442 41.4987 47.7205 40.8359L47.1505 37.7677C47.0699 37.3373 46.8336 37.0459 46.5674 37.0459Z" fill="#F7BB5B"/>
<path d="M47.6367 48.7626H43.2849C42.7411 48.7626 42.263 49.094 42.1111 49.574L41.0499 52.9336C40.8211 53.6554 41.408 54.3753 42.2236 54.3753H48.7767C49.6017 54.3753 50.1904 53.6383 49.9429 52.9107L48.803 49.5511C48.6436 49.0807 48.1711 48.7607 47.6367 48.7607V48.7626Z" fill="#F7BB5B"/>
<path d="M45.5399 22H45.5418C46.0823 22 46.5205 22.4451 46.5205 22.9942V25.3863C46.5205 25.9353 46.0823 26.3804 45.5418 26.3804H45.5399C44.9993 26.3804 44.5611 25.9353 44.5611 25.3863V22.9942C44.5611 22.4451 44.9993 22 45.5399 22Z" fill="#F5B959"/>
<path d="M45.1143 23.3926C45.1143 23.3926 38.5398 19.0746 34.9998 25.6455C34.9998 25.6455 43.0914 22.6416 45.1143 23.3926Z" fill="#707F3C"/>
<path d="M44.9131 23.3623C44.9131 23.3623 36.5079 21.4831 36.996 28.5514C36.996 28.5514 42.6525 23.3098 44.9131 23.3623Z" fill="#707F3C"/>
<path d="M46.1267 23.3926C46.1267 23.3926 52.7011 19.0746 56.2412 25.6455C56.2412 25.6455 48.1496 22.6416 46.1267 23.3926Z" fill="#707F3C"/>
<path d="M46.3296 23.3623C46.3296 23.3623 54.7322 21.4831 54.2442 28.5514C54.2442 28.5514 48.5877 23.3098 46.3271 23.3623H46.3296Z" fill="#707F3C"/>
<path d="M3.75816 62.304C62.5 82 79.3208 62.2512 79.3249 62.2474C80.9989 61.1654 82 59.793 82 58.2925C82 54.8163 76.6083 52 69.9538 52H13.0462C6.39169 52 1 54.8163 1 58.2925C1 59.8156 2.03431 61.2106 3.75816 62.3002V62.304Z" fill="#5AA4D5"/>
<path d="M2.48574 53.936C41.172 31.5557 70.5854 53.9773 70.5891 53.9803C72.0978 54.8271 73 55.9011 73 57.0754C73 59.7959 68.1408 62 62.1436 62H10.8564C4.85918 62 0 59.7959 0 57.0754C0 55.8834 0.932152 54.7917 2.48574 53.939V53.936Z" fill="#FFE1AB"/>
<path d="M55.2852 11.2099C55.2852 11.2099 45.9997 4.3578 40.9998 14.7849C40.9998 14.7849 52.4281 10.0182 55.2852 11.2099Z" fill="#707F3C"/>
<path d="M55.001 11.162C55.001 11.162 43.1298 8.17986 43.8191 19.3964C43.8191 19.3964 51.8082 11.0786 55.001 11.162Z" fill="#707F3C"/>
<path d="M56.7146 11.2099C56.7146 11.2099 66.0001 4.3578 71 14.7849C71 14.7849 59.5717 10.0182 56.7146 11.2099Z" fill="#707F3C"/>
<path d="M57.0008 11.162C57.0008 11.162 68.8684 8.17986 68.1791 19.3964C68.1791 19.3964 60.19 11.0786 56.9972 11.162H57.0008Z" fill="#707F3C"/>
<path d="M86.8169 5.30769C86.8169 7.3469 84.3955 9 81.4085 9C78.4214 9 76 7.3469 76 5.30769C76 3.26849 78.4214 1.61538 81.4085 1.61538C84.3955 1.61538 86.8169 3.26849 86.8169 5.30769Z" fill="#C4EBFF"/>
<path d="M100 5.30769C100 7.3469 97.5786 9 94.5915 9C91.6045 9 89.1831 7.3469 89.1831 5.30769C89.1831 3.26849 91.6045 1.61538 94.5915 1.61538C97.5786 1.61538 100 3.26849 100 5.30769Z" fill="#C4EBFF"/>
<path d="M94.5915 4.5C94.5915 6.98528 91.6404 9 88 9C84.3596 9 81.4085 6.98528 81.4085 4.5C81.4085 2.01472 84.3596 0 88 0C91.6404 0 94.5915 2.01472 94.5915 4.5Z" fill="#C4EBFF"/>
</svg>
