<svg width="822" height="352" viewBox="0 0 822 352" fill="none" xmlns="http://www.w3.org/2000/svg">
<path d="M117.081 124.259C214.453 119.944 192.38 134.335 192.138 146.196C192.121 147.071 191.856 147.951 191.417 148.824L222.06 150.698C216.328 147.665 212.171 144.314 209.672 140.823C198.376 125.084 252.141 113.809 298.703 118.278C353.772 123.563 371.085 129.03 386.795 141.907C396.392 149.771 376.598 157.053 348.143 161.112L424.586 170.637C410.458 166.371 400.92 161.284 401.036 155.596C401.388 138.289 382.182 118.875 465.68 118.467C507.589 118.261 519.079 134.464 530.307 153.497C537.016 164.873 548.352 175.047 544.741 180.537L586.347 182.381C553.925 170.923 533.543 154.29 552.631 146.768C578.202 136.695 655.036 148.415 715.025 155.223C751.415 159.351 770.108 169.092 772.491 178.239L818.058 176.697L821.554 4.9817L7.08083 -3.81029e-05L4.18052 142.424L41.2836 143.64C43.6681 127.081 77.7254 125.984 117.081 124.237L117.081 124.259ZM372.717 120.182C322.208 119.873 264.99 108.902 281.709 97.1748C302.332 82.7156 328.655 73.5237 373.631 75.2869C439.035 77.8519 454.76 84.3033 464.639 98.2937C473.319 110.579 423.226 120.491 372.717 120.182ZM593.091 137.141C520.309 128.944 502.996 122.074 486.798 112.467C464.346 99.1461 490.781 90.1537 614.232 99.3645C677.675 104.099 713.52 113.606 720.524 124.039C729.36 137.212 654.153 144.02 593.091 137.141ZM717 82.5014C702.08 89.9795 638.32 101.51 539.075 89.4069C451.65 78.7456 373.905 73.9778 378.768 65.4551C383.632 56.9324 462.076 58.03 556.692 58.5496C696.33 59.3231 739.723 71.1172 717 82.5014ZM689.91 15.9468C745.805 16.2887 789.66 26.0764 796.921 37.4238C808.179 55.0165 751.877 63.2515 688.336 57.582C623.839 51.8261 584.896 47.5535 580.599 36.1006C575.09 21.4279 630.168 15.5814 689.91 15.9468ZM392.194 18.6599C489.525 16.3704 552.696 27.3345 568.901 40.1495C591.765 58.2269 543.964 52.5731 452.49 52.4273C431.698 52.3915 339.119 45.9535 298.861 38.4978C180.244 16.5362 317.99 20.4033 392.194 18.6599ZM358.505 62.2583C343.384 71.0782 291.847 87.0298 241.458 79.4155C184.193 70.7599 115.75 70.5561 125.139 60.8309C134.291 51.3513 180.12 48.3224 242.186 43.6737C293.724 39.8148 372.45 54.1242 358.505 62.2583ZM139.66 12.9949C219.435 17.195 217.983 17.1861 232.245 29.8495C241.944 38.4559 192.664 48.3669 138.997 45.5675C88.3902 42.9264 58.6563 37.0662 46.4117 28.7129C27.7941 16.0228 89.0684 10.3324 139.66 12.9949ZM149.172 80.6722C249.94 87.8855 263.09 85.9728 262.762 99.9223C262.467 112.298 233.187 123.341 148.416 117.778C86.8756 113.738 73.7734 111.138 34.826 98.5281C10.8373 90.7637 87.9141 76.2899 149.172 80.6722Z" fill="url(#paint0_linear_89_271)"/>
<path d="M780.286 208.36C777.901 224.919 743.844 226.016 704.488 227.763C607.116 232.077 629.189 217.686 629.43 205.826C629.448 204.95 629.713 204.071 630.152 203.198L599.509 201.324C605.241 204.356 609.398 207.707 611.897 211.198C623.192 226.938 569.427 238.213 522.865 233.743C467.797 228.458 450.484 222.991 434.774 210.115C425.177 202.25 444.971 194.969 473.426 190.909L396.983 181.384C411.111 185.65 420.649 190.737 420.533 196.425C420.18 213.732 439.387 233.146 355.889 233.554C313.98 233.76 302.49 217.557 291.262 198.525C284.553 187.149 273.216 176.974 276.828 171.485L235.222 169.64C267.644 181.098 288.025 197.732 268.938 205.254C243.366 215.326 166.533 203.607 106.544 196.799C70.1534 192.671 51.4611 182.929 49.0628 173.782L3.49652 175.325L0.000174635 347.018L814.488 352L818.058 176.718L817.389 209.576L780.286 208.36ZM448.852 231.84C499.361 232.149 556.579 243.119 539.86 254.847C519.237 269.306 492.914 278.498 447.938 276.735C382.533 274.17 366.809 267.718 356.93 253.728C348.25 241.442 398.343 231.531 448.852 231.84ZM228.478 214.88C301.26 223.078 318.573 229.947 334.77 239.555C357.223 252.875 330.788 261.868 207.337 252.657C143.894 247.923 108.048 238.415 101.044 227.983C92.2086 214.81 167.416 208.001 228.478 214.88ZM104.569 269.52C119.488 262.042 183.248 250.511 282.493 262.615C369.919 273.276 447.664 278.044 442.801 286.566C437.937 295.089 359.493 293.991 264.876 293.472C125.238 292.698 81.8457 280.904 104.569 269.52ZM131.659 336.075C75.7633 335.733 31.9088 325.945 24.6475 314.598C13.3898 297.005 69.692 288.77 133.232 294.439C197.729 300.195 236.672 304.468 240.969 315.921C246.479 330.594 191.401 336.44 131.659 336.075ZM429.375 333.362C332.044 335.651 268.873 324.687 252.668 311.872C229.804 293.795 277.605 299.448 369.078 299.594C389.87 299.63 482.45 306.068 522.707 313.524C641.324 335.485 503.579 331.618 429.375 333.362ZM463.064 289.763C478.184 280.943 529.721 264.992 580.111 272.606C637.376 281.262 705.819 281.465 696.43 291.191C687.278 300.67 641.449 303.699 579.383 308.348C527.845 312.207 449.118 297.897 463.064 289.763ZM681.894 339.026C602.119 334.826 603.571 334.835 589.309 322.172C579.61 313.565 628.89 303.654 682.557 306.454C733.164 309.095 762.898 314.955 775.142 323.309C793.76 335.999 732.486 341.689 681.894 339.026ZM672.382 271.349C571.615 264.136 558.464 266.049 558.792 252.099C559.087 239.723 588.367 228.68 673.138 234.243C734.679 238.283 747.781 240.883 786.728 253.493C810.717 261.258 733.64 275.732 672.382 271.349Z" fill="url(#paint1_linear_89_271)"/>
<path d="M641.145 194.546C655.852 187.496 681.972 182.601 705.363 184.807C725.188 186.68 744.606 189.307 758.716 193.036C759.272 192.84 759.827 192.645 760.354 192.439C769.766 188.73 773.893 183.593 772.491 178.261L614.055 183.625L586.333 182.398C597.332 186.29 609.723 189.583 622.428 191.719C628.622 192.761 634.89 193.702 641.145 194.546Z" fill="url(#paint2_linear_89_271)"/>
<path d="M199.141 160.303C211.846 162.443 224.237 165.737 235.236 169.624L276.842 171.469C278.67 168.702 284.307 167.125 296.27 167.198C320.225 167.345 368.164 172.656 396.997 181.368L473.44 190.893C488.804 188.704 506.674 187.449 523.82 187.554C559.114 187.77 584.655 193.454 599.524 201.313L630.166 203.187C631.694 200.172 635.603 197.204 641.16 194.541C634.89 193.697 628.636 192.756 622.443 191.713C609.738 189.573 597.347 186.279 586.347 182.392L544.741 180.548C542.913 183.314 537.277 184.891 525.314 184.818C501.358 184.671 453.42 179.361 424.586 170.648L348.143 161.123C332.78 163.312 314.909 164.567 297.763 164.462C262.469 164.247 236.928 158.562 222.06 150.703L191.417 148.829C189.889 151.844 185.981 154.813 180.424 157.475C186.694 158.32 192.947 159.26 199.141 160.303Z" fill="url(#paint3_linear_89_271)"/>
<path d="M760.354 192.439C759.827 192.645 759.272 192.84 758.716 193.036C771.945 196.533 780.537 201.007 780.42 206.744C780.409 207.297 780.369 207.834 780.286 208.36L817.389 209.576L818.058 176.718L772.491 178.261C773.893 183.593 769.766 188.73 760.354 192.439Z" fill="url(#paint4_linear_89_271)"/>
<defs>
<linearGradient id="paint0_linear_89_271" x1="345.6" y1="-42.1259" x2="345.041" y2="-2.00019" gradientUnits="userSpaceOnUse">
<stop stop-color="#66B1FF"/>
<stop offset="1" stop-color="#7AD0FC"/>
</linearGradient>
<linearGradient id="paint1_linear_89_271" x1="342.166" y1="126.103" x2="341.608" y2="166.224" gradientUnits="userSpaceOnUse">
<stop stop-color="#66B1FF"/>
<stop offset="1" stop-color="#7AD0FC"/>
</linearGradient>
<linearGradient id="paint2_linear_89_271" x1="663.777" y1="173.373" x2="663.741" y2="177.207" gradientUnits="userSpaceOnUse">
<stop stop-color="#66B1FF"/>
<stop offset="1" stop-color="#7AD0FC"/>
</linearGradient>
<linearGradient id="paint3_linear_89_271" x1="372.137" y1="137.164" x2="372.02" y2="148.758" gradientUnits="userSpaceOnUse">
<stop stop-color="#66B1FF"/>
<stop offset="1" stop-color="#7AD0FC"/>
</linearGradient>
<linearGradient id="paint4_linear_89_271" x1="783.679" y1="168.387" x2="783.488" y2="175.758" gradientUnits="userSpaceOnUse">
<stop stop-color="#66B1FF"/>
<stop offset="1" stop-color="#7AD0FC"/>
</linearGradient>
</defs>
</svg>
