<svg width="822" height="387" viewBox="0 0 822 387" fill="none" xmlns="http://www.w3.org/2000/svg">
<path fill-rule="evenodd" clip-rule="evenodd" d="M117.081 124.259C199.245 120.618 196.361 130.296 193.311 140.534C192.746 142.429 192.176 144.343 192.138 146.196C192.121 147.071 191.856 147.951 191.417 148.824L222.06 150.698C216.328 147.665 212.171 144.314 209.672 140.823C198.376 125.084 252.141 113.809 298.703 118.278C353.772 123.563 371.085 129.03 386.794 141.907C396.392 149.771 376.598 157.053 348.143 161.112L424.586 170.637C410.458 166.371 400.92 161.284 401.036 155.596C401.093 152.799 400.639 149.947 400.19 147.129L400.19 147.126C397.862 132.508 395.681 118.809 465.68 118.467C507.589 118.261 519.079 134.464 530.307 153.497C532.492 157.201 535.167 160.778 537.657 164.108C542.814 171.002 547.176 176.835 544.741 180.537L586.347 182.381C553.925 170.923 533.543 154.29 552.631 146.768C574.223 138.263 632.363 145.295 686.05 151.788C695.945 152.985 705.689 154.163 715.025 155.223C751.416 159.351 770.107 169.092 772.491 178.239L818.058 176.697L821.555 4.98169L7.08081 0L4.18042 142.424L41.2834 143.64C43.6106 127.48 76.1035 126.046 114.248 124.363L117.081 124.237L117.081 124.259ZM372.717 120.182C322.208 119.873 264.99 108.902 281.709 97.1748C302.332 82.7157 328.655 73.5238 373.631 75.287C439.035 77.8519 454.76 84.3033 464.639 98.2937C473.319 110.579 423.226 120.491 372.717 120.182ZM593.091 137.141C520.309 128.944 502.996 122.074 486.798 112.467C464.346 99.1461 490.781 90.1537 614.232 99.3645C677.675 104.099 713.521 113.606 720.524 124.039C729.36 137.212 654.153 144.02 593.091 137.141ZM717 82.5015C702.081 89.9795 638.32 101.51 539.075 89.4069C514.652 86.4286 490.984 83.9102 469.661 81.6414C414.658 75.7887 375.263 71.5968 378.768 65.4551C383.299 57.5159 451.679 57.9248 537.505 58.4381L537.773 58.4396L546.884 58.4938C550.132 58.5128 553.403 58.5316 556.692 58.5497C696.331 59.3231 739.723 71.1172 717 82.5015ZM689.91 15.9469C745.805 16.2887 789.66 26.0764 796.921 37.4238C808.179 55.0166 751.877 63.2515 688.336 57.582C623.839 51.8262 584.896 47.5535 580.6 36.1007C575.09 21.4279 630.167 15.5814 689.91 15.9469ZM392.194 18.6599C489.525 16.3705 552.696 27.3346 568.901 40.1495C586.828 54.3235 561.312 53.9083 505.365 52.9979H505.358H505.354C489.95 52.7472 472.237 52.4589 452.49 52.4274C431.698 52.3915 339.119 45.9535 298.861 38.4978C201.604 20.4908 276.695 19.8481 347.794 19.2396C363.409 19.106 378.832 18.9739 392.194 18.6599ZM358.505 62.2583C343.384 71.0782 291.847 87.0298 241.458 79.4155C220.666 76.2728 198.4 74.2443 178.921 72.4696C144.752 69.3567 119.159 67.025 125.139 60.8309C133.902 51.7545 176.288 48.5917 234.356 44.2588C236.936 44.0663 239.546 43.8715 242.186 43.6737C293.724 39.8148 372.45 54.1243 358.505 62.2583ZM139.66 12.9949C217.931 17.1158 218.009 17.1849 231.455 29.1467L232.245 29.8495C241.944 38.4559 192.664 48.3669 138.997 45.5675C88.3901 42.9265 58.6562 37.0663 46.4116 28.7129C27.7942 16.0228 89.0684 10.3325 139.66 12.9949ZM149.172 80.6722C165.904 81.87 180.22 82.816 192.46 83.6249C253.935 87.6876 263.036 88.2891 262.762 99.9224C262.467 112.298 233.188 123.341 148.417 117.778C86.8755 113.738 73.7734 111.138 34.8259 98.5282C10.8372 90.7637 87.9141 76.2899 149.172 80.6722ZM780.286 208.36C777.958 224.52 745.465 225.954 707.321 227.637L704.488 227.763C622.324 231.403 625.208 221.725 628.258 211.487C628.822 209.592 629.393 207.678 629.43 205.826C629.448 204.95 629.713 204.071 630.152 203.198L599.509 201.324C605.241 204.356 609.398 207.707 611.897 211.198C623.192 226.938 569.427 238.213 522.865 233.743C467.797 228.458 450.484 222.991 434.774 210.115C425.177 202.25 444.971 194.969 473.426 190.909L396.983 181.384C411.111 185.65 420.649 190.737 420.533 196.425C420.476 199.222 420.93 202.074 421.378 204.892L421.379 204.896C423.706 219.513 425.887 233.212 355.889 233.554C313.979 233.76 302.49 217.557 291.262 198.525C289.077 194.82 286.401 191.243 283.911 187.914C278.755 181.019 274.393 175.187 276.828 171.485L235.222 169.64C267.644 181.098 288.025 197.732 268.938 205.254C247.346 213.759 189.206 206.727 135.519 200.234C125.624 199.037 115.88 197.858 106.544 196.799C70.1533 192.671 51.4612 182.929 49.0627 173.782L3.49658 175.325L0 347C0 350.02 10.5273 353.011 30.981 355.802C41.2908 357.208 58.9229 356.654 78.7161 356.032H78.7183H78.7205H78.7227C98.1948 355.42 119.759 354.743 138.5 355.802C155.552 356.765 175.155 362.771 196.071 369.18C221.514 376.975 248.9 385.366 276 386C300.858 386.582 320.342 382.523 340.382 378.349C360.15 374.231 380.458 370 407 370C433.341 370 459.373 374.167 484.913 378.255C511.195 382.462 536.957 386.586 562 386C589.645 385.353 611.475 381.085 631.967 377.078C648.079 373.928 663.365 370.94 680 370C707.051 368.471 737.677 363.287 760.402 359.439L760.421 359.436L760.454 359.431C769.456 357.907 777.216 356.593 783.019 355.802C792.171 354.553 799.436 354.265 804.669 354.058C811.133 353.802 814.5 353.669 814.5 352H814.488L817.389 209.576L818.058 176.718L772.491 178.261L614.056 183.625L586.366 182.399L586.347 182.392L544.741 180.548C542.914 183.314 537.277 184.891 525.313 184.818C501.358 184.671 453.42 179.361 424.586 170.648L348.143 161.123C332.78 163.312 314.909 164.567 297.763 164.462C262.469 164.247 236.928 158.562 222.06 150.703L191.417 148.829C189.889 151.844 185.981 154.813 180.424 157.475C186.694 158.32 192.947 159.26 199.141 160.303C211.846 162.443 224.237 165.737 235.236 169.624L276.842 171.469C278.67 168.702 284.307 167.125 296.27 167.198C320.225 167.345 368.164 172.656 396.998 181.368L473.44 190.893C488.804 188.704 506.674 187.449 523.82 187.554C559.114 187.77 584.655 193.454 599.523 201.313L630.167 203.187C631.694 200.172 635.603 197.204 641.16 194.541C655.869 187.494 681.979 182.602 705.362 184.807C725.188 186.68 744.606 189.307 758.716 193.036C771.945 196.533 780.537 201.007 780.42 206.744C780.418 206.851 780.415 206.958 780.41 207.064C780.403 207.251 780.391 207.436 780.375 207.62L780.356 207.817C780.337 208 780.314 208.181 780.286 208.36ZM448.852 231.84C499.361 232.149 556.579 243.119 539.86 254.847C539.515 255.089 539.167 255.33 538.818 255.569C538.491 255.794 538.162 256.017 537.831 256.239C517.507 269.892 491.453 278.44 447.938 276.734C439.047 276.386 431.075 275.965 423.91 275.464C378.367 272.276 365.466 265.816 356.93 253.728C348.25 241.442 398.343 231.531 448.852 231.84ZM228.478 214.88C301.26 223.078 318.573 229.947 334.771 239.555C357.223 252.875 330.788 261.868 207.337 252.657C143.894 247.923 108.048 238.415 101.044 227.983C92.2085 214.81 167.416 208.001 228.478 214.88ZM104.569 269.52C119.488 262.042 183.248 250.511 282.493 262.615C306.917 265.593 330.584 268.111 351.907 270.38L351.91 270.38L351.913 270.381L351.915 270.381L351.918 270.382L351.921 270.382C375.847 272.928 396.819 275.159 412.591 277.374C433.071 280.25 444.781 283.097 442.801 286.566C438.84 293.507 386.075 294.068 315.516 293.756C305.37 293.711 294.855 293.648 284.064 293.583C277.757 293.546 271.354 293.507 264.876 293.472C125.238 292.698 81.8457 280.904 104.569 269.52ZM82.4146 333.092C51.4021 329.296 29.5803 322.307 24.6475 314.598C13.3896 297.005 69.6919 288.77 133.232 294.439C180.544 298.662 214.106 302.086 230.328 308.131C236.22 310.327 239.824 312.869 240.969 315.921C246.479 330.594 191.401 336.44 131.659 336.075C113.736 335.965 97.0518 334.884 82.4146 333.092ZM429.375 333.361C332.044 335.651 268.873 324.687 252.668 311.872C249.281 309.194 247.445 307.037 247.072 305.306C245.861 299.697 260.003 298.555 286.514 298.65C295.137 298.681 305.068 298.842 316.205 299.024H316.211H316.219H316.226H316.236C331.636 299.275 349.34 299.563 369.078 299.594C389.87 299.63 482.45 306.068 522.707 313.524C619.965 331.531 544.874 332.173 473.773 332.782H473.759C458.149 332.916 442.733 333.048 429.375 333.361ZM463.063 289.763C478.184 280.943 529.721 264.992 580.11 272.606C600.903 275.749 623.169 277.777 642.647 279.552C676.816 282.665 702.41 284.996 696.43 291.191C687.667 300.267 645.282 303.43 587.214 307.763L579.383 308.348C527.845 312.207 449.118 297.897 463.063 289.763ZM681.894 339.026C603.623 334.906 603.545 334.837 590.099 322.874L589.309 322.172C579.61 313.565 628.89 303.654 682.557 306.454C733.164 309.095 762.898 314.955 775.143 323.308C793.76 335.999 732.486 341.689 681.894 339.026ZM629.198 268.403L629.111 268.397L629.094 268.396C568.701 264.405 558.855 263.754 558.786 252.703C558.785 252.505 558.787 252.304 558.792 252.099C559.083 239.901 587.535 228.996 669.532 234.014C670.722 234.087 671.924 234.164 673.138 234.243C734.679 238.283 747.781 240.883 786.728 253.493C810.717 261.258 733.64 275.731 672.382 271.349C655.697 270.155 641.415 269.211 629.198 268.403ZM367.5 352.5C367.5 362.441 323.302 379 280.5 379C237.698 379 197 358.941 197 349C197 339.059 222.698 336 265.5 336C308.302 336 367.5 342.559 367.5 352.5ZM547.455 377C609.712 377 674 363.522 674 355.43C674 347.339 587.894 342 525.636 342C463.379 342 426 344.49 426 352.581C426 360.673 485.197 377 547.455 377Z" fill="#7AD0FC"/>
</svg>
