<svg width="317" height="226" viewBox="0 0 317 226" fill="none" xmlns="http://www.w3.org/2000/svg">
<ellipse cx="163" cy="159" rx="135" ry="10" fill="black" fill-opacity="0.04"/>
<path d="M237.299 118.251L283.84 114.899L283.924 116.462C284.116 120.02 287.003 123.012 290.718 123.081C294.979 123.16 298.376 119.715 298.161 115.734L295.97 75.109C295.778 71.5499 292.891 68.5583 289.176 68.4898C284.915 68.4109 281.518 71.855 281.733 75.8357L281.833 77.6958L235.292 81.0484C235.292 81.0484 233.687 51.286 209.124 53.0553L33.2495 65.7243C31.142 65.8762 29.084 66.4602 27.2297 67.4527C22.7661 69.8656 15.6512 75.3579 16.2046 85.6261L19.4152 145.151C19.9901 155.816 28.2192 160.166 32.8363 161.787C34.5692 162.397 36.4238 162.6 38.2723 162.466L214.34 149.784C238.904 148.014 237.299 118.251 237.299 118.251Z" fill="#D2E7F4"/>
<path d="M272.427 110.618L260.944 111.237L260.783 111.246L249.3 111.865L247.33 145.715L279.226 143.995L272.427 110.618Z" fill="#D2BE79"/>
<path d="M264.378 161.149L264.539 161.14L282.533 160.17L279.227 143.995L247.331 145.715L246.384 162.119L264.378 161.149Z" fill="#D2BE79"/>
</svg>
