<svg width="129" height="277" viewBox="0 0 129 277" fill="none" xmlns="http://www.w3.org/2000/svg">
<path d="M39.79 275.01C37.69 269.89 36.15 261.16 36.15 261.16C44.83 249.8 64.03 199.61 69.32 185.53C68.85 185.54 68.79 184.94 70.29 182.59H70.28C70.36 182.47 70.45 182.36 70.55 182.26C70.65 181.99 70.7 181.85 70.7 181.85C70.82 181.46 70.93 181.04 71.05 180.62C70.86 180.66 68.28 181.1 71.06 178.38H71.05C71.25 178.19 71.49 178.07 71.75 177.99C77.17 156.52 83.78 108.27 83.92 107.25V107.22C83.92 107.22 83.92 107.23 83.92 107.25V107.21C83.92 107.21 83.44 104.42 86.98 104.47H87C90.72 103.72 104.02 109.32 104.02 109.32C124.1 122.86 121.37 124.52 120.02 124.7C118.17 129.9 109.62 154.02 108.8 158.09C108.8 158.09 102.58 177.1 99.32 184.16C99.67 185.29 99.43 187.02 98.13 187.22C98.49 188.04 99.85 191.53 96.84 190.42C93.35 200.13 85.55 222.66 82.21 239.24C82.21 239.24 78.78 258.82 76.18 271.16C78.29 270.39 80.4 269.64 82.54 269C87.89 267.4 93.4 266.49 98.96 265.99L128.23 113.68C132.88 89.5 103.71 83.34 103.71 83.34L112.52 37.52L114.05 37.84C117.54 38.58 121.17 36.56 122.2 32.99C123.38 28.89 120.93 24.72 117.03 23.9L113.13 23.08L102.47 55.27L91.22 52.9L91.06 52.87L79.81 50.5L81.88 16.5L77.22 15.52C73.73 14.78 70.1 16.8 69.07 20.37C67.89 24.47 70.34 28.64 74.24 29.46L76.06 29.84L67.25 75.66C67.25 75.66 38.09 69.51 33.44 93.69L0.17 266.84C0.09 267.24 0.05 267.64 0 268.04C1.61 267.93 3.23 267.87 4.85 267.9C16.68 268.14 28.23 272.55 39.79 275V275.01Z" fill="#DEF2FF"/>
<path d="M51.4701 274.71C51.4701 274.71 48.5501 273.53 46.8501 272C46.1201 273.25 45.6701 274.02 45.6701 274.02C45.5101 274.8 45.3101 275.43 45.0801 275.96C48.7101 276.5 52.3501 276.75 56.0001 276.53C54.4001 275.95 52.8501 275.33 51.4401 274.68C51.4501 274.68 51.4601 274.7 51.4701 274.71Z" fill="#D2E7F4"/>
<path d="M113.14 23.07L81.8901 16.48L113.14 23.07Z" fill="#B6A775"/>
<path d="M91.0701 52.85L91.2201 52.89L102.48 55.26L113.14 23.07L81.8901 16.48L79.8101 50.48L91.0701 52.85Z" fill="#D7C380"/>
<path d="M113.14 23.07L118.3 7.47L100.67 3.75L100.51 3.72L82.8799 0L81.8799 16.48H81.8899L113.14 23.07Z" fill="#EAD58E"/>
<path d="M79.24 177.62L79.46 177.01L83.92 107.24C83.78 108.26 77.17 156.51 71.75 177.98C71.99 177.91 72.24 177.87 72.49 177.84C73.7 177.72 76.17 177.43 79.24 177.62Z" fill="#DAE5EC"/>
<path d="M46.8502 272.01C46.5202 271.71 46.2302 271.4 46.0202 271.08L49.6802 260.8L49.8902 260.22C49.8902 260.22 49.8902 260.24 49.8902 260.25L77.4902 182.58C75.1402 182.83 72.8602 183.48 70.9102 184.74C70.9102 184.74 69.8602 185.53 69.3302 185.54C64.0402 199.61 44.8402 249.81 36.1602 261.17C36.1602 261.17 37.7002 269.9 39.8002 275.02C41.5602 275.39 43.3202 275.72 45.0902 275.98C45.3202 275.45 45.5302 274.81 45.6802 274.04C45.6802 274.04 46.1302 273.27 46.8602 272.02L46.8502 272.01Z" fill="#DAE5EC"/>
<path d="M75.3298 180.17C73.8798 180.1 72.4498 180.22 71.0698 180.61C71.0698 180.61 71.0598 180.61 71.0498 180.61C70.9298 181.03 70.8098 181.45 70.6998 181.84C70.6998 181.84 70.6498 181.98 70.5498 182.25C70.8198 181.98 71.1698 181.79 71.5198 181.64C72.2898 181.31 73.6098 180.73 75.3398 180.16L75.3298 180.17Z" fill="#C9D3D9"/>
<path d="M102.42 112.78C104.67 113.97 106.67 115.22 108.32 116.36L120.38 123.68C120.38 123.68 120.25 124.05 120.02 124.69C121.37 124.5 124.1 122.85 104.02 109.31C104.02 109.31 90.72 103.7 87 104.46L102.08 112.57L102.42 112.78Z" fill="#DAE5EC"/>
<path d="M102.42 112.78L108.32 116.36C106.67 115.22 104.67 113.97 102.42 112.78Z" fill="#C9D3D9"/>
<path d="M76.1702 271.15C78.7802 258.81 82.2002 239.23 82.2002 239.23C85.5402 222.66 93.3302 200.13 96.8302 190.41C96.0902 190.14 95.0902 189.6 93.7502 188.67C93.5502 188.53 93.3202 188.39 93.1302 188.23C92.3702 187.55 89.9202 185.65 86.6702 183.86C86.0402 194.04 81.0902 202.01 81.0902 202.01C74.3002 212.62 82.5202 193.72 82.5202 193.72C84.6302 188.18 84.5802 183.82 84.6202 182.89C84.6202 182.87 84.6202 182.84 84.6302 182.82C84.2102 182.76 83.7802 182.7 83.3402 182.65L82.1302 185.56C82.1302 185.56 64.4202 236.48 62.1502 243.13C60.6602 247.51 58.0702 254.15 58.0702 254.15C55.7102 257.29 51.5702 264.09 48.7202 268.86C48.8902 271.27 49.6502 273.4 51.4402 274.7C52.8502 275.35 54.4002 275.97 56.0002 276.55C57.2802 276.47 58.5602 276.34 59.8402 276.14C65.4802 275.26 70.8002 273.13 76.1702 271.16V271.15Z" fill="#DAE5EC"/>
<path d="M98.5498 127.2C94.9498 131.16 87.5698 172.46 87.5698 172.46L85.0498 178.54C85.0498 178.54 85.0998 178.55 85.1298 178.56C89.1398 178.6 93.5998 179.59 97.9698 182.51C98.3898 182.79 98.7598 183.16 99.0498 183.57C99.1598 183.73 99.2598 183.93 99.3298 184.16C102.58 177.1 108.81 158.09 108.81 158.09C109.63 154.03 118.18 129.9 120.03 124.7C119.78 124.73 119.58 124.72 119.58 124.72C114.89 124.87 112.67 121.98 112.67 121.98C110.49 120.01 101.47 117.99 101.47 117.99C97.1898 116.72 91.6298 111.07 91.6298 111.07C86.6398 108.52 90.2698 110.77 90.2698 110.77L89.8598 112.78L88.0898 111.11L87.5198 108.03H87.4998C87.4998 108.03 87.5098 108.03 87.5198 108.03C85.5898 105.75 85.7398 104.74 87.0198 104.48H86.9998C83.4598 104.42 83.9398 107.21 83.9398 107.21V107.25L97.2598 119.76C102.82 124.58 98.5498 127.21 98.5498 127.21V127.2Z" fill="#DAE5EC"/>
<path d="M82.9301 183.02H82.9201C82.9201 183.02 82.8901 183.06 82.8701 183.1C82.5801 183.42 81.0901 184.81 79.9301 187.42C79.9301 187.42 76.2701 196.64 77.6101 190.66C77.6101 190.66 78.6901 186.11 82.0101 182.52C80.5201 182.41 78.9901 182.41 77.4901 182.58L49.8901 260.25C49.8401 260.44 49.7901 260.63 49.7401 260.82H49.7301C49.0601 263.38 48.5601 266.28 48.7401 268.85C51.5801 264.08 55.7301 257.28 58.0901 254.14C58.0901 254.14 60.6801 247.5 62.1701 243.12C64.4401 236.48 82.1501 185.55 82.1501 185.55L83.3601 182.64C83.2901 182.64 83.2301 182.62 83.1601 182.62C83.0701 182.8 82.9901 182.95 82.9501 183.02H82.9301Z" fill="#DAE5EC"/>
<path d="M79.2402 177.62C81.0102 177.73 82.9902 177.99 85.0402 178.53L87.5602 172.45C87.5602 172.45 94.9402 131.15 98.5402 127.19C98.5402 127.19 102.8 124.56 97.2502 119.74L83.9202 107.23L79.4602 177L79.2402 177.61V177.62Z" fill="#DAE5EC"/>
<path d="M108.32 116.36C111.53 118.58 113.44 120.36 113.44 120.36L87.5098 108.02L88.0798 111.1L89.8498 112.77L90.2598 110.76C90.2598 110.76 86.6298 108.51 91.6198 111.06C91.6198 111.06 97.1798 116.71 101.46 117.98C101.46 117.98 110.48 120 112.66 121.97C112.66 121.97 114.88 124.86 119.57 124.71C119.57 124.71 119.77 124.73 120.02 124.69C120.25 124.05 120.38 123.68 120.38 123.68L108.32 116.36Z" fill="#DAE5EC"/>
<path d="M87.5098 108C93.0298 108.55 98.1798 110.55 102.42 112.78L102.08 112.57L86.9998 104.46C85.7198 104.72 85.5698 105.73 87.4998 108H87.5098Z" fill="#DAE5EC"/>
<path d="M108.32 116.36L102.42 112.78C98.1798 110.55 93.0298 108.55 87.5098 108.01L113.44 120.36C113.44 120.36 111.53 118.58 108.32 116.36Z" fill="#DAE5EC"/>
<path d="M97.9901 187.22C97.7001 188.02 97.3001 189.1 96.8301 190.41C99.8501 191.51 98.4801 188.03 98.1201 187.21C98.0801 187.21 98.0301 187.21 97.9901 187.22Z" fill="#D8687B"/>
<path d="M71.0602 178.37H71.0702C68.2902 181.1 70.8702 180.65 71.0602 180.62C71.2902 179.79 71.5202 178.92 71.7602 177.98C71.5002 178.06 71.2602 178.18 71.0602 178.37Z" fill="#D8687B"/>
<path d="M75.3298 180.17C76.3198 179.84 77.4398 179.52 78.6598 179.25L79.2398 177.62C76.1598 177.43 73.6898 177.72 72.4898 177.84C72.2398 177.86 71.9898 177.9 71.7498 177.98C71.5098 178.91 71.2798 179.79 71.0498 180.62H71.0698C72.4498 180.23 73.8798 180.11 75.3298 180.18V180.17Z" fill="#D8687B"/>
<path d="M85.12 178.55C85.12 178.55 85.07 178.54 85.04 178.53V178.55C85.04 178.55 85.09 178.55 85.12 178.55Z" fill="#D8687B"/>
<path d="M94.8199 185.7C94.6199 185.53 94.3299 185.57 94.0999 185.46C93.1899 185.03 90.3199 183.93 86.7099 183.18C86.7099 183.21 86.7099 183.23 86.7099 183.26C86.7099 183.46 86.6799 183.64 86.6699 183.84C89.9199 185.63 92.3699 187.54 93.1299 188.21C93.3199 188.38 93.5499 188.51 93.7499 188.65C95.0899 189.58 96.0899 190.12 96.8299 190.39C97.2999 189.08 97.6999 188 97.9899 187.2C97.2599 187.25 96.2299 186.86 94.8199 185.68V185.7Z" fill="#D8687B"/>
<path d="M85.0399 178.55V178.53C82.9899 177.99 81.0199 177.72 79.2499 177.62L78.6699 179.25C80.5799 178.83 82.7299 178.53 85.0399 178.55Z" fill="#D8687B"/>
<path d="M98.0601 187.05C98.0601 187.05 98.0901 187.12 98.1301 187.21C99.4301 187 99.6701 185.28 99.3201 184.15C99.0601 184.72 98.8101 185.23 98.5901 185.63C98.5901 185.63 98.4001 186.13 98.0601 187.06V187.05Z" fill="#D8687B"/>
<path d="M70.2798 182.59H70.2899C68.7999 184.95 68.8498 185.55 69.3198 185.54C69.9098 183.96 70.3299 182.83 70.5399 182.27C70.4399 182.37 70.3498 182.47 70.2698 182.59H70.2798Z" fill="#D8687B"/>
<path d="M77.4798 182.58L78.1998 180.56C77.2498 180.36 76.2898 180.23 75.3298 180.18C73.6098 180.75 72.2798 181.33 71.5098 181.66C71.1598 181.81 70.8198 182 70.5398 182.27C70.3298 182.83 69.9098 183.96 69.3198 185.54C69.8498 185.53 70.8998 184.74 70.8998 184.74C72.8498 183.49 75.1298 182.84 77.4798 182.58Z" fill="#D8687B"/>
<path d="M83.4898 182.28L83.3398 182.64C83.7698 182.69 84.2098 182.74 84.6298 182.81C84.6298 182.81 84.6298 182.81 84.6298 182.8C84.2598 182.62 83.8798 182.45 83.4898 182.28Z" fill="#D8687B"/>
<path d="M97.9601 182.5C93.5901 179.59 89.1401 178.6 85.1201 178.55C89.4801 179.72 94.1901 182.16 98.0501 187.03C98.0501 187.03 98.0501 187.03 98.0501 187.04C98.3901 186.12 98.5801 185.61 98.5801 185.61C98.8001 185.21 99.0501 184.71 99.3101 184.13C99.2401 183.91 99.1501 183.7 99.0301 183.54C98.7301 183.13 98.3701 182.76 97.9501 182.48L97.9601 182.5Z" fill="#D8687B"/>
<path d="M83.3401 182.22C83.2701 182.36 83.2101 182.5 83.1401 182.63C83.2101 182.63 83.2701 182.64 83.3401 182.65L83.4901 182.29C83.4401 182.27 83.3901 182.25 83.3401 182.22Z" fill="#D8687B"/>
<path d="M82 182.52C82 182.52 82.04 182.48 82.06 182.46C82.26 182.24 82.44 182.07 82.59 181.91C81.18 181.34 79.7 180.87 78.2 180.56L77.48 182.58C78.98 182.42 80.5 182.42 82 182.52Z" fill="#D8687B"/>
<path d="M97.9902 187.22C97.9902 187.22 98.0802 187.22 98.1202 187.21C98.0802 187.12 98.0602 187.07 98.0502 187.05C98.0302 187.1 98.0102 187.17 97.9902 187.22Z" fill="#D8687B"/>
<path d="M75.3301 180.17C76.2801 180.22 77.2401 180.35 78.2001 180.55L78.6601 179.25C77.4401 179.52 76.3201 179.84 75.3301 180.17Z" fill="#D8687B"/>
<path d="M83.4902 182.28C83.8802 182.45 84.2602 182.62 84.6302 182.8C84.6302 182.77 84.6402 182.74 84.6502 182.69H84.6602C84.9102 181.75 87.0902 174.74 86.7202 183.19C90.3202 183.94 93.1902 185.04 94.1102 185.47C94.3302 185.58 94.6302 185.54 94.8302 185.71C96.2402 186.89 97.2702 187.28 98.0002 187.23C98.0202 187.18 98.0402 187.11 98.0602 187.06V187.05C94.2002 182.17 89.4902 179.74 85.1302 178.57C85.1002 178.57 85.0702 178.57 85.0402 178.57L83.4902 182.3V182.28Z" fill="#D8687B"/>
<path d="M83.34 182.22C83.39 182.24 83.44 182.26 83.49 182.29L85.04 178.56C82.73 178.54 80.57 178.84 78.67 179.26L78.21 180.56C79.71 180.87 81.18 181.35 82.6 181.91C83.97 180.56 83.71 181.43 83.35 182.22H83.34Z" fill="#D8687B"/>
<path d="M84.6298 182.81C84.6298 182.81 84.6298 182.86 84.6198 182.88C84.5798 183.81 84.6398 188.17 82.5198 193.71C82.5198 193.71 74.2998 212.61 81.0898 202C81.0898 202 86.0398 194.03 86.6698 183.85C86.0298 183.5 85.3598 183.15 84.6698 182.82C84.6498 182.82 84.6398 182.82 84.6198 182.82L84.6298 182.81Z" fill="#D8687B"/>
<path d="M86.7199 183.19C86.0599 183.05 85.3799 182.93 84.6699 182.82C85.3599 183.15 86.0299 183.5 86.6699 183.85C86.6799 183.66 86.6999 183.47 86.7099 183.27C86.7099 183.24 86.7099 183.22 86.7099 183.19H86.7199Z" fill="#D8687B"/>
<path d="M84.6299 182.8C84.6299 182.8 84.6299 182.8 84.6299 182.81C84.6499 182.81 84.6599 182.81 84.6799 182.81C84.6699 182.81 84.6499 182.8 84.6399 182.79L84.6299 182.8Z" fill="#D8687B"/>
<path d="M84.6599 182.68H84.6499C84.6499 182.73 84.6399 182.76 84.6299 182.8C84.6399 182.8 84.6599 182.81 84.6699 182.82C85.3699 182.93 86.0499 183.05 86.7199 183.19C87.0899 174.74 84.9199 181.76 84.6599 182.68Z" fill="#D8687B"/>
<path d="M77.5998 190.66C76.2698 196.65 79.9198 187.42 79.9198 187.42C81.0798 184.81 82.5698 183.42 82.8598 183.1C82.8798 183.06 82.9098 183.02 82.9098 183.02H82.9198C82.9598 182.95 83.0398 182.8 83.1298 182.62C82.7498 182.58 82.3698 182.54 81.9898 182.52C78.6698 186.11 77.5898 190.66 77.5898 190.66H77.5998Z" fill="#D8687B"/>
<path d="M82.06 182.45C82.06 182.45 82.02 182.49 82 182.51C82.38 182.54 82.77 182.57 83.14 182.61C83.2 182.49 83.27 182.35 83.34 182.2C83.09 182.09 82.84 181.99 82.59 181.89C82.43 182.05 82.26 182.22 82.06 182.44V182.45Z" fill="#D8687B"/>
<path d="M82.5898 181.9C82.8398 182 83.0898 182.1 83.3398 182.21C83.6998 181.42 83.9598 180.55 82.5898 181.9Z" fill="#D8687B"/>
<path d="M46.8501 272.01C48.5501 273.54 51.4701 274.72 51.4701 274.72C51.4601 274.72 51.4501 274.7 51.4401 274.69C49.5701 273.82 47.9601 272.9 46.8801 271.95C46.8701 271.97 46.8601 271.99 46.8501 272V272.01Z" fill="#618477"/>
<path d="M49.6699 260.79L49.6799 260.8L49.6699 260.79Z" fill="#618477"/>
<path d="M46.04 271.06L49.68 260.81V260.8L46.02 271.08C46.23 271.4 46.52 271.71 46.85 272.01C46.86 271.99 46.87 271.97 46.88 271.96C46.54 271.67 46.26 271.37 46.03 271.07L46.04 271.06Z" fill="#618477"/>
<path d="M51.4399 274.69C49.6499 273.39 48.8899 271.26 48.7199 268.85C48.0099 270.04 47.3799 271.1 46.8799 271.95C47.9599 272.89 49.5599 273.82 51.4399 274.69Z" fill="#618477"/>
<path d="M49.71 260.82H49.68L46.04 271.07C46.26 271.37 46.55 271.66 46.89 271.96C47.39 271.11 48.02 270.05 48.73 268.86C48.55 266.29 49.05 263.39 49.72 260.83L49.71 260.82Z" fill="#618477"/>
<path d="M49.8799 260.25C49.8799 260.25 49.8799 260.23 49.8799 260.22L49.6699 260.8L49.8699 260.25H49.8799Z" fill="#8EB5A8"/>
<path d="M49.7202 260.8C49.7202 260.8 49.7202 260.8 49.7202 260.81H49.7302C49.7902 260.62 49.8302 260.43 49.8802 260.24L49.6802 260.79H49.7102L49.7202 260.8Z" fill="#8EB5A8"/>
<path d="M49.6899 260.8L49.7199 260.82C49.7199 260.82 49.7199 260.82 49.7199 260.81H49.6899V260.8Z" fill="#8EB5A8"/>
</svg>
