<svg width="500" height="1080" viewBox="0 0 500 1080" fill="none" xmlns="http://www.w3.org/2000/svg">
<g clip-path="url(#clip0_779_518)">
<rect width="500" height="1080" fill="#FEF0ED"/>
<g filter="url(#filter0_f_779_518)">
<path d="M112.74 700.598L112.742 700.594L112.764 700.546C112.771 700.528 112.781 700.507 112.792 700.483C112.817 700.428 112.851 700.354 112.893 700.263C113.015 700 113.21 699.59 113.478 699.053C114.015 697.976 114.846 696.391 115.983 694.442C118.262 690.535 121.744 685.208 126.522 679.596C136.106 668.338 150.625 656.245 170.846 651.749C190.534 647.372 211.929 656.773 227.511 674.951C243.004 693.026 251.847 718.869 246.806 745.304C236.595 798.855 191.91 838.61 148.261 865.308C126.597 878.558 105.561 888.363 89.929 894.855C82.12 898.099 75.6776 900.508 71.203 902.102C69.6944 902.639 68.4101 903.083 67.3732 903.435C66.4541 902.749 65.308 901.882 63.9607 900.841C60.0858 897.849 54.5517 893.424 47.9712 887.735C34.7973 876.347 17.4947 859.952 0.923789 839.899C-32.435 799.53 -61.7375 745.69 -50.842 688.549C-45.3243 659.612 -26.5609 638.617 -4.49206 628.147C17.6962 617.621 42.4763 618.013 60.3671 630.633C77.8163 642.943 87.8405 659.903 93.5153 674.034C96.3436 681.077 98.0561 687.332 99.0573 691.801C99.5571 694.033 99.8776 695.81 100.071 697.007C100.167 697.605 100.231 698.057 100.27 698.348C100.29 698.493 100.303 698.597 100.311 698.66L100.317 698.716L100.318 698.72L100.318 698.721L100.318 698.724L100.319 698.727L102.989 723.077L112.737 700.605L112.739 700.602L112.739 700.6L112.74 700.598Z" stroke="#FF6363" stroke-width="13"/>
</g>
<g filter="url(#filter1_f_779_518)">
<path d="M437.76 779.198L437.759 779.194L437.755 779.179C437.745 779.146 437.728 779.086 437.704 778.999C437.657 778.823 437.582 778.54 437.489 778.158C437.304 777.392 437.047 776.234 436.788 774.752C436.269 771.781 435.751 767.558 435.773 762.634C435.816 752.74 438.024 740.428 446.304 729.561C454.122 719.301 468.677 714.834 484.436 717.398C500.061 719.94 515.599 729.28 524.336 744.809C542.283 776.707 536.662 816.701 525.608 849.952C520.14 866.398 513.479 880.782 508.175 891.062C505.527 896.195 503.227 900.288 501.597 903.084C501.287 903.617 501 904.103 500.741 904.54C500.191 904.569 499.576 904.599 498.898 904.628C495.566 904.772 490.733 904.9 484.793 904.829C472.897 904.688 456.649 903.75 439.187 900.585C403.928 894.195 365.423 879.054 346.262 844.998C336.67 827.949 337.204 809.278 343.913 794.53C350.677 779.662 363.323 769.477 377.433 768.253C391.549 767.029 403.942 771.338 412.977 776.133C417.472 778.52 421.054 780.985 423.493 782.837C424.71 783.762 425.635 784.528 426.239 785.047C426.541 785.306 426.762 785.503 426.899 785.627C426.967 785.689 427.014 785.733 427.04 785.756L427.054 785.77L427.057 785.772L427.06 785.775L427.06 785.776L427.062 785.777L444.803 802.662L437.762 779.206L437.762 779.203L437.76 779.198Z" stroke="#FF6363" stroke-width="13"/>
</g>
</g>
<defs>
<filter id="filter0_f_779_518" x="-93.1599" y="580.678" width="381.387" height="363.477" filterUnits="userSpaceOnUse" color-interpolation-filters="sRGB">
<feFlood flood-opacity="0" result="BackgroundImageFix"/>
<feBlend mode="normal" in="SourceGraphic" in2="BackgroundImageFix" result="shape"/>
<feGaussianBlur stdDeviation="16.75" result="effect1_foregroundBlur_779_518"/>
</filter>
<filter id="filter1_f_779_518" x="298.956" y="676.695" width="276.952" height="268.154" filterUnits="userSpaceOnUse" color-interpolation-filters="sRGB">
<feFlood flood-opacity="0" result="BackgroundImageFix"/>
<feBlend mode="normal" in="SourceGraphic" in2="BackgroundImageFix" result="shape"/>
<feGaussianBlur stdDeviation="16.75" result="effect1_foregroundBlur_779_518"/>
</filter>
<clipPath id="clip0_779_518">
<rect width="500" height="1080" fill="white"/>
</clipPath>
</defs>
</svg>
