<svg width="202" height="269" viewBox="0 0 202 269" fill="none" xmlns="http://www.w3.org/2000/svg">
<g filter="url(#filter0_f_802_904)">
<path d="M139.76 103.198L139.759 103.194L139.755 103.179C139.745 103.146 139.728 103.086 139.704 102.999C139.657 102.823 139.582 102.54 139.489 102.158C139.304 101.392 139.047 100.234 138.788 98.7523C138.269 95.7809 137.751 91.5584 137.773 86.6336C137.816 76.7403 140.024 64.4278 148.304 53.5614C156.122 43.3013 170.677 38.8343 186.436 41.3978C202.061 43.9395 217.599 53.28 226.336 68.8088C244.283 100.707 238.662 140.701 227.608 173.952C222.14 190.398 215.479 204.782 210.175 215.062C207.527 220.195 205.227 224.288 203.597 227.084C203.287 227.617 203 228.103 202.741 228.54C202.191 228.569 201.576 228.599 200.898 228.628C197.566 228.772 192.733 228.9 186.793 228.829C174.897 228.688 158.649 227.75 141.187 224.585C105.928 218.195 67.4229 203.054 48.2623 168.998C38.6703 151.949 39.2041 133.278 45.9132 118.53C52.6769 103.662 65.3235 93.4773 79.433 92.2532C93.5486 91.0287 105.942 95.3377 114.977 100.133C119.472 102.52 123.054 104.985 125.493 106.837C126.71 107.762 127.635 108.528 128.239 109.047C128.541 109.306 128.762 109.503 128.899 109.627C128.967 109.689 129.014 109.733 129.04 109.756L129.054 109.77L129.057 109.772L129.06 109.775L129.06 109.776L129.062 109.777L146.803 126.662L139.762 103.206L139.762 103.203L139.76 103.198Z" stroke="#FF6363" stroke-width="13"/>
</g>
<defs>
<filter id="filter0_f_802_904" x="0.956055" y="0.694824" width="276.952" height="268.154" filterUnits="userSpaceOnUse" color-interpolation-filters="sRGB">
<feFlood flood-opacity="0" result="BackgroundImageFix"/>
<feBlend mode="normal" in="SourceGraphic" in2="BackgroundImageFix" result="shape"/>
<feGaussianBlur stdDeviation="16.75" result="effect1_foregroundBlur_802_904"/>
</filter>
</defs>
</svg>
