<svg width="289" height="365" viewBox="0 0 289 365" fill="none" xmlns="http://www.w3.org/2000/svg">
<g filter="url(#filter0_f_779_546)">
<path d="M112.74 120.598L112.742 120.594L112.764 120.546C112.771 120.528 112.781 120.507 112.792 120.483C112.817 120.428 112.851 120.354 112.893 120.263C113.015 120 113.21 119.59 113.478 119.053C114.015 117.976 114.846 116.391 115.983 114.442C118.262 110.535 121.744 105.208 126.522 99.5956C136.106 88.3383 150.625 76.2451 170.846 71.7493C190.534 67.3719 211.929 76.7728 227.511 94.9512C243.004 113.026 251.847 138.869 246.806 165.304C236.595 218.855 191.91 258.61 148.261 285.308C126.597 298.558 105.561 308.363 89.929 314.855C82.12 318.099 75.6776 320.508 71.203 322.102C69.6944 322.639 68.4101 323.083 67.3732 323.435C66.4541 322.749 65.308 321.882 63.9607 320.841C60.0858 317.849 54.5517 313.424 47.9712 307.735C34.7973 296.347 17.4947 279.952 0.923789 259.899C-32.435 219.53 -61.7375 165.69 -50.842 108.549C-45.3243 79.6118 -26.5609 58.6167 -4.49206 48.1472C17.6962 37.6211 42.4763 38.0126 60.3671 50.6334C77.8163 62.9427 87.8405 79.9035 93.5153 94.0343C96.3436 101.077 98.0561 107.332 99.0573 111.801C99.5571 114.033 99.8776 115.81 100.071 117.007C100.167 117.605 100.231 118.057 100.27 118.348C100.29 118.493 100.303 118.597 100.311 118.66L100.317 118.716L100.318 118.72L100.318 118.721L100.318 118.724L100.319 118.727L102.989 143.077L112.737 120.605L112.739 120.602L112.739 120.6L112.74 120.598Z" stroke="#FF6363" stroke-width="13"/>
</g>
<defs>
<filter id="filter0_f_779_546" x="-93.1599" y="0.677734" width="381.387" height="363.477" filterUnits="userSpaceOnUse" color-interpolation-filters="sRGB">
<feFlood flood-opacity="0" result="BackgroundImageFix"/>
<feBlend mode="normal" in="SourceGraphic" in2="BackgroundImageFix" result="shape"/>
<feGaussianBlur stdDeviation="16.75" result="effect1_foregroundBlur_779_546"/>
</filter>
</defs>
</svg>
