<svg width="127" height="246" viewBox="0 0 127 246" fill="none" xmlns="http://www.w3.org/2000/svg">
<path d="M95.7115 49.2468C97.1834 56.0303 99.4487 61.8918 101.881 65.8822C103.101 67.8832 104.324 69.3488 105.454 70.2365C106.594 71.1323 107.469 71.3159 108.103 71.1652C108.737 71.0144 109.451 70.4535 110.109 69.1303C110.762 67.8191 111.26 65.9447 111.534 63.5887C112.081 58.8902 111.706 52.5795 110.234 45.7963C108.762 39.0128 106.496 33.1512 104.064 29.1607C102.844 27.1597 101.621 25.6942 100.491 24.8066C99.351 23.9108 98.4761 23.7272 97.8419 23.8779C97.2076 24.0286 96.4943 24.5895 95.8355 25.9127C95.1827 27.224 94.685 29.0983 94.4107 31.4543C93.8637 36.1528 94.2392 42.4634 95.7115 49.2468Z" stroke="#D9D9D9" stroke-width="3"/>
<path d="M84.6695 67.9596L91.8521 30.5906L93.1009 30.854C95.9447 31.454 98.9107 29.8115 99.7486 26.8992C100.71 23.5593 98.7143 20.157 95.5331 19.4859L63.0692 12.637C60.225 12.037 57.2594 13.6795 56.421 16.5919C55.4595 19.9318 57.4557 23.334 60.6366 24.0051L62.1231 24.3187L54.9405 61.6876C54.9405 61.6876 31.1573 56.67 27.3666 76.3925L0.224715 217.606C-0.100493 219.298 -0.0748709 221.042 0.315611 222.712C1.27415 226.738 4.0988 233.501 12.304 235.233L59.8706 245.268C68.3928 247.066 73.5559 241.501 75.808 238.207C76.6541 236.97 77.2048 235.553 77.4902 234.068L104.662 92.6997C108.453 72.9773 84.6695 67.9596 84.6695 67.9596Z" fill="#80AABD"/>
<path d="M65.1785 41.1619L74.3548 43.0976L74.4836 43.1249L83.6603 45.0607L92.3556 18.8122L66.868 13.4351L65.1785 41.1619Z" fill="#9E967B"/>
<path d="M82.176 3.06069L82.0472 3.03352L67.6683 0L66.8588 13.4387L92.3464 18.8158L96.5549 6.0942L82.176 3.06069Z" fill="#B2A886"/>
<path d="M69.4149 92.4604C69.4149 92.4604 62.0639 137.679 57.0813 153.034C57.0813 153.034 35.7941 206.384 27.2625 216.973C27.2625 216.973 29.2289 230.079 31.8244 231.275C31.8244 231.275 33.9096 231.369 34.7568 227.659C34.7568 227.659 42.0509 215.783 45.2794 211.701C45.2794 211.701 47.5263 206.342 48.8349 202.806C50.826 197.436 66.3234 156.291 66.3234 156.291L71.0247 145.726C71.0247 145.726 77.8994 112.213 80.9186 109.059C80.9186 109.059 84.4479 107.005 80.0179 102.96L69.4108 92.4811L69.4149 92.4604Z" fill="#9BC1D3"/>
<path d="M74.1156 97.1127L74.4903 95.4852C74.4903 95.4852 71.5786 93.5749 75.5922 95.7609C75.5922 95.7609 80.0055 100.483 83.4714 101.603C83.4714 101.603 90.7802 103.437 92.5151 105.088C92.5151 105.088 94.2604 107.487 98.0906 107.463C98.0906 107.463 104.812 108.169 85.7378 94.5856C85.7378 94.5856 66.3365 85.8153 72.3047 93.1773L72.7041 95.7133" fill="#9BC1D3"/>
<path d="M93.1944 103.793C93.1944 103.793 83.8346 94.6029 72.3003 93.1851L93.1944 103.793Z" fill="#C9D3D9"/>
<path d="M71.9556 90.2745C69.0693 90.1623 69.4034 92.4472 69.4034 92.4472L64.3086 149.267L35.1034 225.248C38.062 229.383 54.5391 233.572 54.5391 233.572C56.2847 235.97 57.6638 233.302 57.6638 233.302C59.4593 228.788 65.2517 200.047 65.2517 200.047C69.2616 182.456 79.7211 156.687 79.7211 156.687C82.222 152.419 88.6157 134.445 88.6157 134.445C89.4607 130.746 98.774 106.647 98.774 106.647L84.0898 97.2091" fill="#9BC1D3"/>
<path d="M57.4386 150.199C57.752 149.909 58.2001 149.831 58.6183 149.8C61.3924 149.586 72.2793 148.524 79.2659 157.829C79.2659 157.829 81.7786 163.478 75.7277 159.07C75.5653 158.949 75.3811 158.834 75.2323 158.695C73.8008 157.345 64.7556 150.166 57.4065 152.029C57.4065 152.029 55.037 152.447 57.4482 150.202L57.4386 150.199Z" fill="#D8687B"/>
<path d="M56.7208 153.623C56.9652 153.264 57.358 153.045 57.7485 152.89C60.3051 151.873 70.1887 147.716 79.2882 154.128C79.6253 154.362 79.9161 154.671 80.1498 155.012C80.9453 156.185 80.3953 159.957 76.6644 156.675C76.5061 156.533 76.2643 156.558 76.086 156.467C74.3463 155.592 63.7237 151.417 57.1867 155.385C57.1867 155.385 54.0435 157.627 56.7308 153.625L56.7208 153.623Z" fill="#D8687B"/>
<path d="M68.4268 154.01C68.415 154.073 68.4069 154.114 68.3969 154.166C68.3445 154.922 68.3006 158.477 66.4612 162.95C66.4612 162.95 59.3671 178.184 65.1267 169.678C65.1267 169.678 69.4962 163.039 70.1012 154.526C70.5995 147.535 68.6656 153.251 68.4386 154.002L68.4268 154.01Z" fill="#D8687B"/>
<path d="M67.0105 154.239C67.0105 154.239 66.9829 154.276 66.967 154.306C66.723 154.556 65.4786 155.665 64.4768 157.766C64.4768 157.766 61.3037 165.208 62.5148 160.355C62.5148 160.355 63.5008 156.62 66.3195 153.758C68.6277 151.405 67.2173 153.915 67.0205 154.241L67.0105 154.239Z" fill="#D8687B"/>
<path d="M38.3034 216.953L35.1093 225.255C36.0967 226.878 39.4769 228.337 39.4769 228.337C36.4861 226.086 37.1642 221.001 38.3329 216.96L38.2934 216.951L38.3034 216.953Z" fill="#618477"/>
<path d="M38.4794 216.481L38.2941 216.96L38.3339 216.968C38.3856 216.807 38.4273 216.643 38.4794 216.481Z" fill="#8EB5A8"/>
</svg>
