<svg width="101" height="72" viewBox="0 0 101 72" fill="none" xmlns="http://www.w3.org/2000/svg">
<path d="M57.8838 27.3594H55.8288C55.5713 27.3594 55.3463 27.6269 55.2738 28.0167L54.7738 30.7401C54.6663 31.3264 54.9438 31.9098 55.3288 31.9098H58.4238C58.8138 31.9098 59.0912 31.3121 58.9737 30.7231L58.4363 27.9997C58.3613 27.6183 58.1388 27.3594 57.8863 27.3594H57.8838Z" fill="#F2B656"/>
<path d="M57.5259 22.2368H56.1959C56.0309 22.2368 55.8834 22.5043 55.8384 22.8942L55.5134 25.6176C55.4434 26.2038 55.6234 26.7872 55.8709 26.7872H57.8734C58.1259 26.7872 58.3059 26.1896 58.2309 25.6005L57.8834 22.8771C57.8334 22.4958 57.6909 22.2368 57.5259 22.2368Z" fill="#F4BE5C"/>
<path d="M57.353 17.1143H56.628C56.538 17.1143 56.458 17.3818 56.433 17.7716L56.2555 20.495C56.218 21.0813 56.3155 21.6646 56.4505 21.6646H57.543C57.6805 21.6646 57.778 21.067 57.738 20.478L57.548 17.7546C57.5205 17.3732 57.443 17.1143 57.353 17.1143Z" fill="#F4C87D"/>
<path d="M59.1519 40.871H55.0419C54.5294 40.871 54.0769 41.3662 53.9344 42.0833L52.9319 47.1032C52.7169 48.1818 53.2719 49.2575 54.0394 49.2575H60.2269C61.0069 49.2575 61.5619 48.1562 61.3294 47.0691L60.2544 42.0492C60.1044 41.3463 59.6569 40.8682 59.1519 40.8682V40.871Z" fill="#F7BB5B"/>
<path d="M58.4245 32.4814H55.522C55.1595 32.4814 54.842 32.9339 54.7395 33.5884L54.032 38.173C53.8795 39.1576 54.272 40.1423 54.8145 40.1423H59.1845C59.7345 40.1423 60.127 39.1349 59.962 38.1445L59.202 33.56C59.0945 32.9168 58.7795 32.4814 58.4245 32.4814Z" fill="#F7BB5B"/>
<path d="M59.8489 49.9887H54.0465C53.3215 49.9887 52.684 50.4839 52.4815 51.201L51.0665 56.2209C50.7615 57.2995 51.544 58.3752 52.6315 58.3752H61.3689C62.4689 58.3752 63.2539 57.2739 62.9239 56.1868L61.4039 51.1668C61.1914 50.4639 60.5614 49.9858 59.8489 49.9858V49.9887Z" fill="#F7BB5B"/>
<path d="M57.0548 10H57.0573C57.778 10 58.3623 10.6651 58.3623 11.4855V15.0598C58.3623 15.8802 57.778 16.5453 57.0573 16.5453H57.0548C56.3341 16.5453 55.7498 15.8802 55.7498 15.0598V11.4855C55.7498 10.6651 56.3341 10 57.0548 10Z" fill="#F5B959"/>
<path d="M47.1633 33.6177H45.6221C45.4289 33.6177 45.2602 33.7967 45.2058 34.0576L44.8308 35.8803C44.7502 36.2726 44.9583 36.663 45.2471 36.663H47.5683C47.8608 36.663 48.0689 36.2631 47.9808 35.8688L47.5777 34.0462C47.5214 33.791 47.3546 33.6177 47.1652 33.6177H47.1633Z" fill="#F2B656"/>
<path d="M46.8948 30.1895H45.8973C45.7735 30.1895 45.6629 30.3685 45.6292 30.6294L45.3854 32.452C45.3329 32.8444 45.4679 33.2348 45.6535 33.2348H47.1554C47.3448 33.2348 47.4798 32.8349 47.4235 32.4406L47.1629 30.618C47.1254 30.3628 47.0185 30.1895 46.8948 30.1895Z" fill="#F4BE5C"/>
<path d="M46.7655 26.7612H46.2218C46.1543 26.7612 46.0943 26.9403 46.0755 27.2012L45.9424 29.0238C45.9143 29.4162 45.9874 29.8066 46.0886 29.8066H46.908C47.0111 29.8066 47.0842 29.4066 47.0542 29.0124L46.9117 27.1898C46.8911 26.9345 46.833 26.7612 46.7655 26.7612Z" fill="#F4C87D"/>
<path d="M48.1135 42.6606H45.0311C44.6467 42.6606 44.3073 42.992 44.2004 43.4719L43.4486 46.8315C43.2873 47.5534 43.7036 48.2733 44.2792 48.2733H48.9198C49.5048 48.2733 49.921 47.5362 49.7467 46.8087L48.9404 43.4491C48.8279 42.9787 48.4923 42.6587 48.1135 42.6587V42.6606Z" fill="#F7BB5B"/>
<path d="M47.5681 37.0459H45.3912C45.1194 37.0459 44.8813 37.3487 44.8044 37.7868L44.2738 40.855C44.1594 41.5139 44.4538 42.1729 44.8606 42.1729H48.1381C48.5506 42.1729 48.845 41.4987 48.7212 40.8359L48.1512 37.7677C48.0706 37.3373 47.8344 37.0459 47.5681 37.0459Z" fill="#F7BB5B"/>
<path d="M48.637 48.7626H44.2851C43.7414 48.7626 43.2632 49.094 43.1114 49.574L42.0501 52.9336C41.8214 53.6554 42.4082 54.3753 43.2239 54.3753H49.7769C50.6019 54.3753 51.1907 53.6383 50.9432 52.9107L49.8032 49.5511C49.6438 49.0807 49.1713 48.7607 48.637 48.7607V48.7626Z" fill="#F7BB5B"/>
<path d="M46.5405 22H46.5424C47.0829 22 47.5211 22.4451 47.5211 22.9942V25.3863C47.5211 25.9353 47.0829 26.3804 46.5424 26.3804H46.5405C46 26.3804 45.5618 25.9353 45.5618 25.3863V22.9942C45.5618 22.4451 46 22 46.5405 22Z" fill="#F5B959"/>
<path d="M46.1145 23.3926C46.1145 23.3926 39.5401 19.0746 36 25.6455C36 25.6455 44.0916 22.6416 46.1145 23.3926Z" fill="#707F3C"/>
<path d="M45.9133 23.3622C45.9133 23.3622 37.5082 21.483 37.9962 28.5513C37.9962 28.5513 43.6527 23.3096 45.9133 23.3622Z" fill="#707F3C"/>
<path d="M47.127 23.3926C47.127 23.3926 53.7014 19.0746 57.2415 25.6455C57.2415 25.6455 49.1499 22.6416 47.127 23.3926Z" fill="#707F3C"/>
<path d="M47.3298 23.3622C47.3298 23.3622 55.7325 21.483 55.2444 28.5513C55.2444 28.5513 49.5879 23.3096 47.3273 23.3622H47.3298Z" fill="#707F3C"/>
<path d="M4.75816 62.304C63.5 82 80.3208 62.2512 80.3249 62.2474C81.9989 61.1654 83 59.793 83 58.2925C83 54.8163 77.6083 52 70.9538 52H14.0462C7.39169 52 2 54.8163 2 58.2925C2 59.8156 3.03431 61.2106 4.75816 62.3002V62.304Z" fill="#8CC1E4"/>
<path d="M3.48574 53.936C42.172 31.5557 71.5854 53.9773 71.5891 53.9803C73.0978 54.8271 74 55.9011 74 57.0754C74 59.7959 69.1408 62 63.1436 62H11.8564C5.85918 62 0.999999 59.7959 0.999999 57.0754C0.999999 55.8834 1.93215 54.7917 3.48574 53.939V53.936Z" fill="#FFE1AB"/>
<path d="M56.2855 11.2099C56.2855 11.2099 47 4.3578 42.0001 14.7849C42.0001 14.7849 53.4284 10.0182 56.2855 11.2099Z" fill="#707F3C"/>
<path d="M56.001 11.1621C56.001 11.1621 44.1298 8.17998 44.8191 19.3965C44.8191 19.3965 52.8082 11.0787 56.001 11.1621Z" fill="#707F3C"/>
<path d="M57.7146 11.2099C57.7146 11.2099 67.0001 4.3578 72 14.7849C72 14.7849 60.5717 10.0182 57.7146 11.2099Z" fill="#707F3C"/>
<path d="M58.0008 11.1621C58.0008 11.1621 69.8684 8.17998 69.1791 19.3965C69.1791 19.3965 61.19 11.0787 57.9972 11.1621H58.0008Z" fill="#707F3C"/>
<path d="M87.8169 5.30769C87.8169 7.3469 85.3955 9 82.4085 9C79.4214 9 77 7.3469 77 5.30769C77 3.26849 79.4214 1.61538 82.4085 1.61538C85.3955 1.61538 87.8169 3.26849 87.8169 5.30769Z" fill="#C4EBFF"/>
<path d="M101 5.30769C101 7.3469 98.5786 9 95.5915 9C92.6045 9 90.1831 7.3469 90.1831 5.30769C90.1831 3.26849 92.6045 1.61538 95.5915 1.61538C98.5786 1.61538 101 3.26849 101 5.30769Z" fill="#C4EBFF"/>
<path d="M95.5915 4.5C95.5915 6.98528 92.6404 9 89 9C85.3596 9 82.4085 6.98528 82.4085 4.5C82.4085 2.01472 85.3596 0 89 0C92.6404 0 95.5915 2.01472 95.5915 4.5Z" fill="#C4EBFF"/>
<path d="M8.56338 17.1282C8.56338 18.7143 6.6464 20 4.28169 20C1.91698 20 0 18.7143 0 17.1282C0 15.5422 1.91698 14.2564 4.28169 14.2564C6.6464 14.2564 8.56338 15.5422 8.56338 17.1282Z" fill="#C4EBFF"/>
<path d="M19 17.1282C19 18.7143 17.083 20 14.7183 20C12.3536 20 10.4366 18.7143 10.4366 17.1282C10.4366 15.5422 12.3536 14.2564 14.7183 14.2564C17.083 14.2564 19 15.5422 19 17.1282Z" fill="#C4EBFF"/>
<path d="M14.7183 16.5C14.7183 18.433 12.382 20 9.5 20C6.61801 20 4.28169 18.433 4.28169 16.5C4.28169 14.567 6.61801 13 9.5 13C12.382 13 14.7183 14.567 14.7183 16.5Z" fill="#C4EBFF"/>
</svg>
