<svg width="105" height="117" viewBox="0 0 105 117" fill="none" xmlns="http://www.w3.org/2000/svg">
<path d="M56.8838 72.3594H54.8288C54.5713 72.3594 54.3463 72.6269 54.2738 73.0167L53.7738 75.7401C53.6663 76.3264 53.9438 76.9098 54.3288 76.9098H57.4238C57.8138 76.9098 58.0912 76.3121 57.9737 75.7231L57.4363 72.9997C57.3613 72.6183 57.1388 72.3594 56.8863 72.3594H56.8838Z" fill="#AD9E83"/>
<path d="M56.5259 67.2368H55.1959C55.0309 67.2368 54.8834 67.5043 54.8384 67.8942L54.5134 70.6176C54.4434 71.2038 54.6234 71.7872 54.8709 71.7872H56.8734C57.1259 71.7872 57.3059 71.1896 57.2309 70.6005L56.8834 67.8771C56.8334 67.4958 56.6909 67.2368 56.5259 67.2368Z" fill="#AD9E83"/>
<path d="M56.353 62.1143H55.628C55.538 62.1143 55.458 62.3818 55.433 62.7716L55.2555 65.495C55.218 66.0813 55.3155 66.6646 55.4505 66.6646H56.543C56.6805 66.6646 56.778 66.067 56.738 65.478L56.548 62.7546C56.5205 62.3732 56.443 62.1143 56.353 62.1143Z" fill="#AD9E83"/>
<path d="M58.1519 85.871H54.0419C53.5294 85.871 53.0769 86.3662 52.9344 87.0833L51.9319 92.1032C51.7169 93.1818 52.2719 94.2575 53.0394 94.2575H59.2269C60.0069 94.2575 60.5619 93.1562 60.3294 92.0691L59.2544 87.0492C59.1044 86.3463 58.6569 85.8682 58.1519 85.8682V85.871Z" fill="#AD9E83"/>
<path d="M57.4245 77.4814H54.522C54.1595 77.4814 53.842 77.9339 53.7395 78.5884L53.032 83.173C52.8795 84.1576 53.272 85.1423 53.8145 85.1423H58.1845C58.7345 85.1423 59.127 84.1349 58.962 83.1445L58.202 78.56C58.0945 77.9168 57.7795 77.4814 57.4245 77.4814Z" fill="#AD9E83"/>
<path d="M58.8489 94.9887H53.0465C52.3215 94.9887 51.684 95.4839 51.4815 96.201L50.0665 101.221C49.7615 102.299 50.544 103.375 51.6315 103.375H60.3689C61.4689 103.375 62.2539 102.274 61.9239 101.187L60.4039 96.1668C60.1914 95.4639 59.5614 94.9858 58.8489 94.9858V94.9887Z" fill="#AD9E83"/>
<path d="M56.0548 55H56.0573C56.778 55 57.3623 55.6651 57.3623 56.4855V60.0598C57.3623 60.8802 56.778 61.5453 56.0573 61.5453H56.0548C55.3341 61.5453 54.7498 60.8802 54.7498 60.0598V56.4855C54.7498 55.6651 55.3341 55 56.0548 55Z" fill="#AD9E83"/>
<path d="M46.1633 78.6177H44.6221C44.4289 78.6177 44.2602 78.7967 44.2058 79.0576L43.8308 80.8803C43.7502 81.2726 43.9583 81.663 44.2471 81.663H46.5683C46.8608 81.663 47.0689 81.2631 46.9808 80.8688L46.5777 79.0462C46.5214 78.791 46.3546 78.6177 46.1652 78.6177H46.1633Z" fill="#AD9E83"/>
<path d="M45.8948 75.1895H44.8973C44.7735 75.1895 44.6629 75.3685 44.6292 75.6294L44.3854 77.452C44.3329 77.8444 44.4679 78.2348 44.6535 78.2348H46.1554C46.3448 78.2348 46.4798 77.8349 46.4235 77.4406L46.1629 75.618C46.1254 75.3628 46.0185 75.1895 45.8948 75.1895Z" fill="#AD9E83"/>
<path d="M45.7655 71.7612H45.2218C45.1543 71.7612 45.0943 71.9403 45.0755 72.2012L44.9424 74.0238C44.9143 74.4162 44.9874 74.8066 45.0886 74.8066H45.908C46.0111 74.8066 46.0842 74.4066 46.0542 74.0124L45.9117 72.1898C45.8911 71.9345 45.833 71.7612 45.7655 71.7612Z" fill="#AD9E83"/>
<path d="M47.1135 87.6606H44.0311C43.6467 87.6606 43.3073 87.992 43.2004 88.4719L42.4486 91.8315C42.2873 92.5534 42.7036 93.2733 43.2792 93.2733H47.9198C48.5048 93.2733 48.921 92.5362 48.7467 91.8087L47.9404 88.4491C47.8279 87.9787 47.4923 87.6587 47.1135 87.6587V87.6606Z" fill="#AD9E83"/>
<path d="M46.5681 82.0459H44.3912C44.1194 82.0459 43.8813 82.3487 43.8044 82.7868L43.2738 85.855C43.1594 86.5139 43.4538 87.1729 43.8606 87.1729H47.1381C47.5506 87.1729 47.845 86.4987 47.7212 85.8359L47.1512 82.7677C47.0706 82.3373 46.8344 82.0459 46.5681 82.0459Z" fill="#AD9E83"/>
<path d="M47.637 93.7626H43.2851C42.7414 93.7626 42.2632 94.094 42.1114 94.574L41.0501 97.9336C40.8214 98.6554 41.4082 99.3753 42.2239 99.3753H48.7769C49.6019 99.3753 50.1907 98.6383 49.9432 97.9107L48.8032 94.5511C48.6438 94.0807 48.1713 93.7607 47.637 93.7607V93.7626Z" fill="#AD9E83"/>
<path d="M45.5405 67H45.5424C46.0829 67 46.5211 67.4451 46.5211 67.9942V70.3863C46.5211 70.9353 46.0829 71.3804 45.5424 71.3804H45.5405C45 71.3804 44.5618 70.9353 44.5618 70.3863V67.9942C44.5618 67.4451 45 67 45.5405 67Z" fill="#AD9E83"/>
<path d="M45.1145 68.3926C45.1145 68.3926 38.5401 64.0746 35 70.6455C35 70.6455 43.0916 67.6416 45.1145 68.3926Z" fill="#515933"/>
<path d="M44.9133 68.3622C44.9133 68.3622 36.5082 66.483 36.9962 73.5513C36.9962 73.5513 42.6527 68.3096 44.9133 68.3622Z" fill="#515933"/>
<path d="M46.127 68.3926C46.127 68.3926 52.7014 64.0746 56.2415 70.6455C56.2415 70.6455 48.1499 67.6416 46.127 68.3926Z" fill="#515933"/>
<path d="M46.3298 68.3622C46.3298 68.3622 54.7325 66.483 54.2444 73.5513C54.2444 73.5513 48.5879 68.3096 46.3273 68.3622H46.3298Z" fill="#515933"/>
<path d="M3.75816 107.304C62.5 127 79.3208 107.251 79.3249 107.247C80.9989 106.165 82 104.793 82 103.292C82 99.8163 76.6083 97 69.9538 97H13.0462C6.39169 97 1 99.8163 1 103.292C1 104.816 2.03431 106.211 3.75816 107.3V107.304Z" fill="#42627B"/>
<path d="M2.48574 98.936C41.172 76.5557 70.5854 98.9773 70.5891 98.9803C72.0978 99.8271 73 100.901 73 102.075C73 104.796 68.1408 107 62.1436 107H10.8564C4.85918 107 -1.46031e-06 104.796 -1.46031e-06 102.075C-1.46031e-06 100.883 0.932152 99.7917 2.48574 98.939V98.936Z" fill="#BCB19F"/>
<path d="M55.2855 56.2099C55.2855 56.2099 46 49.3578 41.0001 59.7849C41.0001 59.7849 52.4284 55.0182 55.2855 56.2099Z" fill="#515933"/>
<path d="M55.001 56.1621C55.001 56.1621 43.1298 53.18 43.8191 64.3965C43.8191 64.3965 51.8082 56.0787 55.001 56.1621Z" fill="#515933"/>
<path d="M56.7146 56.2099C56.7146 56.2099 66.0001 49.3578 71 59.7849C71 59.7849 59.5717 55.0182 56.7146 56.2099Z" fill="#515933"/>
<path d="M57.0008 56.1621C57.0008 56.1621 68.8684 53.18 68.1791 64.3965C68.1791 64.3965 60.19 56.0787 56.9972 56.1621H57.0008Z" fill="#515933"/>
<g opacity="0.59" filter="url(#filter0_f_176_857)">
<circle cx="29" cy="27" r="1" fill="white"/>
</g>
<g opacity="0.59" filter="url(#filter1_f_176_857)">
<circle cx="67.5" cy="24.5" r="1.5" fill="white"/>
</g>
<g opacity="0.59" filter="url(#filter2_f_176_857)">
<circle cx="45" cy="16" r="1" fill="white"/>
</g>
<g opacity="0.59" filter="url(#filter3_f_176_857)">
<circle cx="95" cy="40" r="1" fill="white"/>
</g>
<g opacity="0.59" filter="url(#filter4_f_176_857)">
<circle cx="102" cy="5" r="1" fill="white"/>
</g>
<g opacity="0.59" filter="url(#filter5_f_176_857)">
<ellipse cx="14" cy="8.5" rx="1" ry="1.5" fill="white"/>
</g>
<g opacity="0.59" filter="url(#filter6_f_176_857)">
<circle cx="69" cy="3" r="1" fill="white"/>
</g>
<defs>
<filter id="filter0_f_176_857" x="26" y="24" width="6" height="6" filterUnits="userSpaceOnUse" color-interpolation-filters="sRGB">
<feFlood flood-opacity="0" result="BackgroundImageFix"/>
<feBlend mode="normal" in="SourceGraphic" in2="BackgroundImageFix" result="shape"/>
<feGaussianBlur stdDeviation="1" result="effect1_foregroundBlur_176_857"/>
</filter>
<filter id="filter1_f_176_857" x="64" y="21" width="7" height="7" filterUnits="userSpaceOnUse" color-interpolation-filters="sRGB">
<feFlood flood-opacity="0" result="BackgroundImageFix"/>
<feBlend mode="normal" in="SourceGraphic" in2="BackgroundImageFix" result="shape"/>
<feGaussianBlur stdDeviation="1" result="effect1_foregroundBlur_176_857"/>
</filter>
<filter id="filter2_f_176_857" x="42" y="13" width="6" height="6" filterUnits="userSpaceOnUse" color-interpolation-filters="sRGB">
<feFlood flood-opacity="0" result="BackgroundImageFix"/>
<feBlend mode="normal" in="SourceGraphic" in2="BackgroundImageFix" result="shape"/>
<feGaussianBlur stdDeviation="1" result="effect1_foregroundBlur_176_857"/>
</filter>
<filter id="filter3_f_176_857" x="92" y="37" width="6" height="6" filterUnits="userSpaceOnUse" color-interpolation-filters="sRGB">
<feFlood flood-opacity="0" result="BackgroundImageFix"/>
<feBlend mode="normal" in="SourceGraphic" in2="BackgroundImageFix" result="shape"/>
<feGaussianBlur stdDeviation="1" result="effect1_foregroundBlur_176_857"/>
</filter>
<filter id="filter4_f_176_857" x="99" y="2" width="6" height="6" filterUnits="userSpaceOnUse" color-interpolation-filters="sRGB">
<feFlood flood-opacity="0" result="BackgroundImageFix"/>
<feBlend mode="normal" in="SourceGraphic" in2="BackgroundImageFix" result="shape"/>
<feGaussianBlur stdDeviation="1" result="effect1_foregroundBlur_176_857"/>
</filter>
<filter id="filter5_f_176_857" x="11" y="5" width="6" height="7" filterUnits="userSpaceOnUse" color-interpolation-filters="sRGB">
<feFlood flood-opacity="0" result="BackgroundImageFix"/>
<feBlend mode="normal" in="SourceGraphic" in2="BackgroundImageFix" result="shape"/>
<feGaussianBlur stdDeviation="1" result="effect1_foregroundBlur_176_857"/>
</filter>
<filter id="filter6_f_176_857" x="66" y="0" width="6" height="6" filterUnits="userSpaceOnUse" color-interpolation-filters="sRGB">
<feFlood flood-opacity="0" result="BackgroundImageFix"/>
<feBlend mode="normal" in="SourceGraphic" in2="BackgroundImageFix" result="shape"/>
<feGaussianBlur stdDeviation="1" result="effect1_foregroundBlur_176_857"/>
</filter>
</defs>
</svg>
