<svg width="86" height="63" viewBox="0 0 86 63" fill="none" xmlns="http://www.w3.org/2000/svg">
<circle cx="16" cy="37" r="16" fill="url(#paint0_linear_100_1761)"/>
<path d="M60.8838 18.3594H58.8288C58.5713 18.3594 58.3463 18.6269 58.2738 19.0167L57.7738 21.7401C57.6663 22.3264 57.9438 22.9098 58.3288 22.9098H61.4238C61.8138 22.9098 62.0912 22.3121 61.9737 21.7231L61.4363 18.9997C61.3613 18.6183 61.1388 18.3594 60.8863 18.3594H60.8838Z" fill="#D7A140"/>
<path d="M60.5259 13.2368H59.1959C59.0309 13.2368 58.8834 13.5043 58.8384 13.8942L58.5134 16.6176C58.4434 17.2038 58.6234 17.7872 58.8709 17.7872H60.8734C61.1259 17.7872 61.3059 17.1896 61.2309 16.6005L60.8834 13.8771C60.8334 13.4958 60.6909 13.2368 60.5259 13.2368Z" fill="#D7A140"/>
<path d="M60.353 8.11426H59.628C59.538 8.11426 59.458 8.38176 59.433 8.77163L59.2555 11.495C59.218 12.0813 59.3155 12.6646 59.4505 12.6646H60.543C60.6805 12.6646 60.778 12.067 60.738 11.478L60.548 8.75456C60.5205 8.37322 60.443 8.11426 60.353 8.11426Z" fill="#D7A140"/>
<path d="M62.1519 31.871H58.0419C57.5294 31.871 57.0769 32.3662 56.9344 33.0833L55.9319 38.1032C55.7169 39.1818 56.2719 40.2575 57.0394 40.2575H63.2269C64.0069 40.2575 64.5619 39.1562 64.3294 38.0691L63.2544 33.0492C63.1044 32.3463 62.6569 31.8682 62.1519 31.8682V31.871Z" fill="#D7A140"/>
<path d="M61.4245 23.4814H58.522C58.1595 23.4814 57.842 23.9339 57.7395 24.5884L57.032 29.173C56.8795 30.1576 57.272 31.1423 57.8145 31.1423H62.1845C62.7345 31.1423 63.127 30.1349 62.962 29.1445L62.202 24.56C62.0945 23.9168 61.7795 23.4814 61.4245 23.4814Z" fill="#D7A140"/>
<path d="M62.8489 40.9887H57.0465C56.3215 40.9887 55.684 41.4839 55.4815 42.201L54.0665 47.2209C53.7615 48.2995 54.544 49.3752 55.6315 49.3752H64.3689C65.4689 49.3752 66.2539 48.2739 65.9239 47.1868L64.4039 42.1668C64.1914 41.4639 63.5614 40.9858 62.8489 40.9858V40.9887Z" fill="#D7A140"/>
<path d="M60.0548 1H60.0573C60.778 1 61.3623 1.66508 61.3623 2.48549V6.05977C61.3623 6.88019 60.778 7.54527 60.0573 7.54527H60.0548C59.3341 7.54527 58.7498 6.88019 58.7498 6.05977V2.48549C58.7498 1.66508 59.3341 1 60.0548 1Z" fill="#D7A140"/>
<path d="M50.1633 24.6177H48.6221C48.4289 24.6177 48.2602 24.7967 48.2058 25.0576L47.8308 26.8803C47.7502 27.2726 47.9583 27.663 48.2471 27.663H50.5683C50.8608 27.663 51.0689 27.2631 50.9808 26.8688L50.5777 25.0462C50.5214 24.791 50.3546 24.6177 50.1652 24.6177H50.1633Z" fill="#D7A140"/>
<path d="M49.8948 21.1895H48.8973C48.7735 21.1895 48.6629 21.3685 48.6292 21.6294L48.3854 23.452C48.3329 23.8444 48.4679 24.2348 48.6535 24.2348H50.1554C50.3448 24.2348 50.4798 23.8349 50.4235 23.4406L50.1629 21.618C50.1254 21.3628 50.0185 21.1895 49.8948 21.1895Z" fill="#D7A140"/>
<path d="M49.7655 17.7612H49.2218C49.1543 17.7612 49.0943 17.9403 49.0755 18.2012L48.9424 20.0238C48.9143 20.4162 48.9874 20.8066 49.0886 20.8066H49.908C50.0111 20.8066 50.0842 20.4066 50.0542 20.0124L49.9117 18.1898C49.8911 17.9345 49.833 17.7612 49.7655 17.7612Z" fill="#D7A140"/>
<path d="M51.1135 33.6606H48.0311C47.6467 33.6606 47.3073 33.992 47.2004 34.4719L46.4486 37.8315C46.2873 38.5533 46.7036 39.2733 47.2792 39.2733H51.9198C52.5048 39.2733 52.921 38.5362 52.7467 37.8087L51.9404 34.4491C51.8279 33.9787 51.4923 33.6587 51.1135 33.6587V33.6606Z" fill="#D7A140"/>
<path d="M50.5681 28.0459H48.3912C48.1194 28.0459 47.8813 28.3487 47.8044 28.7868L47.2738 31.855C47.1594 32.5139 47.4538 33.1729 47.8606 33.1729H51.1381C51.5506 33.1729 51.845 32.4987 51.7212 31.8359L51.1512 28.7677C51.0706 28.3373 50.8344 28.0459 50.5681 28.0459Z" fill="#D7A140"/>
<path d="M51.637 39.7626H47.2851C46.7414 39.7626 46.2632 40.094 46.1114 40.574L45.0501 43.9336C44.8214 44.6554 45.4082 45.3753 46.2239 45.3753H52.7769C53.6019 45.3753 54.1907 44.6383 53.9432 43.9107L52.8032 40.5511C52.6438 40.0807 52.1713 39.7607 51.637 39.7607V39.7626Z" fill="#D7A140"/>
<path d="M49.5405 13H49.5424C50.0829 13 50.5211 13.4451 50.5211 13.9942V16.3863C50.5211 16.9353 50.0829 17.3804 49.5424 17.3804H49.5405C49 17.3804 48.5618 16.9353 48.5618 16.3863V13.9942C48.5618 13.4451 49 13 49.5405 13Z" fill="#D7A140"/>
<path d="M49.1145 14.3926C49.1145 14.3926 42.5401 10.0746 39 16.6455C39 16.6455 47.0916 13.6416 49.1145 14.3926Z" fill="#5C692C"/>
<path d="M48.9133 14.3622C48.9133 14.3622 40.5082 12.483 40.9962 19.5513C40.9962 19.5513 46.6527 14.3096 48.9133 14.3622Z" fill="#5C692C"/>
<path d="M50.127 14.3926C50.127 14.3926 56.7014 10.0746 60.2415 16.6455C60.2415 16.6455 52.1499 13.6416 50.127 14.3926Z" fill="#5C692C"/>
<path d="M50.3298 14.3622C50.3298 14.3622 58.7325 12.483 58.2444 19.5513C58.2444 19.5513 52.5879 14.3096 50.3273 14.3622H50.3298Z" fill="#5C692C"/>
<path d="M7.75816 53.304C66.5 73 83.3208 53.2512 83.3249 53.2474C84.9989 52.1654 86 50.793 86 49.2925C86 45.8163 80.6083 43 73.9538 43H17.0462C10.3917 43 5 45.8163 5 49.2925C5 50.8156 6.03431 52.2106 7.75816 53.3002V53.304Z" fill="#DA7144"/>
<path d="M6.48574 44.936C45.172 22.5557 74.5854 44.9773 74.5891 44.9803C76.0978 45.8271 77 46.9011 77 48.0754C77 50.7959 72.1408 53 66.1436 53H14.8564C8.85918 53 4 50.7959 4 48.0754C4 46.8834 4.93215 45.7917 6.48574 44.939V44.936Z" fill="#F3CC85"/>
<path d="M59.2855 2.20987C59.2855 2.20987 50 -4.6422 45.0001 5.78487C45.0001 5.78487 56.4284 1.01821 59.2855 2.20987Z" fill="#5C692C"/>
<path d="M59.001 2.16212C59.001 2.16212 47.1298 -0.820023 47.8191 10.3965C47.8191 10.3965 55.8082 2.0787 59.001 2.16212Z" fill="#5C692C"/>
<path d="M60.7146 2.20987C60.7146 2.20987 70.0001 -4.6422 75 5.78487C75 5.78487 63.5717 1.01821 60.7146 2.20987Z" fill="#5C692C"/>
<path d="M61.0008 2.16212C61.0008 2.16212 72.8684 -0.820023 72.1791 10.3965C72.1791 10.3965 64.19 2.0787 60.9972 2.16212H61.0008Z" fill="#5C692C"/>
<defs>
<linearGradient id="paint0_linear_100_1761" x1="16" y1="42" x2="16" y2="28.5" gradientUnits="userSpaceOnUse">
<stop stop-color="#FBE263"/>
<stop offset="1" stop-color="#EA3300"/>
</linearGradient>
</defs>
</svg>
