<svg width="157" height="194" viewBox="0 0 157 194" fill="none" xmlns="http://www.w3.org/2000/svg">
<path d="M110.167 35.8518L103.477 40L102.585 43.1852L106.599 50.3704L113.141 52.5926L114.256 52L114.628 52.5185L113.289 53.3333L112.918 55.4815L111.58 53.1852L93.5902 47.5555L79.7635 53.9259L78.9458 56.6667L77.3847 56.2963L78.2768 52.963L69.8024 40.1481L52.3332 34.7407L45.5685 38.5185L40.8109 55.4815L66.9775 98.1482L111.208 76.8889L114.33 64L115.966 66.8889L119.311 67.7778L126.224 63.9259L131.205 42.5926L110.167 35.8518V35.8518Z" fill="#D9D697"/>
<path d="M67.1264 101.407L64.376 100.667L56.2732 142.889V142.963L54.3405 154.148L72.1813 194L80.2097 191.926L59.0237 152.815L67.1264 101.407V101.407Z" fill="#D9D697"/>
<path d="M63.9298 99.1111L63.7811 98.963L39.3242 58.4444L22.3754 56L16.2798 60.2222L12.4886 78L19.9223 90.8148L22.5984 91.3333L22.3754 92.8889L19.1046 92.3704L7.43365 101.704L3.7168 119.037L7.95401 125.185L24.9028 128.296L63.2607 99.7037L63.9298 99.1111V99.1111Z" fill="#D9D697"/>
<path d="M68.0183 100.889L84.5955 145.556L100.875 151.111L107.714 148.148L114.776 131.259L109.87 117.259L107.343 116.297L107.789 114.815L110.985 116L124.217 108.889L131.13 92.5187L128.083 85.6298L111.951 79.4817L68.0183 100.889Z" fill="#D9D697"/>
<path d="M103.998 26.3703L107.343 33.4073L128.826 40.2221L137.821 20.8147L134.253 13.9258L131.056 12.8147L123.251 15.9999L120.277 21.9999L120.798 23.111L120.203 23.4073L119.46 21.9999L112.844 20.148L105.261 23.2591L103.998 26.3703V26.3703Z" fill="#D9D697"/>
<path d="M152.391 1.25926L148.674 0L146.369 20.2963L129.346 37.7037L130.238 38.6667L144.734 24.7408H144.808L148.6 20.963L152.391 1.25926V1.25926Z" fill="#D9D697"/>
<path d="M149.715 58.7409L156.48 54.2224L157 50.8891L152.242 44.6669L129.793 42.2224V42.2965L125.109 63.0372L130.016 69.0372L133.435 69.5558L140.423 64.8891L142.058 58.4446L141.241 57.4076L141.835 56.9632L142.802 58.2224L149.715 58.7409Z" fill="#D9D697"/>
<path d="M63.3351 100.222L60.5847 99.407L52.4819 141.629L59.0979 126.666L63.3351 100.222V100.222Z" fill="#74987C"/>
<path d="M59.0979 126.666L52.4819 141.629L52.5563 141.703L55.3067 151.629L59.0979 126.666V126.666Z" fill="#8FB896"/>
<path d="M52.5563 141.703L50.5492 152.963L68.3901 192.815L76.4185 190.74L55.3068 151.629L52.5563 141.703V141.703Z" fill="#74987C"/>
<path d="M85.562 69.0366L72.4787 65.0366L63.4839 96.8144L81.1761 88.37L85.562 69.0366Z" fill="#F7BD66"/>
<path d="M72.4785 65.0368L85.5618 69.0368L90.6911 46.5923L89.799 46.3701L76.0467 52.7405L75.1546 55.4812L72.4785 65.0368V65.0368Z" fill="#F08437"/>
<path d="M90.6913 46.5923L85.562 69.0367L107.417 75.6293L111.58 58.5182L107.863 51.9256L90.6913 46.5923Z" fill="#E56733"/>
<path d="M72.4786 65.0368L75.1548 55.4812L73.668 55.1108L71.1406 64.6664L62.8148 96.222L63.2608 96.9627L63.4839 96.8146L72.4786 65.0368V65.0368Z" fill="#C6653A"/>
<path d="M66.0857 38.9627L65.268 38.7405L58.429 60.8146L71.1406 64.6664L73.668 55.1109L74.4857 51.7034L66.0857 38.9627Z" fill="#F08437"/>
<path d="M52.6306 79.7774L62.8148 96.2219L71.1405 64.6663L58.4289 60.8145L52.6306 79.7774V79.7774Z" fill="#F7BD66"/>
<path d="M52.6306 79.7774L58.4288 60.8144L37.0198 54.2959L52.6306 79.7774Z" fill="#F08437"/>
<path d="M58.4288 60.8144L65.2678 38.7404L48.542 33.5552L41.7773 37.2589L37.0198 54.2959L58.4288 60.8144Z" fill="#E56733"/>
<path d="M81.176 88.37L107.417 75.6292L85.5619 69.0366L81.176 88.37Z" fill="#F08437"/>
<path d="M80.8787 144.37L97.1585 149.926L103.923 146.963L110.762 130.815L89.3531 123.852L80.8787 144.37V144.37Z" fill="#E9929D"/>
<path d="M110.762 130.814L111.06 130.074L106.079 116.074L103.552 115.037L94.4824 111.555L89.3531 123.851L110.762 130.814V130.814Z" fill="#EFB2B8"/>
<path d="M120.426 107.703L120.798 106.963L99.8347 98.3701L94.9285 110.222L103.998 113.555L107.194 114.74L120.426 107.703V107.703Z" fill="#EFB2B8"/>
<path d="M103.551 115.037L103.997 113.555L94.9284 110.222L64.9705 99.333L64.2272 99.7034L64.3758 99.9256L94.4823 111.555L103.551 115.037Z" fill="#E37A8B"/>
<path d="M89.3531 123.852L94.4823 111.555L64.3759 99.9258L70.9918 117.852L89.3531 123.852V123.852Z" fill="#F3C4C8"/>
<path d="M80.8786 144.37L89.3531 123.852L70.9918 117.852L80.8786 144.37V144.37Z" fill="#EFB2B8"/>
<path d="M64.9706 99.3332L94.9284 110.222L99.8346 98.3702L81.9194 91.0369L64.9706 99.3332V99.3332Z" fill="#F3C4C8"/>
<path d="M108.16 78.2961L99.8346 98.3702L120.798 106.963L127.339 91.3332L124.291 84.4443L108.16 78.2961V78.2961Z" fill="#E9929D"/>
<path d="M99.8347 98.3702L108.16 78.2961L81.9194 91.0369L99.8347 98.3702Z" fill="#EFB2B8"/>
<path d="M4.16287 123.926L21.186 126.963L25.4976 105.778L3.49384 101.185L0 117.778L4.16287 123.926V123.926Z" fill="#8FA955"/>
<path d="M35.6075 57.1848L18.6587 54.8145L12.563 58.9626L8.92053 75.9996L31.1473 78.8885L35.6075 57.1848V57.1848Z" fill="#8FA955"/>
<path d="M16.2054 89.5553L18.8816 90.0738L28.471 91.8516L31.1472 78.8886L8.9204 75.9998L8.77173 76.8146L16.2054 89.5553V89.5553Z" fill="#93B447"/>
<path d="M18.8816 90.074L18.6586 91.7036L28.0994 93.1851L59.5439 98.3703L60.1386 97.9258L60.0643 97.7777L28.4711 91.8517L18.8816 90.074Z" fill="#667C6B"/>
<path d="M3.64245 100.518L3.49377 101.185L25.4975 105.777L28.0993 93.1848L18.6585 91.7033L15.3877 91.0366L3.64245 100.518V100.518Z" fill="#93B447"/>
<path d="M28.0995 93.1851L25.4977 105.778L44.4536 109.704L59.544 98.3702L28.0995 93.1851Z" fill="#AAD076"/>
<path d="M31.1472 78.8884L28.4711 91.8514L60.0643 97.7773L50.2518 81.3329L31.1472 78.8884V78.8884Z" fill="#AAD076"/>
<path d="M44.4536 109.704L25.4977 105.778L21.1862 126.963L44.4536 109.704V109.704Z" fill="#93B447"/>
<path d="M31.1472 78.8885L50.2518 81.333L35.6074 57.1848L31.1472 78.8885V78.8885Z" fill="#93B447"/>
<path d="M108.755 19.0371L101.47 22.0001L100.281 25.1112L103.551 32.1482H103.7L112.844 28.2964L108.755 19.0371Z" fill="#EAEAEA"/>
<path d="M124.663 38.8891L125.035 38.9632L125.109 38.8891L118.939 25.778L117.081 21.8521L116.412 22.1483L118.345 26.0743L124.663 38.8891V38.8891Z" fill="#DDDDDD"/>
<path d="M116.412 36.2221L124.663 38.8888L118.345 26.074L112.844 28.2962L116.412 36.2221Z" fill="white"/>
<path d="M119.831 14.5928L119.46 14.7409L116.56 20.7409L117.081 21.852L118.939 25.778L124.589 23.4817L119.831 14.5928V14.5928Z" fill="#F2F2F2"/>
<path d="M127.265 11.5557L119.831 14.5927L124.589 23.4816L134.03 19.5557L130.536 12.7409L127.265 11.5557V11.5557Z" fill="#EAEAEA"/>
<path d="M112.844 28.2965L118.344 26.0743L116.412 22.1483L115.743 20.815L109.052 18.9631L108.755 19.0372L112.844 28.2965L103.7 32.1483L116.412 36.2224L112.844 28.2965V28.2965Z" fill="#F2F2F2"/>
<path d="M124.589 23.4817L118.939 25.778L125.109 38.8891L128.677 31.1113L124.589 23.4817V23.4817Z" fill="white"/>
<path d="M128.677 31.1112L134.03 19.5557L124.589 23.4816L128.677 31.1112V31.1112Z" fill="#F2F2F2"/>
<path d="M105.335 57.7782L105.558 58.0745L114.702 53.1856L111.803 48.2227L108.012 50.4449L106.674 51.1856L105.335 57.7782V57.7782Z" fill="#F2F2F2"/>
<path d="M107.566 49.852L108.012 50.4446L111.803 48.2224L124.44 40.815L124.515 40.4446H124.44L111.506 47.6298L107.566 49.852V49.852Z" fill="#DDDDDD"/>
<path d="M106.451 50.4448L107.566 49.8522L111.505 47.63L108.532 42.4448L99.7603 47.9263L99.9833 48.2226L106.451 50.4448V50.4448Z" fill="#F2F2F2"/>
<path d="M108.532 42.4446L103.551 33.7039L96.7868 37.852L95.8948 41.0372L99.7603 47.9261L108.532 42.4446V42.4446Z" fill="#EAEAEA"/>
<path d="M103.552 33.7039L108.532 42.4446L116.04 37.7779L103.552 33.7039V33.7039Z" fill="#F2F2F2"/>
<path d="M124.44 40.4445L116.04 37.7778L108.532 42.4445L111.505 47.6297L124.44 40.4445Z" fill="white"/>
<path d="M119.608 61.7779L114.702 53.1853L105.558 58.0742L109.275 64.7409L112.695 65.6297L119.608 61.7779Z" fill="#EAEAEA"/>
<path d="M114.702 53.1853L119.608 61.7779L122.507 49.0371L114.702 53.1853V53.1853Z" fill="#EEEEEE"/>
<path d="M114.702 53.1856L122.508 49.0374L124.44 40.8152L111.803 48.2226L114.702 53.1856V53.1856Z" fill="white"/>
<path d="M126.447 41.0372L126.076 40.9631L126.001 41.1113L134.847 52.6668L137.523 56.2224L138.044 55.778L135.368 52.3705L126.447 41.0372V41.0372Z" fill="#DDDDDD"/>
<path d="M126.001 41.1113L126.076 40.9631H126.001V41.1113Z" fill="#BFBFBF"/>
<path d="M124.143 49.4077L121.392 61.7781L129.792 56.0744L124.143 49.4077V49.4077Z" fill="#F2F2F2"/>
<path d="M140.274 49.0371L135.368 52.3704L138.044 55.7779L139.01 56.963L145.998 57.4816L146.221 57.2593L140.274 49.0371V49.0371Z" fill="#F2F2F2"/>
<path d="M135.368 52.3707L140.274 49.0374L135.145 41.9262L126.447 41.0374L135.368 52.3707Z" fill="white"/>
<path d="M137.523 56.2226L134.847 52.667L129.792 56.0744L136.334 63.8522L136.631 63.63L138.267 57.1855L137.523 56.2226Z" fill="#F2F2F2"/>
<path d="M129.792 56.0743L134.847 52.6669L126.001 41.1113L124.143 49.4076L129.792 56.0743V56.0743Z" fill="white"/>
<path d="M135.145 41.926L140.274 49.0371L148.525 43.4075L135.145 41.926Z" fill="#F2F2F2"/>
<path d="M129.792 56.0742L121.392 61.7779L126.299 67.7779L129.718 68.2964L136.334 63.852L129.792 56.0742V56.0742Z" fill="#EAEAEA"/>
<path d="M146.221 57.2596L152.688 52.9633L153.283 49.6299L148.525 43.4077L140.274 49.0373L146.221 57.2596V57.2596Z" fill="#EAEAEA"/>
<path d="M126.299 39.4074L127.191 40.3704L141.761 26.5186L135.145 30.4445L126.299 39.4074V39.4074Z" fill="#DDDDDD"/>
<path d="M143.396 22.0002L141.761 26.5187L145.626 22.7409L149.343 2.96312L145.626 1.70386L143.396 22.0002Z" fill="#EAEAEA"/>
<path d="M141.761 26.5188L143.396 22.0002L135.145 30.4447L141.761 26.5188Z" fill="white"/>
</svg>
