<svg width="191" height="197" viewBox="0 0 191 197" fill="none" xmlns="http://www.w3.org/2000/svg">
<path d="M151.687 90.6226L154.912 86.1077L153.18 72.528L144.736 65.3494L142.694 65.7116L142.462 64.4603L144.984 64.1036L150.854 54.6004L149.164 41.4413L144.623 38.1227L131.824 40.1375L111.514 70.402L139.093 93.0949L151.687 90.6226V90.6226Z" fill="#D9D697"/>
<path d="M81.9274 125.64L88.857 116.616L88.1726 111.905L83.6893 108.634L94.1098 104.678L107.726 70.8844L76.1196 54.2727L64.2586 59.2739L61.941 64.3359L66.4794 77.212L76.2323 82.5614L78.1845 81.8366L78.6168 82.9617L76.3111 83.881L75.8042 85.2057L72.2808 83.0071L62.9056 84.6287L61.9872 86.1004L61.0905 85.6586L62.1303 83.8031L59.0943 74.7599L49.4313 68.7113L44.7568 69.919L39.1565 79.4485L48.2108 109.238L48.3163 109.228L75.7563 103.9L76.4942 105.951L48.6428 111.425L48.6058 111.588L51.4032 141.681L60.5387 147.782L65.2078 147.053L72.3854 137.844L71.7077 128.408L70.2678 127.329L70.8273 126.531L72.6048 127.788L81.9274 125.64Z" fill="#D9D697"/>
<path d="M60.908 148.276L83.1279 168.528L83.0804 168.586L88.6921 173.551L117.031 177.744L118.753 172.582L89.6163 170.539L63.8625 147.983L60.908 148.276Z" fill="#D9D697"/>
<path d="M125.466 26.6458L120.613 23.9421L107.297 27.1765L101.021 36.3483L101.595 38.362L100.456 38.6875L99.7338 36.2638L89.6114 31.482L76.6694 34.7322L73.8983 39.5207L77.3289 51.9759L109.8 68.7139L109.885 68.4932L129.297 38.8487L125.466 26.6458V26.6458Z" fill="#D9D697"/>
<path d="M46.5488 111.262L46.4433 111.272L16.0665 111.211L9.18979 119.699L9.39412 124.404L17.9698 132.366L27.4763 132.59L28.6268 131.307L29.4285 131.865L27.9931 133.494L29.2563 142.926L37.5999 150.698L42.3691 150.437L49.6414 142.175L46.5488 111.262V111.262Z" fill="#D9D697"/>
<path d="M80.929 165.19L80.987 165.237L87.4649 167.142L74.9281 156.335L80.929 165.19Z" fill="white"/>
<path d="M80.9289 165.19L74.928 156.335L61.769 144.634L58.8146 144.927L80.9289 165.19V165.19Z" fill="#DDDDDD"/>
<path d="M86.5512 170.259L114.938 174.395L116.612 169.291L87.4648 167.142L80.987 165.237L86.5512 170.259V170.259Z" fill="#DDDDDD"/>
<path d="M56.9432 71.3635L56.4896 71.09L48.926 83.3632L55.9148 87.713L58.9499 82.3674L60.0372 80.4541L56.9432 71.3635V71.3635Z" fill="#EEEEEE"/>
<path d="M70.5832 79.8841L70.1296 79.6106L60.7069 81.2901L59.8465 82.8091L56.6479 88.1179L63.9163 92.5991L70.5832 79.8841V79.8841Z" fill="#EEEEEE"/>
<path d="M81.2842 90.449L80.0248 85.8486L70.5833 79.8842L63.9163 92.5992L76.069 100.1L81.2842 90.449V90.449Z" fill="#DDDDDD"/>
<path d="M47.2326 65.3727L42.6056 66.5226L37.0053 76.0521L48.9259 83.3631L56.4895 71.09L47.2326 65.3727Z" fill="#DDDDDD"/>
<path d="M58.2416 103.517L76.0689 100.1L63.9162 92.5992L58.2416 103.517V103.517Z" fill="#EEEEEE"/>
<path d="M58.9498 82.367L55.9147 87.7126L45.9121 105.431L46.0122 105.899L46.2232 105.878L56.6479 88.1177L59.8465 82.8089L58.9498 82.367V82.367Z" fill="#BFBFBF"/>
<path d="M63.9163 92.5992L56.6479 88.1179L46.2232 105.879L58.2417 103.517L63.9163 92.5992Z" fill="white"/>
<path d="M48.926 83.3629L42.4127 93.8857L45.9122 105.431L55.9148 87.7126L48.926 83.3629Z" fill="white"/>
<path d="M42.4126 93.8859L48.9259 83.3631L37.0053 76.052L42.4126 93.8859Z" fill="#EEEEEE"/>
<path d="M13.9254 107.919L6.99072 116.36L7.30055 121.055L15.4701 128.685L24.3681 117.501L13.9254 107.919V107.919Z" fill="#DDDDDD"/>
<path d="M44.3972 107.865L44.2442 107.934L30.5916 123.254L26.4752 127.911L27.2295 128.526L31.2403 123.88L44.5078 108.438L44.3972 107.865Z" fill="#BFBFBF"/>
<path d="M15.4701 128.685L15.8762 129.017L25.3248 129.193L26.4752 127.911L30.5916 123.254L24.3682 117.501L15.4701 128.685Z" fill="#EEEEEE"/>
<path d="M31.2403 123.88L27.2294 128.526L25.8995 130.145L27.1628 139.576L27.5214 139.966L37.3372 129.433L31.2403 123.88V123.88Z" fill="#EEEEEE"/>
<path d="M32.0418 107.925L24.3682 117.501L30.5916 123.254L44.2442 107.934L32.0418 107.925Z" fill="white"/>
<path d="M24.3682 117.501L32.0418 107.925L13.9255 107.919L24.3682 117.501V117.501Z" fill="#EEEEEE"/>
<path d="M47.5479 138.825L37.3372 129.433L27.5214 139.965L35.4484 147.301L40.2756 147.087L47.5479 138.825V138.825Z" fill="#DDDDDD"/>
<path d="M37.3372 129.433L47.5478 138.826L45.649 120.378L37.3372 129.433Z" fill="#EEEEEE"/>
<path d="M37.3373 129.433L45.6491 120.377L44.5079 108.438L31.2404 123.88L37.3373 129.433V129.433Z" fill="white"/>
<path d="M86.7163 113.324L85.9739 108.566L77.0654 102.071L68.637 113.156L80.0032 121.849L86.7163 113.324Z" fill="#DDDDDD"/>
<path d="M68.6369 113.156L58.8266 105.635L46.9612 107.929L63.6917 119.647L68.6369 113.156Z" fill="white"/>
<path d="M58.8267 105.635L68.637 113.156L77.0655 102.071L58.8267 105.635Z" fill="#EEEEEE"/>
<path d="M68.6369 113.156L63.6917 119.647L68.6286 123.192L70.4535 124.391L79.7762 122.244L80.0031 121.849L68.6369 113.156V113.156Z" fill="#EEEEEE"/>
<path d="M68.0691 123.991L68.6286 123.192L63.6917 119.647L46.9611 107.929L46.4441 108.087L46.4546 108.192L63.1217 120.341L68.0691 123.991V123.991Z" fill="#BFBFBF"/>
<path d="M69.5565 125.011L68.0691 123.991L63.1218 120.341L57.8811 127.074L69.9597 134.9L70.2342 134.448L69.5565 125.011V125.011Z" fill="#EEEEEE"/>
<path d="M63.0092 143.714L69.9598 134.9L57.8811 127.074L49.2521 138.285L58.34 144.443L63.0092 143.714Z" fill="#DDDDDD"/>
<path d="M47.6168 120.341L57.8811 127.074L63.1218 120.341L46.4546 108.192L47.6168 120.341V120.341Z" fill="white"/>
<path d="M57.8811 127.074L47.6169 120.341L49.2521 138.285L57.8811 127.074V127.074Z" fill="#EEEEEE"/>
<path d="M108.84 67.6411L106.819 68.2135L118.105 98.4718L116.463 86.3168L108.84 67.6411V67.6411Z" fill="#74987C"/>
<path d="M116.463 86.3169L118.105 98.4719L118.163 98.5192L123.806 103.799L116.463 86.3169V86.3169Z" fill="#8FB896"/>
<path d="M118.163 98.5191L121.305 106.49L148.215 125.161L152.622 120.741L123.806 103.799L118.163 98.5191Z" fill="#74987C"/>
<path d="M79.8442 105.883L91.9109 101.339L86.429 85.9553L70.4739 91.5756L74.7065 103.526L79.8442 105.883V105.883Z" fill="#8FA955"/>
<path d="M73.9682 50.8762L62.1652 55.9247L59.7897 60.9393L64.1699 73.3002L79.5292 66.5179L73.9682 50.8762V50.8762Z" fill="#8FA955"/>
<path d="M74.1596 80.4844L70.3157 91.0606L70.4738 91.5758L86.4289 85.9555L83.2294 76.8755L76.5233 79.6124L74.1596 80.4844V80.4844Z" fill="#93B447"/>
<path d="M76.033 78.4399L76.5233 79.6124L83.2294 76.8755L105.368 68.0922L105.574 67.4877L105.458 67.3931L82.8657 75.9028L76.033 78.4399Z" fill="#667C6B"/>
<path d="M74.1389 79.2119L76.0331 78.4397L82.8657 75.9026L79.5291 66.5176L64.1699 73.2999L64.3385 73.9203L74.1389 79.2119V79.2119Z" fill="#93B447"/>
<path d="M83.2294 76.8753L86.4289 85.9554L100.173 81.1387L105.368 68.0921L83.2294 76.8753V76.8753Z" fill="#AAD076"/>
<path d="M79.5291 66.5177L82.8657 75.9027L105.458 67.393L92.8042 60.7388L79.5291 66.5177Z" fill="#AAD076"/>
<path d="M100.173 81.1387L86.429 85.9553L91.9109 101.339L100.173 81.1387V81.1387Z" fill="#93B447"/>
<path d="M79.5291 66.5179L92.8043 60.7391L73.9682 50.8762L79.5291 66.5179Z" fill="#93B447"/>
<path d="M71.6988 36.1814L75.1769 48.5788L91.0313 44.6144L86.8949 28.3003L74.5175 31.3351L71.6988 36.1814V36.1814Z" fill="#8FA955"/>
<path d="M127.204 35.4992L123.266 23.3067L118.519 20.5925L105.72 23.6693L111.091 39.5423L127.204 35.4992V35.4992Z" fill="#8FA955"/>
<path d="M98.9271 32.9989L99.5015 35.0126L101.378 42.0472L111.091 39.5425L105.72 23.6695L105.097 23.8376L98.9271 32.9989V32.9989Z" fill="#93B447"/>
<path d="M99.5015 35.0124L98.3144 35.3958L100.333 42.257L107.089 65.054L107.59 65.2697L107.685 65.1541L101.377 42.047L99.5015 35.0124V35.0124Z" fill="#667C6B"/>
<path d="M87.412 28.1429L86.895 28.3005L91.0313 44.6146L100.333 42.257L98.3144 35.3958L97.6399 32.9142L87.412 28.1429V28.1429Z" fill="#93B447"/>
<path d="M100.333 42.2569L91.0313 44.6145L94.5617 58.5996L107.089 65.0539L100.333 42.2569V42.2569Z" fill="#AAD076"/>
<path d="M111.091 39.5422L101.377 42.0469L107.685 65.154L115.608 53.27L111.091 39.5422V39.5422Z" fill="#AAD076"/>
<path d="M94.5617 58.5996L91.0313 44.6146L75.177 48.5789L94.5617 58.5996Z" fill="#93B447"/>
<path d="M111.091 39.5421L115.608 53.2699L127.204 35.499L111.091 39.5421V39.5421Z" fill="#93B447"/>
<path d="M142.529 34.7731L129.73 36.788L131.925 52.8702L148.649 50.6778L146.907 38.0549L142.529 34.7731V34.7731Z" fill="#8FA955"/>
<path d="M136.894 89.7557L149.535 87.2256L152.818 82.758L151.102 69.8669L134.715 73.3001L136.894 89.7557Z" fill="#8FA955"/>
<path d="M142.785 60.7645L148.702 51.2035L148.649 50.6778L131.925 52.8702L133.199 62.407L140.263 61.1212L142.785 60.7645V60.7645Z" fill="#93B447"/>
<path d="M140.543 62.3146L140.263 61.1212L133.199 62.4071L109.742 66.5426L109.42 67.0524L109.536 67.1471L133.304 63.4585L140.543 62.3146Z" fill="#667C6B"/>
<path d="M142.595 62.0577L140.543 62.3146L133.304 63.4585L134.715 73.3003L151.102 69.8671L150.981 69.1889L142.595 62.0577V62.0577Z" fill="#93B447"/>
<path d="M133.199 62.407L131.925 52.8701L117.522 54.8319L109.742 66.5425L133.199 62.407Z" fill="#AAD076"/>
<path d="M134.715 73.3004L133.304 63.4586L109.537 67.1472L120.523 76.3032L134.715 73.3004V73.3004Z" fill="#AAD076"/>
<path d="M117.522 54.8319L131.925 52.8701L129.73 36.7878L117.522 54.8319Z" fill="#93B447"/>
<path d="M134.715 73.3004L120.523 76.3032L136.894 89.7559L134.715 73.3004V73.3004Z" fill="#93B447"/>
</svg>
