<svg width="150" height="310" viewBox="0 0 150 310" fill="none" xmlns="http://www.w3.org/2000/svg">
<path d="M107.634 86.4367L116.442 40.6137L117.973 40.9367C121.46 41.6724 125.097 39.6583 126.125 36.0871C127.304 31.9916 124.856 27.8196 120.955 26.9967L81.1469 18.5983C77.6594 17.8626 74.0226 19.8767 72.9948 23.4479C71.8157 27.5434 74.2634 31.7154 78.1641 32.5383L79.9868 32.9228L71.1794 78.7459C71.1794 78.7459 42.0156 72.5933 37.3672 96.7777L4.08494 269.938C3.68616 272.013 3.71758 274.152 4.1964 276.2C5.37181 281.136 8.83548 289.43 18.897 291.553L77.2246 303.858C87.675 306.063 94.0062 299.24 96.7678 295.2C97.8053 293.684 98.4808 291.945 98.8306 290.125L132.15 116.774C136.798 92.5894 107.634 86.4367 107.634 86.4367Z" fill="#D2E7F4"/>
<path d="M83.7304 53.5793L94.9827 55.9532L95.1407 55.9865L106.393 58.3604L117.056 26.1735L85.8018 19.5799L83.7304 53.5793Z" fill="#B6A775"/>
<path d="M104.584 6.85426L104.426 6.82093L86.7939 3.10114L85.8014 19.5802L117.055 26.1738L122.216 10.5741L104.584 6.85426Z" fill="#D2BE79"/>
<path d="M88.9245 116.476C88.9245 116.476 79.9108 171.924 73.8007 190.754C73.8007 190.754 47.6975 256.173 37.2358 269.157C37.2358 269.157 39.6471 285.229 42.8299 286.695C42.8299 286.695 45.3871 286.81 46.4258 282.261C46.4258 282.261 55.37 267.698 59.3289 262.693C59.3289 262.693 62.0839 256.122 63.6887 251.785C66.1302 245.201 85.1338 194.747 85.1338 194.747L90.8988 181.792C90.8988 181.792 99.3285 140.697 103.031 136.829C103.031 136.829 107.358 134.312 101.926 129.351L88.9196 116.501L88.9245 116.476Z" fill="#C9D3D9"/>
<path d="M94.7063 122.185L95.1658 120.19C95.1658 120.19 91.5952 117.847 96.517 120.528C96.517 120.528 101.928 126.318 106.179 127.692C106.179 127.692 115.141 129.94 117.268 131.965C117.268 131.965 119.409 134.907 124.105 134.878C124.105 134.878 132.348 135.742 108.958 119.086C108.958 119.086 85.1672 108.332 92.4855 117.359L92.9752 120.469" fill="#C9D3D9"/>
<path d="M118.092 130.377C118.092 130.377 106.615 119.108 92.471 117.37L118.092 130.377Z" fill="#C9D3D9"/>
<path d="M92.0571 113.799C88.5178 113.661 88.9276 116.463 88.9276 116.463L82.68 186.137L46.8676 279.308C50.4957 284.378 70.7003 289.515 70.7003 289.515C72.8408 292.456 74.5319 289.184 74.5319 289.184C76.7338 283.649 83.8363 248.406 83.8363 248.406C88.7538 226.835 101.579 195.236 101.579 195.236C104.646 190.003 112.486 167.962 112.486 167.962C113.522 163.426 124.943 133.875 124.943 133.875L106.936 122.302" fill="#C9D3D9"/>
<path d="M74.2424 187.284C74.6269 186.928 75.1765 186.832 75.6894 186.794C79.0906 186.532 92.4406 185.229 101.008 196.639C101.008 196.639 104.089 203.567 96.6692 198.161C96.47 198.013 96.2441 197.872 96.062 197.701C94.3064 196.046 83.2151 187.243 74.2032 189.527C74.2032 189.527 71.2976 190.04 74.2546 187.286L74.2424 187.284Z" fill="#D8687B"/>
<path d="M73.3585 191.481C73.6581 191.041 74.1397 190.772 74.6189 190.582C77.7539 189.336 89.8735 184.237 101.032 192.101C101.445 192.387 101.801 192.767 102.088 193.185C103.063 194.622 102.389 199.248 97.8141 195.223C97.6198 195.05 97.3232 195.08 97.1046 194.968C94.9715 193.895 81.9455 188.776 73.9296 193.641C73.9296 193.641 70.0756 196.391 73.3707 191.484L73.3585 191.481Z" fill="#D8687B"/>
<path d="M87.7199 191.955C87.7052 192.031 87.6955 192.082 87.6832 192.146C87.6189 193.073 87.5649 197.432 85.3096 202.916C85.3096 202.916 76.6107 221.597 83.6732 211.167C83.6732 211.167 89.0312 203.026 89.7733 192.587C90.3842 184.014 88.0128 191.023 87.7345 191.945L87.7199 191.955Z" fill="#D8687B"/>
<path d="M85.9832 192.238C85.9832 192.238 85.9491 192.283 85.9296 192.319C85.6302 192.627 84.1043 193.987 82.876 196.562C82.876 196.562 78.985 205.688 80.4703 199.737C80.4703 199.737 81.6792 195.157 85.1355 191.648C87.9662 188.762 86.2365 191.841 85.9953 192.24L85.9832 192.238Z" fill="#D8687B"/>
<path d="M50.7707 269.138L46.8542 279.318C48.0648 281.309 52.2098 283.097 52.2098 283.097C48.5424 280.337 49.3741 274.102 50.8072 269.146L50.7586 269.136L50.7707 269.138Z" fill="#618477"/>
<path d="M50.9955 268.563L50.7684 269.15L50.8171 269.161C50.8807 268.962 50.932 268.761 50.9955 268.563Z" fill="#8EB5A8"/>
</svg>
