<svg width="20" height="24" viewBox="0 0 20 24" fill="none" xmlns="http://www.w3.org/2000/svg">
<mask id="path-1-inside-1_211_756" fill="white">
<path fill-rule="evenodd" clip-rule="evenodd" d="M15.9971 18.0029C18.4276 16.1787 20 13.273 20 10C20 4.47715 15.5228 0 10 0C4.47715 0 0 4.47715 0 10C0 13.273 1.57237 16.1787 4.00294 18.0029L10 24L15.9971 18.0029Z"/>
</mask>
<path fill-rule="evenodd" clip-rule="evenodd" d="M15.9971 18.0029C18.4276 16.1787 20 13.273 20 10C20 4.47715 15.5228 0 10 0C4.47715 0 0 4.47715 0 10C0 13.273 1.57237 16.1787 4.00294 18.0029L10 24L15.9971 18.0029Z" fill="#1A66FF"/>
<path d="M15.9971 18.0029L13.5959 14.8038L13.3691 14.974L13.1686 15.1745L15.9971 18.0029ZM4.00294 18.0029L6.83137 15.1745L6.63086 14.974L6.40408 14.8038L4.00294 18.0029ZM10 24L7.17157 26.8284L10 29.6569L12.8284 26.8284L10 24ZM16 10C16 11.9612 15.0633 13.7025 13.5959 14.8038L18.3982 21.2021C21.792 18.6549 24 14.5847 24 10H16ZM10 4C13.3137 4 16 6.68629 16 10H24C24 2.26801 17.732 -4 10 -4V4ZM4 10C4 6.68629 6.68629 4 10 4V-4C2.26801 -4 -4 2.26801 -4 10H4ZM6.40408 14.8038C4.93671 13.7024 4 11.9612 4 10H-4C-4 14.5847 -1.79196 18.6549 1.6018 21.2021L6.40408 14.8038ZM12.8284 21.1716L6.83137 15.1745L1.17451 20.8314L7.17157 26.8284L12.8284 21.1716ZM13.1686 15.1745L7.17157 21.1716L12.8284 26.8284L18.8255 20.8314L13.1686 15.1745Z" fill="#ECECEC" mask="url(#path-1-inside-1_211_756)"/>
</svg>
