<svg width="491" height="1080" viewBox="0 0 491 1080" fill="none" xmlns="http://www.w3.org/2000/svg">
<g clip-path="url(#clip0_305_6)">
<rect width="491" height="1080" fill="#F6F4E2"/>
<path d="M129.2 628.4L120.2 634L119 638.3L124.4 648L133.2 651L134.7 650.2L135.2 650.9L133.4 652L132.9 654.9L131.1 651.8L106.9 644.2L88.2999 652.8L87.1999 656.5L85.0999 656L86.2999 651.5L74.8999 634.2L51.3999 626.9L42.2999 632L35.8999 654.9L71.0999 712.5L130.6 683.8L134.8 666.4L137 670.3L141.5 671.5L150.8 666.3L157.5 637.5L129.2 628.4Z" fill="#D9D697"/>
<path d="M71.3001 716.9L67.6001 715.9L56.7001 772.9V773L54.1001 788.1L78.1001 841.9L88.9001 839.1L60.4001 786.3L71.3001 716.9Z" fill="#D9D697"/>
<path d="M67 713.8L66.8 713.6L33.9 658.9L11.1 655.6L2.9 661.3L-2.2 685.3L7.8 702.6L11.4 703.3L11.1 705.4L6.7 704.7L-9 717.3L-14 740.7L-8.3 749L14.5 753.2L66.1 714.6L67 713.8Z" fill="#D9D697"/>
<path d="M72.5 716.2L94.8 776.5L116.7 784L125.9 780L135.4 757.2L128.8 738.3L125.4 737L126 735L130.3 736.6L148.1 727L157.4 704.9L153.3 695.6L131.6 687.3L72.5 716.2Z" fill="#D9D697"/>
<path d="M120.9 615.6L125.4 625.1L154.3 634.3L166.4 608.1L161.6 598.8L157.3 597.3L146.8 601.6L142.8 609.7L143.5 611.2L142.7 611.6L141.7 609.7L132.8 607.2L122.6 611.4L120.9 615.6Z" fill="#D9D697"/>
<path d="M186 581.7L181 580L177.9 607.4L155 630.9L156.2 632.2L175.7 613.4H175.8L180.9 608.3L186 581.7Z" fill="#D9D697"/>
<path d="M182.4 659.3L191.5 653.2L192.2 648.7L185.8 640.3L155.6 637V637.1L149.3 665.1L155.9 673.2L160.5 673.9L169.9 667.6L172.1 658.9L171 657.5L171.8 656.9L173.1 658.6L182.4 659.3Z" fill="#D9D697"/>
<path d="M66.2 715.3L62.5 714.2L51.6 771.2L60.5 751L66.2 715.3Z" fill="#74987C"/>
<path d="M60.5 751L51.6 771.2L51.7 771.3L55.4 784.7L60.5 751Z" fill="#8FB896"/>
<path d="M51.7 771.3L49 786.5L73 840.3L83.8 837.5L55.4 784.7L51.7 771.3Z" fill="#74987C"/>
<path d="M96.1 673.2L78.5 667.8L66.4 710.7L90.2 699.3L96.1 673.2Z" fill="#F7BD66"/>
<path d="M78.5 667.8L96.1 673.2L103 642.9L101.8 642.6L83.3 651.2L82.1 654.9L78.5 667.8Z" fill="#F08437"/>
<path d="M103 642.9L96.1 673.2L125.5 682.1L131.1 659L126.1 650.1L103 642.9Z" fill="#E56733"/>
<path d="M78.5 667.8L82.1 654.9L80.1 654.4L76.7 667.3L65.5 709.9L66.1 710.9L66.4 710.7L78.5 667.8Z" fill="#C6653A"/>
<path d="M69.9 632.6L68.8 632.3L59.6 662.1L76.7 667.3L80.1 654.4L81.2 649.8L69.9 632.6Z" fill="#F08437"/>
<path d="M51.8 687.7L65.5 709.9L76.7 667.3L59.6 662.1L51.8 687.7Z" fill="#F7BD66"/>
<path d="M51.8 687.7L59.6 662.1L30.8 653.3L51.8 687.7Z" fill="#F08437"/>
<path d="M59.6 662.1L68.8 632.3L46.3 625.3L37.2 630.3L30.8 653.3L59.6 662.1Z" fill="#E56733"/>
<path d="M90.2 699.3L125.5 682.1L96.1 673.2L90.2 699.3Z" fill="#F08437"/>
<path d="M89.8 774.9L111.7 782.4L120.8 778.4L130 756.6L101.2 747.2L89.8 774.9Z" fill="#E9929D"/>
<path d="M130 756.6L130.4 755.6L123.7 736.7L120.3 735.3L108.1 730.6L101.2 747.2L130 756.6Z" fill="#EFB2B8"/>
<path d="M143 725.4L143.5 724.4L115.3 712.8L108.7 728.8L120.9 733.3L125.2 734.9L143 725.4Z" fill="#EFB2B8"/>
<path d="M120.3 735.3L120.9 733.3L108.7 728.8L68.4 714.1L67.4 714.6L67.6 714.9L108.1 730.6L120.3 735.3Z" fill="#E37A8B"/>
<path d="M101.2 747.2L108.1 730.6L67.6 714.9L76.5 739.1L101.2 747.2Z" fill="#F3C4C8"/>
<path d="M89.8 774.9L101.2 747.2L76.5 739.1L89.8 774.9Z" fill="#EFB2B8"/>
<path d="M68.4 714.1L108.7 728.8L115.3 712.8L91.2 702.9L68.4 714.1Z" fill="#F3C4C8"/>
<path d="M126.5 685.7L115.3 712.8L143.5 724.4L152.3 703.3L148.2 694L126.5 685.7Z" fill="#E9929D"/>
<path d="M115.3 712.8L126.5 685.7L91.2 702.9L115.3 712.8Z" fill="#EFB2B8"/>
<path d="M-13.4 747.3L9.5 751.4L15.3 722.8L-14.3 716.6L-19 739L-13.4 747.3Z" fill="#8FA955"/>
<path d="M28.9 657.2L6.1 654L-2.1 659.6L-7 682.6L22.9 686.5L28.9 657.2Z" fill="#8FA955"/>
<path d="M2.79999 700.9L6.39999 701.6L19.3 704L22.9 686.5L-7.00001 682.6L-7.20001 683.7L2.79999 700.9Z" fill="#93B447"/>
<path d="M6.40001 701.6L6.10001 703.8L18.8 705.8L61.1 712.8L61.9 712.2L61.8 712L19.3 704L6.40001 701.6Z" fill="#667C6B"/>
<path d="M-14.1 715.7L-14.3 716.6L15.3 722.8L18.8 705.8L6.10001 703.8L1.70001 702.9L-14.1 715.7Z" fill="#93B447"/>
<path d="M18.8 705.8L15.3 722.8L40.8 728.1L61.1 712.8L18.8 705.8Z" fill="#AAD076"/>
<path d="M22.9 686.5L19.3 704L61.8 712L48.6 689.8L22.9 686.5Z" fill="#AAD076"/>
<path d="M40.8 728.1L15.3 722.8L9.5 751.4L40.8 728.1Z" fill="#93B447"/>
<path d="M22.9 686.5L48.6 689.8L28.9 657.2L22.9 686.5Z" fill="#93B447"/>
<path d="M127.3 605.7L117.5 609.7L115.9 613.9L120.3 623.4H120.5L132.8 618.2L127.3 605.7Z" fill="#EAEAEA"/>
<path d="M148.7 632.5L149.2 632.6L149.3 632.5L141 614.8L138.5 609.5L137.6 609.9L140.2 615.2L148.7 632.5Z" fill="#DDDDDD"/>
<path d="M137.6 628.9L148.7 632.5L140.2 615.2L132.8 618.2L137.6 628.9Z" fill="white"/>
<path d="M142.2 599.7L141.7 599.9L137.8 608L138.5 609.5L141 614.8L148.6 611.7L142.2 599.7Z" fill="#F2F2F2"/>
<path d="M152.2 595.6L142.2 599.7L148.6 611.7L161.3 606.4L156.6 597.2L152.2 595.6Z" fill="#EAEAEA"/>
<path d="M132.8 618.2L140.2 615.2L137.6 609.9L136.7 608.1L127.7 605.6L127.3 605.7L132.8 618.2L120.5 623.4L137.6 628.9L132.8 618.2Z" fill="#F2F2F2"/>
<path d="M148.6 611.7L141 614.8L149.3 632.5L154.1 622L148.6 611.7Z" fill="white"/>
<path d="M154.1 622L161.3 606.4L148.6 611.7L154.1 622Z" fill="#F2F2F2"/>
<path d="M122.7 658L123 658.4L135.3 651.8L131.4 645.1L126.3 648.1L124.5 649.1L122.7 658Z" fill="#F2F2F2"/>
<path d="M125.7 647.3L126.3 648.1L131.4 645.1L148.4 635.1L148.5 634.6H148.4L131 644.3L125.7 647.3Z" fill="#DDDDDD"/>
<path d="M124.2 648.1L125.7 647.3L131 644.3L127 637.3L115.2 644.7L115.5 645.1L124.2 648.1Z" fill="#F2F2F2"/>
<path d="M127 637.3L120.3 625.5L111.2 631.1L110 635.4L115.2 644.7L127 637.3Z" fill="#EAEAEA"/>
<path d="M120.3 625.5L127 637.3L137.1 631L120.3 625.5Z" fill="#F2F2F2"/>
<path d="M148.4 634.6L137.1 631L127 637.3L131 644.3L148.4 634.6Z" fill="white"/>
<path d="M141.9 663.4L135.3 651.8L123 658.4L128 667.4L132.6 668.6L141.9 663.4Z" fill="#EAEAEA"/>
<path d="M135.3 651.8L141.9 663.4L145.8 646.2L135.3 651.8Z" fill="#EEEEEE"/>
<path d="M135.3 651.8L145.8 646.2L148.4 635.1L131.4 645.1L135.3 651.8Z" fill="white"/>
<path d="M151.1 635.4L150.6 635.3L150.5 635.5L162.4 651.1L166 655.9L166.7 655.3L163.1 650.7L151.1 635.4Z" fill="#DDDDDD"/>
<path d="M150.5 635.5L150.6 635.3H150.5V635.5Z" fill="#BFBFBF"/>
<path d="M148 646.7L144.3 663.4L155.6 655.7L148 646.7Z" fill="#F2F2F2"/>
<path d="M169.7 646.2L163.1 650.7L166.7 655.3L168 656.9L177.4 657.6L177.7 657.3L169.7 646.2Z" fill="#F2F2F2"/>
<path d="M163.1 650.7L169.7 646.2L162.8 636.6L151.1 635.4L163.1 650.7Z" fill="white"/>
<path d="M166 655.9L162.4 651.1L155.6 655.7L164.4 666.2L164.8 665.9L167 657.2L166 655.9Z" fill="#F2F2F2"/>
<path d="M155.6 655.7L162.4 651.1L150.5 635.5L148 646.7L155.6 655.7Z" fill="white"/>
<path d="M162.8 636.6L169.7 646.2L180.8 638.6L162.8 636.6Z" fill="#F2F2F2"/>
<path d="M155.6 655.7L144.3 663.4L150.9 671.5L155.5 672.2L164.4 666.2L155.6 655.7Z" fill="#EAEAEA"/>
<path d="M177.7 657.3L186.4 651.5L187.2 647L180.8 638.6L169.7 646.2L177.7 657.3Z" fill="#EAEAEA"/>
<path d="M150.9 633.2L152.1 634.5L171.7 615.8L162.8 621.1L150.9 633.2Z" fill="#DDDDDD"/>
<path d="M173.9 609.7L171.7 615.8L176.9 610.7L181.9 584L176.9 582.3L173.9 609.7Z" fill="#EAEAEA"/>
<path d="M171.7 615.8L173.9 609.7L162.8 621.1L171.7 615.8Z" fill="white"/>
<path d="M452.303 756.286L456.603 750.244L454.294 732.069L443.032 722.462L440.309 722.946L440 721.272L443.364 720.794L451.192 708.075L448.938 690.464L442.882 686.022L425.812 688.719L398.725 729.224L435.507 759.595L452.303 756.286Z" fill="#D9D697"/>
<path d="M359.265 803.152L368.507 791.074L367.595 784.77L361.615 780.392L375.513 775.098L393.672 729.869L351.52 707.637L335.701 714.33L332.61 721.105L338.663 738.338L351.67 745.497L354.274 744.527L354.85 746.033L351.775 747.263L351.099 749.036L346.4 746.094L333.896 748.264L332.671 750.234L331.475 749.642L332.862 747.159L328.813 735.056L315.926 726.961L309.691 728.577L302.222 741.331L314.298 781.201L314.439 781.186L351.035 774.056L352.019 776.8L314.874 784.128L314.825 784.346L318.556 824.621L330.74 832.786L336.967 831.81L346.539 819.486L345.636 806.856L343.715 805.413L344.461 804.344L346.832 806.026L359.265 803.152Z" fill="#D9D697"/>
<path d="M331.232 833.448L360.867 860.553L360.803 860.63L368.288 867.274L406.083 872.886L408.379 865.978L369.52 863.243L335.173 833.055L331.232 833.448Z" fill="#D9D697"/>
<path d="M417.332 670.662L410.86 667.043L393.1 671.372L384.73 683.647L385.497 686.342L383.977 686.778L383.014 683.534L369.514 677.134L352.253 681.484L348.557 687.893L353.133 704.563L396.439 726.964L396.552 726.669L422.442 686.994L417.332 670.662Z" fill="#D9D697"/>
<path d="M312.082 783.909L311.941 783.923L271.428 783.84L262.256 795.201L262.529 801.498L273.966 812.154L286.645 812.453L288.179 810.737L289.248 811.483L287.334 813.664L289.019 826.287L300.147 836.689L306.507 836.339L316.206 825.282L312.082 783.909Z" fill="#D9D697"/>
<path d="M357.934 856.084L358.011 856.147L366.651 858.697L349.931 844.233L357.934 856.084Z" fill="white"/>
<path d="M357.934 856.084L349.931 844.233L332.381 828.573L328.44 828.965L357.934 856.084Z" fill="#DDDDDD"/>
<path d="M365.432 862.869L403.291 868.404L405.524 861.572L366.651 858.697L358.011 856.147L365.432 862.869Z" fill="#DDDDDD"/>
<path d="M325.944 730.51L325.339 730.144L315.252 746.57L324.573 752.392L328.621 745.237L330.071 742.677L325.944 730.51Z" fill="#EEEEEE"/>
<path d="M344.136 741.914L343.531 741.548L330.964 743.796L329.817 745.829L325.551 752.934L335.244 758.931L344.136 741.914Z" fill="#EEEEEE"/>
<path d="M358.408 756.054L356.728 749.897L344.136 741.914L335.244 758.931L351.452 768.97L358.408 756.054Z" fill="#DDDDDD"/>
<path d="M312.994 722.492L306.823 724.031L299.354 736.785L315.252 746.57L325.339 730.144L312.994 722.492Z" fill="#DDDDDD"/>
<path d="M327.676 773.543L351.452 768.97L335.244 758.931L327.676 773.543Z" fill="#EEEEEE"/>
<path d="M328.621 745.237L324.573 752.392L311.232 776.106L311.366 776.732L311.647 776.704L325.551 752.934L329.817 745.829L328.621 745.237Z" fill="#BFBFBF"/>
<path d="M335.244 758.931L325.551 752.934L311.647 776.704L327.676 773.543L335.244 758.931Z" fill="white"/>
<path d="M315.252 746.57L306.565 760.654L311.232 776.106L324.573 752.392L315.252 746.57Z" fill="white"/>
<path d="M306.565 760.654L315.252 746.57L299.354 736.785L306.565 760.654Z" fill="#EEEEEE"/>
<path d="M268.572 779.435L259.324 790.732L259.737 797.015L270.632 807.228L282.5 792.259L268.572 779.435Z" fill="#DDDDDD"/>
<path d="M309.212 779.363L309.008 779.454L290.8 799.959L285.31 806.191L286.316 807.014L291.665 800.796L309.36 780.13L309.212 779.363Z" fill="#BFBFBF"/>
<path d="M270.632 807.228L271.174 807.671L283.775 807.907L285.31 806.191L290.8 799.959L282.5 792.259L270.632 807.228Z" fill="#EEEEEE"/>
<path d="M291.665 800.796L286.316 807.014L284.542 809.181L286.227 821.804L286.705 822.325L299.796 808.229L291.665 800.796Z" fill="#EEEEEE"/>
<path d="M292.734 779.442L282.5 792.259L290.8 799.959L309.008 779.454L292.734 779.442Z" fill="white"/>
<path d="M282.5 792.259L292.734 779.442L268.572 779.435L282.5 792.259Z" fill="#EEEEEE"/>
<path d="M313.414 820.799L299.796 808.229L286.705 822.325L297.277 832.143L303.715 831.857L313.414 820.799Z" fill="#DDDDDD"/>
<path d="M299.796 808.229L313.414 820.799L310.882 796.109L299.796 808.229Z" fill="#EEEEEE"/>
<path d="M299.796 808.229L310.882 796.109L309.36 780.13L291.665 800.796L299.796 808.229Z" fill="white"/>
<path d="M365.652 786.669L364.662 780.302L352.781 771.608L341.54 786.444L356.699 798.079L365.652 786.669Z" fill="#DDDDDD"/>
<path d="M341.54 786.444L328.456 776.379L312.632 779.448L334.945 795.131L341.54 786.444Z" fill="white"/>
<path d="M328.456 776.379L341.54 786.444L352.781 771.608L328.456 776.379Z" fill="#EEEEEE"/>
<path d="M341.54 786.444L334.945 795.131L341.529 799.876L343.963 801.481L356.397 798.607L356.699 798.079L341.54 786.444Z" fill="#EEEEEE"/>
<path d="M340.783 800.945L341.529 799.876L334.945 795.131L312.632 779.448L311.942 779.659L311.956 779.8L334.185 796.06L340.783 800.945Z" fill="#BFBFBF"/>
<path d="M342.767 802.31L340.783 800.945L334.185 796.06L327.195 805.071L343.304 815.545L343.671 814.94L342.767 802.31Z" fill="#EEEEEE"/>
<path d="M334.034 827.342L343.304 815.545L327.195 805.071L315.687 820.075L327.807 828.318L334.034 827.342Z" fill="#DDDDDD"/>
<path d="M313.506 796.061L327.195 805.071L334.185 796.06L311.956 779.8L313.506 796.061Z" fill="white"/>
<path d="M327.195 805.071L313.506 796.061L315.687 820.075L327.195 805.071Z" fill="#EEEEEE"/>
<path d="M395.158 725.528L392.463 726.294L407.515 766.791L405.325 750.523L395.158 725.528Z" fill="#74987C"/>
<path d="M405.325 750.523L407.515 766.791L407.592 766.854L415.119 773.921L405.325 750.523Z" fill="#8FB896"/>
<path d="M407.592 766.854L411.783 777.522L447.673 802.511L453.549 796.595L415.119 773.921L407.592 766.854Z" fill="#74987C"/>
<path d="M356.487 776.71L372.58 770.629L365.269 750.04L343.99 757.562L349.635 773.556L356.487 776.71Z" fill="#8FA955"/>
<path d="M348.65 703.091L332.909 709.847L329.741 716.559L335.582 733.102L356.067 724.025L348.65 703.091Z" fill="#8FA955"/>
<path d="M348.906 742.717L343.779 756.872L343.99 757.562L365.269 750.04L361.002 737.887L352.058 741.55L348.906 742.717Z" fill="#93B447"/>
<path d="M351.404 739.981L352.058 741.55L361.002 737.887L390.529 726.132L390.803 725.323L390.648 725.196L360.517 736.585L351.404 739.981Z" fill="#667C6B"/>
<path d="M348.878 741.015L351.404 739.981L360.517 736.585L356.067 724.025L335.582 733.102L335.807 733.932L348.878 741.015Z" fill="#93B447"/>
<path d="M361.002 737.887L365.269 750.04L383.6 743.593L390.529 726.132L361.002 737.887Z" fill="#AAD076"/>
<path d="M356.067 724.025L360.517 736.585L390.648 725.196L373.772 716.291L356.067 724.025Z" fill="#AAD076"/>
<path d="M383.6 743.593L365.269 750.04L372.58 770.629L383.6 743.593Z" fill="#93B447"/>
<path d="M356.067 724.025L373.772 716.291L348.65 703.091L356.067 724.025Z" fill="#93B447"/>
<path d="M345.624 683.424L350.263 700.016L371.407 694.711L365.891 672.876L349.383 676.938L345.624 683.424Z" fill="#8FA955"/>
<path d="M419.65 682.511L414.399 666.193L408.067 662.56L390.997 666.678L398.16 687.922L419.65 682.511Z" fill="#8FA955"/>
<path d="M381.938 679.164L382.704 681.859L385.206 691.274L398.16 687.922L390.997 666.678L390.167 666.903L381.938 679.164Z" fill="#93B447"/>
<path d="M382.704 681.859L381.121 682.372L383.813 691.555L392.823 722.066L393.492 722.355L393.619 722.2L385.206 691.274L382.704 681.859Z" fill="#667C6B"/>
<path d="M366.58 672.665L365.891 672.876L371.407 694.711L383.813 691.555L381.121 682.372L380.221 679.051L366.58 672.665Z" fill="#93B447"/>
<path d="M383.813 691.555L371.407 694.711L376.116 713.428L392.823 722.066L383.813 691.555Z" fill="#AAD076"/>
<path d="M398.16 687.922L385.206 691.274L393.619 722.2L404.184 706.295L398.16 687.922Z" fill="#AAD076"/>
<path d="M376.116 713.428L371.407 694.711L350.263 700.016L376.116 713.428Z" fill="#93B447"/>
<path d="M398.16 687.922L404.184 706.295L419.65 682.511L398.16 687.922Z" fill="#93B447"/>
<path d="M440.089 681.539L423.019 684.236L425.947 705.76L448.252 702.825L445.928 685.931L440.089 681.539Z" fill="#8FA955"/>
<path d="M432.574 755.126L449.433 751.74L453.811 745.761L451.523 728.508L429.668 733.103L432.574 755.126Z" fill="#8FA955"/>
<path d="M440.431 716.325L448.322 703.529L448.252 702.825L425.947 705.76L427.646 718.523L437.067 716.802L440.431 716.325Z" fill="#93B447"/>
<path d="M437.44 718.4L437.067 716.802L427.646 718.523L396.362 724.058L395.933 724.741L396.087 724.867L427.786 719.931L437.44 718.4Z" fill="#667C6B"/>
<path d="M440.177 718.056L437.44 718.4L427.786 719.931L429.668 733.102L451.523 728.508L451.361 727.6L440.177 718.056Z" fill="#93B447"/>
<path d="M427.646 718.523L425.947 705.76L406.738 708.385L396.362 724.058L427.646 718.523Z" fill="#AAD076"/>
<path d="M429.668 733.102L427.786 719.931L396.087 724.867L410.74 737.121L429.668 733.102Z" fill="#AAD076"/>
<path d="M406.738 708.385L425.947 705.76L423.019 684.236L406.738 708.385Z" fill="#93B447"/>
<path d="M429.668 733.102L410.74 737.121L432.574 755.126L429.668 733.102Z" fill="#93B447"/>
</g>
<defs>
<clipPath id="clip0_305_6">
<rect width="491" height="1080" fill="white"/>
</clipPath>
</defs>
</svg>
